<mxfile host="app.diagrams.net" modified="2023-11-20T17:08:01.576Z" agent="Mozilla/5.0 (Macintosh; Intel Mac OS X 10_15_7) AppleWebKit/537.36 (KHTML, like Gecko) Chrome/119.0.0.0 Safari/537.36" etag="zOcSsyy0ms_-LecFqHzT" version="22.1.3" type="github">
  <diagram name="Seite-1" id="OEWwu8yMKqVCI6iCc8ZB">
    <mxGraphModel dx="1707" dy="1125" grid="1" gridSize="10" guides="1" tooltips="1" connect="1" arrows="1" fold="1" page="1" pageScale="1" pageWidth="827" pageHeight="1169" math="0" shadow="0">
      <root>
        <mxCell id="0" />
        <mxCell id="1" parent="0" />
        <mxCell id="omp_RndTsjfDc7hUTQ8i-1" value="" style="shape=image;verticalLabelPosition=bottom;labelBackgroundColor=default;verticalAlign=top;aspect=fixed;imageAspect=0;image=data:image/png,iVBORw0KGgoAAAANSUhEUgAAA8kAAACwCAYAAAA8CSwNAAAAAXNSR0IArs4c6QAAAERlWElmTU0AKgAAAAgAAYdpAAQAAAABAAAAGgAAAAAAA6ABAAMAAAABAAEAAKACAAQAAAABAAADyaADAAQAAAABAAAAsAAAAAA/2YC6AABAAElEQVR4AeydB2AUZfr/39les5tsQipplISW0EHFDrY7RKyn3llPvbPenT/lzgKCZ+HuvFPvf54VbGdDT9FTQUURQXoJLQFCCCmk1+27szv/55nZ2WxCNiQhgUSegd155533fd53PrOZme88b+EYYwJ8aCECRIAIEAEiQASIABEgAkSACBABInDKE1AhgYULF3KnPAkCQASIABEgAkSACBABIkAEiAARIAKnNIEFCxYIilOaAB08ESACRIAIEAEiQASIABEgAkSACBCBCAIkkiNgUJAIEAEiQASIABEgAkSACBABIkAETm0CJJJP7fNPR08EiAARIAJEgAgQASJABIgAESACEQRIJEfAoCARIAJEgAgQASJABIgAESACRIAInNoESCSf2uefjp4IEAEiQASIABEgAkSACBABIkAEIgiQSI6AQUEiQASIABEgAkSACBABIkAEiAAROLUJkEg+tc8/HT0RIAJEgAgQASJABIgAESACRIAIRBAgkRwBg4JEgAgQASJABIgAESACRIAIEAEicGoTIJEcOv+CkDb+gG/8f4uD1t+c2j8JOnoiQASIABEgAkSACBABIkAEiMCpS0DVm0P3CdYJkflUrLFRwSkOR8Z1DAuCNq5FGH1/A6tjyZ79fzEYDC0d03S1fbz5u7KN+3zB9Ctr3fq5JvOhQtzG8gTmNh/ruDDtQF3k88S7j5T0lPdAPSaqFxEgAkSACBABIkAEiAARIAJEoD8J9Egko3Cscs34/BDPprevVGPVBPPWaQaForx9fNuWIGSPPWyPu8vB9AqduexzA2M/tu1tH0KvbovAxmg8+/8ni7ue5G9v7dhbeFwNHv35jDVWjWBNLwqCPnSc7jGZ5rUXpSoUUet6bOsnPsXR52kSY/BKwqSv/HgEv+1mmemJrxmVSASIABEgAkSACBABIkAEiAARGNgEeiSSIw/FqG9cZWRCK8ZxQn0F83hamQGkb5RFoShck2O23+BhLYL1GKKzxTfy4T0e7srEmPJrhjP2AZrsSf4oVYgaLQhjLhKFv67uExT6gsDioiYeVDvc9iRz2T9tLIEddsfe4HCnzt2uc3BnsIq5g+owqLJEgAgQASJABIgAESACRIAIEIETRKCXItltT1Btnd/ew2pgPiHnl4f9+ssN6u0vp3LcCvRoyk2ss5jjVQ9LmNYAB6Zx1axBbyZ6jKv9Q37nYMEYhaq+MIsre9knTP7F4ZCn2umaeH+xqm5GSmD/o3p9rDIyP263+kY/Vqc+tHcYZ9og2zGoSj9MVTS/I/OT61DHC6PkOMZcramqokdlz3er3yqKxkRN+bsg+duSdRGSjxWTYN0jm5B3VaaeM6tbhJG3yvXB+sZ6jnwe6d2NtC0fjyc4cV457xgVWe9gMGf2QV64Ik697282jtvdWXV1rOxzq6Lixxj9qJW77CmfOjwJ01zqsqF6Tu+U+WWz5L0Hee3v5PPmE9LObvAPuRnPC7LqzH5ndZTLj9x3NJujzzk2ae/stzCYm7rLLGhNBIgAESACRIAIEAEiQASIwOAi0EuR3PlBqgRFmcttO6/WPXF6LDS/1rExZ+6xxz5kMpc8yZie1dvjflXDmCrZXPZiMDgqXxRtjFlMKnchc+ect8vMxSS4Yyc7eJaGJTj4uKkOXj9Kby57TyfEVkXmF4RYVZ0n7rIaXn+Fk9cbHWBHqpVtrjvmG344x30QDCZlldjHfA9lDsUy0FYoDeNi9n0BXupyTFPv4aZhU+sUQVjPuGOLZG/g9D9vcegfZsxtN6l0LQ63bW61ynjBBNf2mTpddlzUMs2uQtaac1f7+tjmlupMn8je3Wbf6Uv2uPU3S/XEb8NMZl5bavRbJ9d6Yq90mWsq81nLwyjEq91pD9Xy7jEGVdHL3al3m03scx1r6cjPpLIWxgfHzJCOTU5tY7XuoTcmxnxzDTLF2Gh1xJcmXbOZ1Mk5t7NxQook4Nv9Fuwsn2sBxrQQASJABIgAESACRIAIEAEiQAROHIFejm6tN5faZ61b13K+gJ+CoOUJrDI2ic7QCV8zFpd8gI36c7U79h65n+/Rh6RPQ2FrMm95Mt/44+h8yyprvqL8nhTjqtPG6IQPMT0KszMsP8a091h3sMTrU5h5/1sT1J9Z5XxOwZovpUo5TRSkoTJOMzddj/FYpiz4GJPSMF3dRtmz3KGEdpsg7s8qcujvZqqKLRPU3wzNN347VCyXT5t8RK+/ULYnH1dkmcO4ulfizZvuwrriMZ9m3pOdCEKd8cY0l8tlQduH3frLkVluzDfjzrCs4qbENNyp47jWGHXVP03Qs9jhTroA06LIdfEslaka9sV6PHvaVbLDBgrqVn/yPeKLBJWrUmwaL6cBfg7dvu+mxGydOIpLKhSPLaL8SeaGOzFpjSv3gWPV8dhsOjvnKISjxcuVpDURIAJEgAgQASJABIgAESACRODEEOi1JzmyT7KBa/5BbqYsijlPyiyHPe0GEGUgSEueRPEZDLKs9ofkrjCx2BaHffJDBfrKUWnqwvnRmgy3z9dxCwfbOvwXbK6sCzZ/zMDb6vCbRzNt9MGzjVxzgVzfnje1lgQdY7aUStXpS5kPLAW4HKxVSJx3KlixTI7jGq2c9zOffuTZzUGWpmDGGCdjMYw3qJhZB02bQ7Z1dd/JLDTcvrdt0ARcYCVxCaoU8IbbxjSZdWOSWUqm+AJAX/2WQRFtpHDpZUapjEzVuC/XUHSzgTO0wPkI9buGQdfUZfdqODxH2aNEIR1ZPqtekchs5TW8IfVYdQwK+uvE/FHZuFd2fs776rcgHyitiQARIAJEgAgQASJABIgAESACvSPQS5HcsU9yZBPlpnIjS2mVxBJjkYI0sorodR4VE7y7zJ32pxoYUKoIPqL3VdF3TWw5bs+KLNWMDYdAiK9j7CGxfBCKcrPq3jS19gu60aIdnpldzJArHZObmVSsMB5eFnBsz6ZoZQaF5KwSz5j/1fjZaKZyHzExXTDEyYV2wrYlo+2+Oc7baNO5Vx1y6KfXs4xrofl1Ejb3jmdNn4MPv13atg154C62N8Ac5TZF8xr55UBbmrZQV+XLqbpKE94XhY2Ca4lyzgsf7u/fglx/WhMBIkAEiAARIAJEgAgQASJABLoi0EuRHN2kX8i+NbLPLTbTTeG2r9Tpjs6DXtLhhn1vZ0MzY7F/MjYl5qr+wpRHp+1NjDxqdZJ535M2xvZCa+VWq8L+WZuolJtjS97u7pSh5jxgR8+YrmxVvrbjKNEcCwbHXIcjZXdWZjCYch0KZPllQESfafE8hG1j8+uAyxI5mBfWTc01fWVi+rsd7qGXH+Y5Y7ipdRejiksDd3VvCqvOy48dKnq7Va4D2ExbrQsdfyd1DOePwgaPIdo5N8DvoLPfQkcGaIMWIkAEiAARIAJEgAgQASJABIhAfxHopUjWm+v4SYtcoSmgxNGi+R334aBV5Q79DdinNkt/6FqHe9KLh/i06QfM1Q+OY+zVyIMIBidet4t3XZmmqn7WyLRjZM9zZJoa18RFgtp5CY7o3InGjkzaZbjann6PQ8UqBLX7iJE5w6NBS02tu/LGQnNl94xl9eIsw1CEfs/H49iRVxNZbHmNJ+eyAjX3zwwmbMBm07Ue4+Upui23yPXsrMzYUC0dfPJ0n5qb4OKz78EXChBdJe06sl60Df2bD+i5pQkBfUWdJ3au0bDqfuxDzXElu6Um1/rpwAvmPa7+KnpT61BhPVq1Lz8rKHxd60m5G8+NXFYw2D5NZB2zWWhfVDaTz+zsnCt0p19X4PPM6uq30KPDoMREgAgQASJABIgAESACRIAIEIFeEuilSIb+t+6488HDGFoMdoNZ97LRP/r3ohcZ+iHHKFoKTPqmfx6yx0532LNvdpjrVsippbXTztxp5xWxVHH6JQbNoDP1hfeh6NMFYZAq7NfMx+XU8iwm1cwebZ+3u1uhvq4qd7VRratw+mNH1fJx59e6jReMiXE9cNjDzTqmNxYHtoLRuMQS/eZ9Cm3FoWxz7C+ZJ+XfNfaRd+9h7G5xHwzkJSWKXuY4c8nFWapJGw65U8/b7E7dhsecpNdvqHazDLShUFSD7ZQ/Ou2xL+CcxiiEcYCwEaFRt7HJdVKIKTtmU2vM3LNFKj90bFD+LsbEc2PU738jP9QMvqs6wr7yrtl0fs41bJQt2m+hZ0dAqYkAESACRIAIEAEiQASIABEgAsdHADsTCwsXLozsVHx8FnuYWxCM2W53XUNnzWpxH8c5S3poMpy82Xvesj0ez4WZ5rUX4QjZOMpzlWvG54dg2qREvbChxm2YJTd9DmfqQQDt+Zk+Q8M1b5ezdVVmZD0E5jZ3NQ9wNC44grTYNF1VcWACt31mZ9zkuhzPurNj62gvWh0xXVf5o+WLFt+xXNomAkSACBABIkAEiAARIAJEgAj0B4EFCxYIvfYk91WFUASD0OvU3PEI5DaDenO9e9I/XGqhkmN6Uw30F4ZBs/YxPi71eL2x6NnVMG9jW1lyqLMyG7aIUzXBsWI+jik6ySfnh+G1onCRp3KSmz+35ejbUPRjaysnWh0xRVf5o+WLFt9WIoWIABEgAkSACBABIkAEiAARIAL9S+Cki+T+PDyLZt0dY9Sj98Pcw3NdfiaORI0DaiV79v9FoRt5dryuRbCCh7kv69BVmcfr9UXvrIt3W0wqz6auR7XuyyMiW0SACBABIkAEiAARIAJEgAgQgVOHwElvbn3qoKYjJQJEgAgQASJABIgAESACRIAIEIGBTACbW0ebYHcg15vqRgSIABEgAkSACBABIkAEiAARIAJEoF8IkEjuF6xklAgQASJABIgAESACRIAIEAEiQAQGIwESyYPxrFGdiQARIAJEgAgQASJABIgAESACRKBfCJBI7hesZJQIEAEiQASIABEgAkSACBABIkAEBiMBEsmD8axRnYkAESACRIAIEAEiQASIABEgAkSgXwiQSO4XrGSUCBABIkAEiAARIAJEgAgQASJABAYjARLJg/GsUZ2JABEgAkSACBABIkAEiAARIAJEoF8IkEjuF6xklAgQASJABIgAESACRIAIEAEiQAQGIwESyYPxrFGdiQARIAJEgAgQASJABIgAESACRKBfCJBI7hesZJQIEAEiQASIABEgAkSACBABIkAEBiMBEsmD8axRnYkAESACRIAIEAEiQASIABEgAkSgXwiQSO4XrGSUCBABIkAEiAARIAJEgAgQASJABAYjAdVgrPRArvOGurEOh0cwdreOZr3CNS1+V9T0extTXj3ijL21u/YUCo4NM1fclhHT/Gp381A6IkAEiMCJIDDet36eQgjqO5ZVxqWtrNdkrO8YT9tEgAgQASJABIgAETgZBEgk9zF1L8+M7y6ayUxGDeM4rt1HEIRQadLa4fKz6+d/beiqCm6/avi1s4azX1wwTEoGNqTcsBYD8CX9h/0C+/u7u4WS4sbpjJFI7oor7SMCRODEEsgIlsyZ7l77FIPLYseSsxVD5uzJL5lUWLgw2HEfbRMBIkAEiAARIAJE4EQToObWfUzczwvMbNKK4lihUDD8oFiOFMgobnHbqFMxP3+MZ0KVIc0ao8EMYh5JIncukFEsx1t1nJdXpfXxYZE5IkAEiMBxEZjqWju/M4GMRuODteNde66fs2DBgqME9HEVSpmJABEgAkSACBABItALAiSSewEtWhaXT5ln0KtEUaxUKsPiWBLIIZErKWTUvKBpBWYAoYz5otnkFEqtWqlA/QuLJI5Fe6JolmxECmitimNBgemi2aN4IkAEiMCJJoBeZFugZkJX5U5xrZ//wQdHe5m7ykP7iAARIAJEgAgQASLQHwRIJPchVTevilEpFQJ6j1HIdiWOZcGrUikY5otWjaCgtFjN6jZ7UcSxLJQtJvA6q/RDo9mjeCJABIjAiSbQlRdZrgt5k2UStCYCRIAIEAEiQARONgESyX14Bhy8PtcKfZElcYyGJc8vrkP/w3GygLYa1QLmi1YNyKlSg5CWRLBoUbQh2ZP8y+I+NAACGtNyChUoZVqIABEgAv1HAK5h1u5YH+YruuZYXmTZDnqTn356XrdawnS3fNk2rYkAESACRIAIEAEi0F0CNHBXd0l1J51CYdKgoO1CHOM+XGQhLQpgyCdGdvLl45luiFUv5xKzYzNtcUGvMgbkNQQTrFoWCCpt4n76IgJEgAj0A4FzXV8uyeF333RINfzTEsWI5fs0oz+BFjRNkUWhOM7zb7lvSKDqtO42okZv8nX1rx45qMx9f6su/zmnIrEw0qZRaMjN9xXcnuk/eJlWcMd+ZrrmvHoucXtkGgoTASJABIgAESACROB4CZBIPl6CEfmdPt3Y4ZkmThTAoF5Dchg1LCyhLWlDygVRKQlG7uAB3dgIM50EIaEohCUbYVEcIY7luLCA7sQKRREBIkAEjpeALJDBDpfFF8/JYsVzzvd9uQQE83IUzLGsYWSuf8+NBsGZ3JuytILXOpovuGO0o+COWmXyhl3K8S+buZaMkXzR1dZA46hIm7Md739LQjmSCIWJABEgAkSACBCBviBAIrkvKHaw0aaDI5pbQxrZe4x6ubti1u0NcPHgHRbTdyKKxaLD8QJDr7M3QAN3dTgltEkEiEAfEIgUyB3NyYK5Y/zxbIMXevr58IlmAwU1CeVodCieCBABIkAEiAAR6C0B6pPcW3Kd5MM5jdOGGGEPimPp0y4sOoRR7oY8w5AmNcHAMF8n5tCGVakIzYgiC+GQXdGnHA632cPW3kEY3poWIkAEiEBfEuhKIPdlOT21JQvleKHr0bN7apfSEwEiQASIABEgAqcuARLJfXnuFRoj9jGWPMYRQlnUsO3FsSRjYaAtmCpKUKoNnVWj0a0ba9S3jWwtCm9M2Ik4FssEoxYYCdvnD9Jco50BpTgiQAR6RcAotGbm8rtvhMwD8tqCQnmS+8cF8+fTPMu9OsGUiQgQASJABIgAEWhHgERyOxzHt8GptEmxZmgaHRKxojUUyOg5xgXjpUA4jdWsYZxSlyJGd/xS4JRSmDSULyyOMaFoWLItmw/FofcZ8nRr5NmORdI2ESACRKAjAScXU1qtSN7YMX4gbZdoRiznBqSEH0iUqC5EgAgQASJABIhAdwhQn+TuUOpmGoFxWrVSbh4dTRyjMVngMpiyCdNznU7Z5OC1I6047zEuslAO55VsiLtCcXKJBr1KQC+0zeBdK+alr1OegNFoHA+jD4svThISEs6JBGKJS7wscnuILSY/cvt4wk2trkN+P98q23Dam3/k/d5aedvhcOxwu93NuO3z+TZ4vV6PvI/WA4vAIc2w5YkesX/wgJOiAab0lCmzly9cuDD0ynBgsaPaEAEiQASIABEgAoOLAInkPjxfQUFhsoY8yaLZCGELQVjaxLFUrMBQBGM+abv9t9+nSoyxSc2t2/JGF8eykDZolMwTVKUy5m1vkLZ+sgTMZvM58MnU6XSZGo0hS28y5ysUSm18rFGcg7uuhW/x+KVfYXGNsl0rgx92ttcVpXV8n3FKjtVmaVXasL3kWFO+Th3eZGmJwZZ4jVSvlDiVCVpBqFod3iMer7eO5wONztb6NdAqwlNfX78BRHQRiOjqttwUOpEEDqjHvH+aZ+2T8GsZcCL5kHLE8nkLFjctWrTwRCKhsogAESACRIAIEIGfKAESyX14YoNBTm3QK0WvL5qVpAc0lRYD8CX9l/aIYYFheszXWTV8TJVgNqix7TRkDWcWk7ZtiyGxTEghrg06JeM9Wph+xdmZWYobxATQI2yxWMajGEYPsEGvSzUZNPHl9f7mJienqnAoTPZWgdWXMJgvm7HyhrDgtbRpG9hxgpaqJvFXGS6ttK79NuyIqFdATBdvVqaYdMYUvYZjSVbLuWqlwGeMzHLYTAqNVqPQNDTZ97gd9gKv11kYEs/kgQ4T7r+A3OQ6MQjzHg+w5aB62PIzuC1sIWnkAXZmqDpEgAgQASJABAYnARLJfXjeeIEpTOAmk2QAiFdJtXYqjsViIYFRp2L+oADK+ujFH1TYzAZVO4HclThGC1ikyaDi7K2qxKMtUsxgI4AeYmwebbYOuTDBFjO50R5wVjUzJYph9AA3u+DjRCHMhbzDJ04A9xfLejtj9Xb8JQussFIsBa5TeHwCUykCLM1mzI+PMebHGZkontED3dTiKra3NHzX3NTwVUtLC4pm8jj3wwkaiE2usam122yhptb9cL7JJBEgAkSACBCBU5UAieQ+PPM8H1SgFxcH2pKVsaiTUbqK/6UtsUjRO8wYNo0OBDofjZoPKGLNejhFcl4x+9GeY7Qn7ZLsm/RqoQG80GI59DWoCGi12iQQxZclJA39DfYNRg8xNo8uLxRYaW2A8UH0vOIy+MWwdBw9+4bjZ+iNLq0T84XEc4ANtely02xpucMTU67LGcWpeZ5vrj5SvrS2tvptp9NZ1LNSKHU0AgbBPeBevsEVVMd7VEnQCLwkWr0pnggQASJABIgAESACPSFAIrkntI6R1g9P8CiSQy5kSbhKChe+JQErNZ0GQ7JIBhHsBxd0ZwunMqRZTG19kiOFcPSwwOJi1Nx+XpXWmU2KG5gE0GOcnjXigbjYuHMKjwjc/3ZyeqlvMHpQT01B3JMzVd4gQNNyga3fjy8RBAZNtg156Vnz8sdn3hPwe49UlhX/pamp6V0aGKwnVNunhRc4ulx776eBQo8v9h0+qBy23KkyV8nW0wJl54zki662BhpHyXE9Xed4dt9751Mv/B76JHd+Me2pQUpPBIgAESACRIAInNIESCT30el3+ZR5Bmg6HdLEYBWe1cT/oWe2kCiWxbFYrCyUIZ+YXxPY2a46CqVODXNAoSHRSoQNTCfHSWGxMDFWC3M1BwWmw3haBjYB6GOcOzxn3FI/Z8hdX6yw7voh9HuRzu7ArvwArh022f52j6D6dg+LAS9zzLThY56fMCzwVMmBvTfX1tZ+OYCrPmCrlu3cfKNG8Mb2poK1yuQNKw2zbnFyiYUd89eqhq7epj3jsRG+vTfO8H3zD22w52UM4/dd8/Li2x8C266O9mmbCBABIkAEiAARIAI9JUDzJPeUWJT0bh7mNAZxKvUZhm9R0KJwDYXltZxfFryQQ6nkBMwv75LX0FXZYjFCn2Q5L6xlkS026RZtSPYjy7GYQKyDF1q2Q+uBSSAubsilw0dPXv1VoWn6K99y1l1lskAemPUdrLVCD/OHG5npte+VidaUce+mZ+Y8u2DBggE3QvNA5zvGveMOqGOPuHk5bfMGzYyHxv7lwOmdCeTIYz6gGf3GO8Zfjy5TZuFLjB79MRgEZ5LZ2XQNnddIohQmAkSACBABIkAEekuAPMm9Jdchn4PX51oMKtCuQttDpCyE5TXmCYdR8OJ/mAYKBudy+PS5NtZ+XmNIqlTBPMqiIMasofy4wgXzhiLRrBzDVEp498EpyZOMSAboAh7k6SlZY15bukYZ7/aJJ+8E1zSeLXgmh4WHKd61j130ej3U4ej4i193s5vnjWdXD+lQxdpydufisoiOoEZ2S8d0YPdisAtD1B21b/1/1rGF2zrY7MfNZhjsfen3zHJRXspNS9/4j/PmG69/hObV7R5w9PLGCzXju5e6LdVa/Xl/uO7xZa93l7OXM1Svirv+8ksbXllnC9ZMbLN07FC+Z+u9Tz82bwVMfBduyn3sXJSCCBABIkAEiAARIAJHEyCRfDST3sUoFCaNOjRItSyE5TVaDIclYdsmcBlTYz7+6LmSvQGmG2KV5piVNLAkptryQkjaIWtlLIjZLOLcy3G9OxDKdSIIZI8Y8+T3+1QgkE9mf+MG9tf7i9iqkIBdMLE+JFrbx8+fCGJ28Tq2BMBkXzyBPcT2s19/GW16MRf74G/b2RJRpkjC+MubGAhlN+SO2Dcxl305K50N21bGDp4I4BFlfLNbYZl3WdYfnn766T9DH2WsGC1RCGQES+ZMca9dEB+omRAlSdTocmXmymsXLXv9gKpn/YSx3/h3xgtvndv6zjolxxuiFtBhR3ywdvwN9hdL9qrzX9qiPW2xV2EgsdyBEW0SASJABIgAESAC3SNAza27x+mYqZw+3dikeAOHXt/wB3PJ2yhj24Ulkyh4k2x6DvN3VghqYNGTjHnxH6zDdsJxoXIi9ndmi+IGDoEYs3HcwKmNk63e6WJDE40dqhQtvkOyqJtOtmTxPrZ+3FB2M8zafdRS44rwQh+1t18jFJw4N3lSvxYyiI2jOL7S+ea2ix0ffdIbgYyDdK0znHdLbwfSqucSd2zVT/0LIBRfA3YXJY50Pc6/7b4bHC+WnOFe9aw26Orsl9ddc5SOCBABIkAEiAAROEUJkEjuoxMfYAoDDpglCmTZpihicQOFLf6X1nJYFrxy8o5rjzfAxcdoxHxyWtG++NgoWgs9QsphcQeLB08yZJVc0B2N0vaAIXDuGAXTa9pa55+8ihnZOXkGVl7T0TscLb4nNa1na3cZ2FBRqhjY1f93BlvxDHyut7ENO7EZ9olfLshXMrWSCzX7OPHlD/QST/d++3cQxx/3RhzLx1asHvX+vQuePy5Pbpl6+HKw16ufSKRYtgoNKXK9aE0EiAARIAJEgAgQge4QOGkieW9zxsri1vT3ulPJztJsqB9d3+DSzuhs37HiGjzGSzA/CE6YXqdvFp9fkRJvCelSFMchL2+k17ejOEZpi+mSbTrm9quGR9YE66ZUQH9kKRPswrSYQswlhUNloI3IckAAsGBQOGnnNvI4KBydwPr9AXbb+Uo2KvVknSobewAF6zPj2ek7d0T0D44WH/1YurcHm1uvYxfdj599jF0/gd1yAv18ybEcu+EsJbO7BWZ38Y7u1fnUS6UVvMd9XSzRDlvOHef7H/QmBwSV53jOAIplFeNpfIbjgUh5iQARIAJEgAicggROWp9kV9AwxsV0qcWtjA2PKftFT9k73JytxjjuO+bada7N0H7Aq2PZcvDakYzT2HY5xpeNM+1I5ziu+Vh5jrVfUKoM6vAgWyhaJTmLa1wixa60jZFiLHq1GFNo2rV1bXTrxhpgDmVJ/IYtoCHMGFpJxkWRjNGwYDgGRsT2+U9mX1epLvTdNYFDdQI7UB1gl05WsHPHqGCO3wDDEa5huu0TtMh9jzsWFy2+Y7rubMezGeNcrHxlx7ToYc5hM1AkH5e/saPdo7eHJ3FsQqaCJcRw7KudAVZcLbDp7V5JHZ2HYo6PgJdpq7s7WFdXJTWohuxICBw5/Tj1dldF0D4iQASIABEgAkSACBxF4GS5sKAiHLvmvHSWkJJ5dW89yk/eNUNVw+V91xuPcmKsTrjjinFmFMrotT2KTA8jFEp9ssWsEUUtKtg2URwZlsQtCln5gyJYzKfUtvepKWBKKbH1NubB9FAhzCdZlsoRoyShjNVFm+Ia0ohe6D44LtEgffULATi/zOER2DtrA+zjzQGWOUTBHpyjYldNV7Jx6RzD/YN9Of8mGEF7VzlbepQQDonno+L75oiH2jh2yQQl+8PPVOz0kQpWdCTIXviKFwVy35RAVroi4GGqlq72d3dfK4s5DAK57SLX3YyUjggQASJABIgAESACx0HgpHmSsc4cp2D3/2I09/cPuKuLj4BH2dQzj/KQWB178s7TVA+9IPTKozw5J4Gxy8eaX/ovO26PssA4k1ELcxrj81zoka4tLIZEYSvuCotZgABhNYohjoHCblvQ2201qSVTUqZQWDIuC2LMIYcjy9PrlAJ6o3vqZW+rAYX6mwAKuXq7dD6rmgT28aYA+wx+C6PSOJabomBzp3IM40vB41zRwMT1yZkuqickpH7HV8tZIqaAYqz9vopvdrBFfSSSkWVmAseyhsAaPshtd7nAlqwOMJz6KXIx6ThmMihNkXEU7lsCOsYngsW9x2vVILiS4C/keFtuH281KD8RIAJEgAgQASJwihE4aSIZvQPQzJkplEr2wHXjuL+90xuhLLCEWD17AoTywy+wHgtlFJUTQSjfPnes+eWPj08oB4MKrV4LYwHBE12kWBUlkOgBhl9WSBzjb0yOx7AFxDDkb/fQ7vepEk3WUHNrMYOYIyyIpahQnFQoRMlpQI5oFMwTVKUy5sWktAxAAueOUYJIDrDyBum8YRWxqTU2ud5VFhBrLIu/CVkciGaFKPiqmgVYC2I+J5xeFIQ9X2C6p/txXuSOS7R4KV3Jl9vZrztmCW/jaNbSVFHhqHCgq33hRMcMoMCNNzOG/YtjjRxLgjYgaSCQ5ZcJP+4Pgmc+epN1HCjtcuAYCAgS4GOWSAl6QyDBVz3+9qeWrF60sGfTP0WWpdVqdTZ7TT41tY6kQuGBRGDBggXcBx98wC1btqzTn+lVV10lyPswXFhYKHamwXzz5s1Ls9vtGS6Xc6Tb7UmF2ejiAoGAnuOUglLJuTUaTYNeb6wwGAwHzGZzKazBlSAto0aNUkTa7SyMKceOHTtor3Pw8j8LGGQEg0G/SqXyAoOhEFYmJib+V+YYwkErIkAEiEC/EDhpIhmPRqFQwEcJbgKO/fGG8dxf3uKuPljJ2LBuepRFDyrogwSrnv35t9NVj/y7Z0JZ0qwCm5QTz24DofzKx6wc+igP7U0f5aDAqQ16aXRr6Ux17T3GNLKYNujgoT0oTkkjZYVvH1MlmAxqcUopMW2EwI7clm2I1kStJAkmAwh23odNuDu40cIlUOBkE1i2IcAuGq9glY2MrYFnJ2x63XFBAR0polEcJlkYs4JAxGbEKBpRKFZDr3rML6fFbfQ6N7tQUHe0OnC3sYk5il5c8AWBCt474bHGQo99jPfAMdXbpeNtghcFeyvQyx5dFEce6WnAa8owBft0S4Alxgg0P3IknIjwAVXuB8l8xTkxweasiOgeBdMDZRfCBe5ZtqhH2dolTnQXna0NemOhlU2vl33qsW/YdeYqelfYa4SUsQsC2O++qqpKmZyczA0bNky8gB88eDAchn3cjBkzWHNzMw/CDl6GB22HD5deesEFs2Z//fXKs/w+vw3Niz/x8Jd0H8BbPjahwOccjVZbbbMlrE1JSfkYROJnYMsOAphZrVaVXAbaiQxjPSBq0IlkON6J8Gx4plqtrgdeR/x+f80jjzxyEOa196alpNxWUlLyLRwX3DVpIQJEgAj0L4GTKJJBisLozQr4YLNrmLeU/emmSdxTb4JQLu+eUJZFLq4TrDr2+G+mqR59sQdCGTKGbkds0kgbEy4bY3r1k94JZX9QUBq1ajhb3RfHsrCFuaMYD92II0+1P6iwmfRSlPgyILRTDkcTxzITA+R1OVTY5JGWAUrADqL2lVUBhuLtdhjlGgfy2nAg2KVnGD2mVU14QNIvVz40FM9GrSQsMQ49zzo1x6wG+IDARA81ikl5OVTbFsa4jttyuhroWdrTJt4obpXYhaDDgnXU4Z9IaInc7qyeKPh5eMQrrQ2y7SD0uyuGZfu4xpcIEzI5YMxB82vGlnwX6PRlRGSeUz1cocpa8Y7ptuwRvr03TvKvn2cNNI7qKZOhgdILlzx240ULFi5Y0ZsBvNCLPK3hhydBPYjSoaflozjerp26sFlhO0QCuaf0KH13CaBHGD3EKITlRRbLuL127VoBvbkul8tcUVHxq0PFxXfanY7R8NzDgQAE0YxCWHpmEEQfsyyMJWsoklFC+7y+pJrqI1ceqay40mqxbBs2Yvj/S0pKwdlB3Lt371ZC+Uf9nWA9QJxLhgbBNzAy6nS6O9UKxaVqrRaGVeF2wh1gFWNq52OPPebyeDw1/kDgEHiUZ2ZnZ39I3uRBcFKpikRgkBM4iSIZbwYokpWiQObAq4zbj9w8hXvidcXVB8sU4FEuPcao13BzEZ/1pQd+FMqL7piqmv8SCGVP4RybzvlFV+dHFprSLYqBUI5jbM5o06vLe970GkaT5iwm6JMsC2+pYpKUCYehnmFt0lZ3bKbNgys5sq58QBFr0inDzau7K45lG0a9CobsViXI27QeeASw6S82m14PTYQ3FwfFwbrmTlGKQrLoiMD2VwVBIHbPSyo3ucaRmztbIj20uB/77kYu543tRNVCgiRre2EbmSdaGMVtIPTAF5lG9m7LcdsPCWEB3pceb7mJem6q5IHeXirAoF3tPfXwkNrupZRcJ1q3ETigGf0GfjKCJXOmuNcu6Om8yec5Vyx5+rF7J0GPgHAz0TbrXYfG2L+dZwvWTOg61dF724njo3dTDBE4YQTuvffeAIhUoaGhYUZBwY4nGhsbzoT7P7QOC0J3D3gUENBBIF2vo4exupgG7gO89MzUam+duG3rtiVDEo9clZOT8wg0td4OQp0DL7J4EY/0ZJ+wgz3OgoRgcBhTqebxHLMrOe4reIGQEhCEldDM2mY2q85SKbQqlUYlmEym00EkO2H/R8dZJGUnAkSACByTwEkTyfiIrgAPshL6JKM4jvw8cvNk7s9LBRDK6FGOLpTDwjEkQvFegkJ54e1TVQteYp95HIXXpZqc70elAOllgYxqG29FE0Eo//rSUeZXP+2ZRxnmJYamoTCvsVwXsIX20K64wi0pIhQVKhniDFoF3ACldGJi/FIZ0mTR3TG/uB2ydXRYshNnVrESXpWG+2kZmARyU6S+tFg79PSimNteyoueX5w7GZtTXwcOAhTA2CQbvb04iFdPPbuyfcwrL5FhjPtuj7xn8K1lURw5aBce34odwXDz88ijEr3uOqU+Mo7C0QkcVmQvLzVkfX9H67OVCo43RE/Zfo9BcCad417zwurYC6/1eg3dbt4+hC8/Z5J707yeepF3qSc+d/5Ta37/3aKL237o7atEW0SgTwlgKwnw5LJIYYphm83mX7RoESsu3v/bvbt3/9nP83HBACjksCjGakg/U+kRIfInGxluE9LoUcY8MJ6C+LxUV1tzcWtzU95NN/3qQdjxHjbpxubXkZ5sLGUwLAmlhyeYqhsubBia+pDPZvmfL8F2L9wUbYpg8P2mplaLSqezJRoSLoUWJvjin6usrDx3/vz5q4BxJKzBcKhURyJABAYRgZMmkpGRLIyxbzKGcZFFpiiUlzBoeh2M2kdZTov3mkixm2DVsr/ee5rioX8r3ql07GHRhLKYJySOUbnKV9sJIJRvvXSU6bVuCmWXT5kHo0lj5aVjkA4kFBYrh0d2lDgO1xryoTcZ7Rg0gZ1iRk6pU4XarEr1FI2GbYhbYnGhMkNli3nhSwuuQ9DtOnmb1gOPAM7fa/dwbMtB6RzKNcQ+xOhdXr9fikERiP1x5cG7PD4m9jVG0Yye6CZI31H0yrZ+SmscsAv7JyOPeLPUjBzD6LnG4z/WoF3IAtPPylPAPOICUKSluwTg+txcqB3zxhhfwW8gT/tmCF0YyeKL58Q2NG5bbZh5S7UiY30XSRk2sc5v/Xr+RO/GP/ZUIKPdPdrcl9ctOr/9H1NXBdI+InCcBELNrdtZQYGM8ZdffvnCA/uLHoadoPXweUe+V7cJ3/YeZMkMPgrJt/PO8kh/fgI01Q4wj9ebun3b9qVeaI49d+4Vz4KFoOxRblepAb5hT0pcG19es2z86o1/cNpiLlCoNbnMas5oMWpT7Eb9ZkVm9sSgzyfs3bv3xpTMzNkpQ4f+csWKFWvgsOg6PsDPLVWPCAxmAidXJIM4Rk8yLmHBGyEmH4Y+yk+8jkK5iz7KcN8Jy1u4s4RuQ8wAovWJ30xRPPxvFkUoo2jFzHIesRLh/BNGxrJbZ+eaXvvs2E2v3TzMaQyCViw7dHcTrUoRoRteqBypglhYu/TohUY7IJJhH9zpBIUlxig3t4a0IVu4r304bBB3hZcYI5xapZ48yWEiAy+AUz6dPlLJbjufsa93QtPqCE9vZG1RBOJHFs3Yxxj78EqeUwWbANs4/RGKa2y2bAefHU4thf15MR8uvelbHFmHExFGAYvvheJjGDNDX2Jsjo6DkmEc7sMBu/ClAB4TznuMxysf37Hqh8zOylWyRLCHA6bddi49XB2LWcf9hdr8l8d4QSR3WyJLFqzBxtzLHB/8uFlz2qLdmokvehWGoyb+wibdpzV+91Rv+j9jKYdUw5ff+9jLhYsWLexYbdomAv1OAL236EF+/vnnefAus8svuwwE8r6QQEbPr1QFFMV478els7AkkKU0nYvl9mIbnhRALHOa3bt2/w1GdhHmzJ37HPaD7qyPsljoAP3yGgzVhVPynoRLvWBsdWbVp8S9Onx30R80cZb8FC8/1bKhYCLw8DVquCxhaIbZPHZUfnEg8BtBp3lr9JgxLdQ/eYCeWKrWoCZQ4xJy/vX0gv2ncouNkyeSoWUyeo87E8d4D5Gl30M3TeSejCKUw3nDQjdCTIIBg07F/vybyYqHXzxaKIv2w/ngdxwOS4WjhB0/Ipbd8vMc85L/dd302hE0To6P0WDhoSE40B7+bbTVJ7QpxYm7xJjw8ccYVILDr8+1Me9aKSdTqsPNt+W0oT24giV8/NJmu281dkJVKMmT3I7KwNrAJtafbg2EvZs4yNSP+wOsqFIaqTpabUUxDGKxo6iWxbMZGhKjp1UHM2/LfY0j+xZ3zNdx0K6O29Hq0Z34yMG5MH3H7ch6oeDFvsz1rQw87Oghl0avxrjuiuHIOuGfAM45PSFTIfJYUxQA3tLfUmQ6CnePQD2XuKNekbgjXuh5X2EsYYpv/Xz81CqTN/CCyiOXahNqx2sFL7y+6P2yR5f/0nRuBwN9QgsROGEEIptbgwc3iNvFxcW3Hyje/zA8UijwHo1iF5ejvcbSPkiCe8Pp2oejeZ3b4rGrFw4Etmv3rqdhwKtymJLqo6uvvlox2IQyZzA0bpmS93h+wf7f6JzO5NqUxC+bhiRsbE22bWEejzazpOzSUdsLf+etbXb69x/y5AjszuE+7y1e4xd1eqt1nz3OurcpKXZnnU63L3bYsCZsfo5kaSECfUUgKAiJ5W5dbhD+4I5lM1Hr2rn4scea8JpwrLQDYf9+j/6CHx1DHoDKqir9hql+gTPk6Vvfyrnv+VuvtzF/X9TRpdVaKloU0yp95ukNvCo3QeXZnalzrr4oP3sDvuhCvvBg4AVuLX3Jba9LP3u/L3aOhvEOl6AaMlLd8pGiNP2TsWMLJa9kFwd38kQyVkq6O2AgFITTI/1vF/enGydwT70BfZQ7epQhv/Tr6yy/WAAzolC+Y5LikZc6CGW5nAgbUtnyDrFWIaE8UvQo55l3pGOzQ7Tc2SLWRqxQW31Cm5A8VNfQMUcKXAyLojbQNleyL8B08RYYrlg+wjZDXYpjuV62GDUIDqU4vYQcR+uBSQAFII66jM2J0bN83hj0BEt9kOV+yN2puSyepbTiD6bTbOh1jly6O4hXZJ7uhrsarAtt9LWHG0V4Koy/l5WgYCOSOXagSmqGHW1As+4eB6WTCBRqR71xpqdmPGy1/xH1ANCQQNX0HiQ/ZlK7wlJ6y5g3VlYMkoeRYx1Qa2vrjUlJSfdBuh4xhkGcxs+ePVsJb/3htRItJ5IAepKhmXUABumatntXwdNw6kAgB8PCt71AbhO4UjzWVH5mkPZJjwkd00nX9M5sYVnwVlyza9fOZ//v/+7aA4N5FcG0VCqo04nEcNxlwVzQrfun5b0xYdXaR5V8wKS3uzJuumrOsiXLV1xoanHnbDlr+qOmltaMVoPhUENK6hod8yQb61pGJx2umJl68PBl8ECrcOjUza2xWw40D4nfWpOS9D08Am6//eWX7cczZ/txHxgZ+EkQKHezpBLefDZcmRUbnbF3u4Nq8Q8sT9/yVqzSdwi6R4h/pMVu06xK3jDddufbB1a1ti7LTWhdDBOhOwYyhJE691cjdYe/wjo+WzuisIlX5/RlfTc7rL8uqLPeNNnY/OJIXcOH4MEL1vg0OT84kv70xQ+e1LGauP+scyXM+7npyC/hRd83IJqjP8T2oGLf2Ics2uK0/vbKmMqZKbH8/udKMw7uclt/cdXIw+fCfPM/HKsVyskVyXCgklgEFtJ/jGkTzOH9jP3xVyCU34Sm1xVto15LBCPSR9iQ7EkpjND0+vHbJyoefVkSyjLf9mWHM2MNpCTiSmD5okd5BHqUyzoTyk6fbmxGqh7d4uG6h7JKx4PWpL8dWIVsSyWEtxPjtFz5Yd3YULS8N2wPIzrmbZ+2s60OhXWWhOIGDAEUxuhZ/nQrE5tPo3hFTzCKWhTS6AGuaIC5MJulpsa9rXhHT3LH7cEyiBd6irGvNjbFRlYYxhcFOFUUNsf+eFP3RgbvLcdTMV9csKlPb5x9wdAQdCQt3jvPCg8uP4m5U91ud+b9998/Hl7I9kgkr1y5kkE/zQAMaERCuS9+WN2wIfdJvu+++wLz5s3T79ix48lAIGhF76589qS7sHTfl8PSqUURLDWfFgQcl6XzMFYDeqaJzwLt+zbjnvZ2eb8vdefOA09cdNFFvwBPsjg3M6YaTAvMdFJTOnHyPyes/Hqptb4p96PX31YOq6qdvGdC3l/uXPLypnfnXnWLKsC0yTNnHGTLlpXUxZpZ8mE2q3GIbZugUAjN8ZY9Sn/AkHSwbG763uLbnCZ95VuXXPGpsqb1PXPJnrLm004jD/Ng+kEMoLpmGLiCDFZfgFUqcMX+Anq2wSt5xuWoW9++akoaCjvxBeW55vrH0Cv6TmPGKz844h/a5oy9bZa58h5V6cb/4pRwA+iQTkhVPmtJfh4uVWq9ovnc8YbmsFfapnEXjWaHl6OA/rw1+QW4aqqDCmhC20cLepDX2m3zZsXUPFCXot4zvNnJa5VCi5dnSTyvsMLLRA7nm+9qOXkiGWiIYhTuGqHLfHRBCAkw1R9vGM89jUIZmqPi0l7kijHiPUO2iAZF27DGPsqLbpugmP8Ke8fdeuRTbJIaSizalhJK5YQyhfOijfzhVnbzz4abl34ugFAuaOdRDjCFQaOSmo5LxyKZDlmDlRQbKXLlsFjDcCask7R4vEEOR6gWbYTyy/u6s463aJgvwFFz6+7AGoBpULjiRxasKARRLOPgXRdbVOII2LgfB+3CfrriIF7QHxlF4k9tkcUw9lWODQ/cxaA5OScKYnyBgIN24QjgvRn5+6fGqz+PJ9tfPAfs99lNrC/qqmQBXXqgZM51jy97vS+baPVF3U6kDb/fz2bNmsU++uijALwhV8ED2yn3MHYieWNZ+HvD0a1xXVJcfF1TY/05cLsGDSzf84/2BqNANhlN+3JGjV6k0WgaYVQvFao2+WEsMhxq1ik+eJeWlPy6qvrIHLTfmTcZnxVAoLOqI5Vzp06eMhumhfovjrA9GJdmm2Ffydicl6Z/vfZli8ORsee0iQvqTLrS5597TmlZu8Eda7cPLd2zx5ba5Lwz51B1bkneiBdhHDO1pa5lYnF29jsghit2XjfHaKusmZS6r+TqYXuKfptetO+OytzhS5tcrtceW7wYGp4Mjmawg/H8UZ3hxRbH1Vwed/iGl2pHbmwOqEd8Zk9/89rR6p0L5t+7f+EpNCp7sc8467DXcE6+yXnm7AiBHPkbmWJqfrVF0KSvtcf/KTL+eMOrXckPweOKyqJwfrbsvj8GToP+WH8aWjahxM6PnJk/cnehYewxW13J1+XjrUvv8sN9JHQrCelI+cYirXFnR8E771d53OK32NWHGmtgp7xXTNguLVZItBJOw6DpNQjlX49XPPivAD7oQXYpn5RWDrcJazm/tF8SyjddMsL8+hfoUW4Tyj6/IgWbN0vpw9bE+olbWE5oOVocQ3mwOylWw/YXq4aH0luVoS4Pcno5f3fX2J8ZX2Z3Nz2lG9gEUAjiJ3JB0RyLg3iBcESPMw7mhf2SHdCfF73SkQN3RTZ77ug5jrR5osPYPFobugrhiwCVUupPjS+xdGpp4C7su43eYeyrjP2Uv90dFI8Pj5OWE0cgjT90kT7oTB6IV5WR3sJr4Dr6+iDVBH1yEp1OJwPRxX7+85+z999/n48UyjAwcOa35dkH4YEBfJKDa8lPrTr/xace/G6gihrwRgTHjBkTd+Dg/ns4TgECVno3gUI29BQC9/i2MLTUZNCs+BCcr/ezsrK6/SKjpaVldFV11aVgFIxJ175Iu3JYCSMdlpSW3nXHHXesTE1NHdBNPLv6JVYPT/+8cbdts7WhefTIrXt+N7To0BU1e0vW6HjeGn+k6jRDU/OIusSELWt/NuVe8D7X5azf+iefUV838pxppYWJMUGAbnDaLAdrcrLf8xm1DamF+28ZtqvwvtiKypn/uv7Gv/INDSuabTaYxv3oBVsIdPZ7c7lcxpSUFG9v+zujXWhxYCkpKbGfih7Fo0n/tGMM0D0zR9f86SZn/O95gdOta7I8P/L5FbPhqE+ZUdl/aE24P1tr/67M7XOxLiaQ/Fl8y5ObndbbFDhXXh8sh33aqbU+3QQNF7AvY9nV8t+z1+v1pGrYTniJ3K1STqpIRjkqiUD5gh9iA6uQVBWFZmivKCZxz4PXj+O+3Rov3ybE+8VR6eGJKWStnQ30KC++awK3p6SlLZ+YMJS+Qz6kKO2WrOWPsLCbLhneTigLCo1RnK5JzgtrMV9oHRkO10ouM7QW51hWqsSfUKNbNxanlOqtQMbycHRrn/+YL0kwKS2DlIDkbcbKt3mccQsHAMP+zSg4UXjigh5oFJ24dOyT3FE09+fAXZEDdWFdULx7/NLfC74EQGGPTaVxhG5oEiPOEY3paDn5BEb4iq4eiAIZyaQEys9evHBeLNTvJ9HkujdnGx7gxWwwlRaDgZvY0qVL2wll3DlhVCKbkJM4UE9ju8M+UN7EftgGA5EM8AUfvg4dOnSBw+4cC9MyiRdZFKxt3mQ8AHQvwzdc6oIgomvramc6nK6iI5XlTjgZsEdsiSZ22QLBB7d+MACJMYy5g8Gg0uV0pUM8NrwO2+osjE296+przx0+YsRpIMq+kR8O0c5gWvRut71sxLBl1WmeISU5GW+n1DSckbttz+2JNQ2TwZfOebM1rXVpyasWLFxYv3DBggRLfdPoaqPxm6rVa0en19VNj2loHqO12zPcZvNhR4J1Z+3Q1JWtiQmb9Y1NucO3FPy5asSIXLde/yKMrA0Pg+0XELI2OKd5iYmJ+xYvXnzk9ttvn6xSqXiPxwOvodlueMnRDC+hFHLzWjl3pLiODMv777333pH79+8/IyEhYRvM9bwf+o0bwaYauljU4dRhcjpa/3QImLkAePSkpiWVPu00754yBUv96RzfsY6kmtfkx6m8ZcdKh+J1hqH+GZ3GBZ0Kj39p8ulHghVOpwg2pza1QHPio21+54h/GC6n6qFq75rZE9JWd/x7xhwnTyTDLQD+wQIrWUzCdlhEirvkLUwjpcU8GDx3UhIEcL+4IxRGc+GYiLCUSdwDQQO4rqaMskl5xeyhPHJeqTDJcjgs2QCjLG+Yhd14cbb5jS9DHmWlNjnGBJ7kUFqp6qJhDIbj5fLRhpRUSoNhFLWcQpciZlDAlFLSjFKSqhEje/6F3miokxWad0UdbKznVqPngIezJLip5EZP8dPaA4O0lII3oHSgHRV6WB2hsYO7M2BVR9HccSCv4zm+7YeEdk2g+3qgruOpG+XtPgGcwzjLfmDANbWWj+BUa3JdVNXEqlucLDc5jiVZpLt/QUEB+93vficjkdc8jLqsGjkSRgOEZcLIRHbrZXmiyJITDNT1F2sPsrXbKgZq9cL1QrG0/se16OEVvfTtBXKkWI4MM5XT6RgOwhn0r+hmDp8TfB5AQY2L9JwgbotCGp8dpPhIW5FhTCvAtHkKVlNTdSU0uf4W0nfbWy0aHyBf9z7/vO/FX91UlOJ0pYDo3V+VmGzO1hY3NZsM5c2x1mJzY+vwM1Z+/85/rrj2H/lrNo20NLWMZkqVkLGv5Jcuk766akTGJw0pZz/mNXhb0nfsvkfF80afzfJGWd7o1viSQ3OGFuz7vcrnsRafNvFv8DKi3YM5iNYhW7ZsWcqWdQAAQABJREFUuQNaCHzw3HPPffbmm2/eYrFYyjIzM79uamrywf4c6P9vMZlMFTzPx+v1egfEmUBM6+G5oAq2AyCI4+DFVRXEmx0ORwqkLS4qKrrIbDbXlpaWztTpdBPLyspsLpcnbvz4af8EUV01WF9oDJCfzICshlnll5q9woswr6Cy/Dy2yQrnuuZUOde8oNSWeE0XzEhwx8Fx13Z13GfGNP4NT2J3vbxdnfAmpsqA6yVnUfkPq1SdNztc3ZoIzbEFwxmm+icfWVv1A4zifZRn8eSJ5NDRhYUlXPtDUhUCcihCTIr7MZMUkFOE04bzYBJII6WUvmXbUrRUjhgOWZHzRuYLh8XMoh0pSjKSB32Ub7go2/zssmBTAN7cxkNza1zCxxMRFkuRywutpbTiN37BnLAKaErKpX7jHCOmGJsN7U2Pcxli1bBVFWObOjODnutx1gNn2gzSlFOdpelp3MiRIy+aO3fu0p7mG6zpV69evXDNmjWPDdb6y/Xu6EnuuC2no/UpTMDTZIUL03G9tOtvejreiXVki/q7oJNof+PBanbZi++wmiYjy05tYSUVJnbD6SPYP35xJnv22WePqtkzzzyzAwZwEgoK9h61jyL6hsDWrVuTwDN8Loww3aGvMNoXb+fiI4nsWYYm2cxisW7Ny8+/G8QUtnw41nMYPrhxxfuL7is5dOg2eMaA7o5tduUysDTpT1Ta11DfeEaMRfJsS/sG1zeORh1fWelUBgNqu85w0eituy51Gw11LqO+ftMZZzygZ27zpK/WvTjj6zWvKOHVgA/eNTQlxO/cdvq0e/7v5ef3LbwY+xx72ZDD5TOHFhbfdGBK3nzbzJmOamhmWZ+dtdxuSTw4csvmhzI27r7Tl277R3VE03SPh6lhhPkCELi2H3/8cQ4I5Cr8VFRUzATvrxlE7jTw/O6CcQBiCwuLLh86NG0dNIfPhDSHoSn2JVartQReoCfiNtiwqtVqvr6+fjR8xisUiq12uz2N9/HGWFvsQaPRXB0bq/N2JR4G15mj2kYSaOL1GfDzRLcgsyr9h//nzh8000JFHkdvw0kqz85Kv+7M1TVDCq6Y97fbd+/e+PmJ6GrQ7Neki9x7W/FQvmNdnI/TfNfZZfF4lOBFGSte5+FL+g+G5LC4QzIMicQteY2x4XBE+lAWuTy01S6fVFg4TjIeSiUlDNcntIkFsbzhFrbkjxPF5CiOZYEcXqPFDvnDttsMifkmjIhhr/xf16OsyXm7u150y4ioSf/8VrHg8Bkny/MyR01IO3pMwOXTjjdovDt6nJEyDCgC/X0eXYIWmsNAyxbOWz2gDryTyng5Q/VnpmvOm+14/1uY0zi2kyQnNWqz5rRFc5/64tmeTvPS7+e4D68FO8rq2DWvvst+c6mbJcc72OINs5mhpoG9t76J7av+lK164HIGI0ie1PNwMgp3BY35ixf+386+FBk9sQniKN/n8SXAAxn8F2/scE9vC6NwVUA/YXxKxoG1cIpVlVrpAI9iFXgTsc9wlycNmuOi0aBKpYEX3vieCudFFp3WYA+bXuOzh0ReLh+bXDud9swYi0XaEeUbW4g0eXA4i95fg/A6FqtjzdhcMkoxvYqeD/13X7/+RltMXWOe2u83luSmf6T1BK2ppRUzmZ7xMRVNeUGV0usHHi3QpBr6l5mw7Rwfq6+Xfwva1tYxwzbvfKQ6O/O/No9rRWRzSq/NsHv/rDPnZaxe/6ivSXeddYz1dRC4ob6iHh00id4FXuFR4O09Iz09fR309wcnctMwmKItBYRtFezfDefGlpSUuA3EcBkIZn1sbOwBEMfJ0By7DmwNO3LkyKQhQ4bsBWG9tqamZgpoJR76NG9AzzOc+2aw8eXz4DHPy0NBT8tPkUBzUJ0OP1HxBXO21vWVI1B3lLfyp3jc8jGlal2bKnn9GQ5BlfhRc8Zyky215lBLywcj1K0r+ZLNK/pLMDcHNBlwOZAulHJlerHu8uLcC3s9yoIXdlGuosAUc8oX+9D1QtyPO6SAnArvCGIKeS0mkfdGpBUTyWVIduR8IauwU0rUPh62pIjQbrm8TmyE8ktVkGyFU3WwIaWR9nZMj9u0dCRgZ+8s3MDYHbPYdaKc6Lh/YG6X+Mb8g/epram6AwsTVI2fDMxaUq2iEUDhdJjPnd/oj5/71Z/PUPTXSJS+gCa3yDn5iwR1xcvJuv2LDQquKlqd+iveKDTkjvIXXdNxkL+goPBc+tSKxZGis55L3HEsoVyjTN4QH6gdj82f+6rOtWDT1oVNFMg/e+rrxyLreqyya3xpN5Z70xfEKJrX/OfPV97cX+e43D/sXrvXek6qvvTxFx//NYy+vajtJnGsSob27zlUz8ZkxbNbl37DrpnVzJQxTWzxjzeyoN3DErK1rKHIyMxDNrHHP0tlD86azI402MX03TTfrWTFH73H8t6sYzf86W72wjQQfUe2sLPv2sCC11/Lvk/fysxP7mM43MpND4X24yNhpZRmE/y4bsT4oVvZuZBn1Ly72AvTwcZxtkto8FnnVPhy5iuZv/Wqqz6YCY30+qxZcYk755m5D6yw1fAHH39h0Z0fd/X7AOGUB811wYssPfuiQA49QMAapbHA0ocOXarRaBsPFh+4C/ot6+pq685eueKLnUqFyg3YQFGH5G9IXcto8NlatBAMKL0+3obNsMET7cvKzv6X389byw6X3ggx8CCIYjn8OCMKZxDK2H+20wXFcUlL4u1HWtPnpetKH52Ub349UkB2milKpN1vu2C3fdiTyZrDfx9uqXkRxLLUOT5K+u5Gw0jW6ozlK6bEV9dO3Zg/6rn0iRNXK9/75O9qr8cybt2Wh02tjkxLQ8Poxvi4gp1nTH5Q6/Bmjtm0dUH+9xvVBWdPu9uj13Oj12+/vzY1dRWMGvN0yaRJWmtTU6qqyZ6scHsSGO/XMr26xWWxHDQ0t+Q0HTlighHVxDEN4AUGtsALAicneIyLQh7/AIT3wWBoW0tKSs8G0TsZ94EI3g3iuLK2tnYcepMhXGI0GkvjYAHhrAHB3AQe6FkQXwSt7VaCOHZCeC94k4eDXSMI+k4HD+sup1M1Hfz9nzUjP3ltb3+3yK0vbHTFH6eB2u2OuRr+xpU2pXdfnKb+gTkGrz8Uf3al3zCt2q8fn6F1rLNw/CFtafKbY8dGv47VuISc4qDt0jKfcboOBqSKV7t2jja4lz//2LwS+Rq112WeXcPrJzAuqHAHleJbsibe++Dc2KaUXZ7YC0s8xgtNXLAuTu3dl2lzvtKb+Zvx+rGnSTW1nDeeU+rTnR2v9h+I4fyHh5vrXnn5scca5JdUyOYcU/W/trpst/ECs+I2iuUtTts9W5jtHq1taMu+JuenI9TNyxWl6Z90deyYF6d0OsKbp5f7DNPTNK4tiSp3wXDmW24weMV5XRqCQsZOR+Kv4NhVLUHVMLxatvDqjHSd5tHv7PH8UG3TZ7PzR25/dXPNnT6mghF7gmq8xpb7DTOyNAzTBEcbm97+12MPH4SZAeC0hfrQYOCkLWGhC7cSsUrwhf/FlRQQvbShSNljK8VBrTG/aCMirZRZPCRR3sIuNCqtpDXmEfOKJuSwZCtsM2QXk0pp2/aLFsUdGMLdonWxlLBtzC9lxuwRYTleyvvT+kZh+xE76zb4LCxkZREHV/bF10fFsepCdiumFT8b2dqI9Ky6gq1KHQ0CuZI9cVuHfZHpehVuq+cT/eDzdQZM4/c7J3y8wzFtex0fd1mvqkiZTigBFMeFrvz/bnfP2I4C+UQUDtPH6ar96fcV2M8rOega8awrKCSfiHLlMs5wr3lysufHBVO97T/TfWufemPB9Zfh4DNyWlzLQtnLafEhUlxQGH+vmXXnv013pXxs/OVpL5t/n/y94cLfNCvjujd8pGwoYg32m/eq8l96z3RL9n/B5psJf4r9Wjf7F8Xq3HcDTAXDuklLTwUyiuMt9tNLit05r3uD+ixJmsjW+mcN5WSWOEctmX3/qpIqPuXmBQvmt2MarVSPj2fz39rIdtQ4WVWLixWUN7MP637Blmy+iQWbPUxwelhjYStTBHg2apiLLd9ewixmDfvvjkr25jf7xHtONNvdi29k//z9/2NnLWtg2ZdfwBZnc+yNdzezYriZrVi2gW0SRrA/XREniTMWzyYDzdfXH5Tus1DASkyTYWOTuips01fM8LvNbB8I6e4uKI4LHNO2FrknfewImLApV7d4dte+nA6u4fnFzvyP5j6wcnsNH3/5gvmdnzcnTFGErSlxwfs8enNlwYoe37S0tA+MRtNtw4YNWwpaGgZnQi+zgvF8wMTzfgv0aY3h/f4YP++PgTizHAYRDPE+Md4PaSWBjPa5QEZG1tIvvvjy1uSklOWwLYSKhxqgbbEqmE4KRHzjw22lJ/3etXVTDpZ6RzznE7Qp0Cv66IQReboT9AvqpDLviGd+qJt6sNyT/gcop5NhcrpjqS2N+8gRvamxeazTYj6UdLji5+7PV/0+Y9+hqzR+3mK3xpQcHpH5WWusZX/hlAlPWWZfsurQ+NxX1l54zrW6FsfQrILC30/8dt3ThlZnVlCvaXR52X2Zq9YuSN688974fcW/jD9cdklMbcNUTa19rM9i3lczIucluKCFryvgPT4IYnhzVlbWt7m5uZ9mZGSshc/6vLy8t1EYZ2dnvp6ZmbkJBvOqx77G0K3h8FlnnfXa8OHDv4OR5ZeB57gGPGRff/rpp0sh/Renn376W9nZ2d+BrQ9h3JZCsLUJukF8CAK6y4EG8frrcgVTKysbRkNYgecPxPkY8HCndbw2t5H7aYdqfCm/2tJ6+oEqX/aiJVXiPKm9PuAiz6SVy7YYvoNntJk4tkCvDXWS0QXjAX3UnPbXgMCZsJn1JeaKq79+el5rsct41l9qcnbW+PV5eUOaF9wcX3r+dGPda9vdsTevT3SvPezSjoO57tv9TeJ5/7o18fG3WnNW6ViwdNyRL6++MKnhPp2C2f9dM2z7Of/3wsPrrVbR6Wljrfuzdc7vi7wxl2xy2e6t4vUTZ8S6Mz9tTv+rTeXetuiMmKtGaVvf2emxXvtBecZOFNU9OXYU+P+qSF65yR33hzxTzdLSf9488/whjfNaBXXyuzU5O6BJ9WyYFg+GjZUWePl/+Nq4w1frFXwtXJ/aXeixj/ZOt+VXH7VmfPhjoufHYpc2r+OxoxV8OfBqXeb3O9zxt45Qtbx36PkbZuapapbs9Vgve82eurkImOIx6PW65qEq55pMtXO1VhHAZxRBq+Rbhqp932NcrJqvgkEthTSNc1MCcxbhfrRv4fxlaWq7mM/M8Y2R186T6knGO4r4T6wmfEn/pXqLYXGHeOcRQ2J6PKTQEt6WMqIt6ZBxJYfFUDsbmFu2J4Uj0oo7wrFywvbp8U4YWiLFcShR6OFESiMllcNt+eT8P7V12Rcb2KopF7A1C2B45R0bGQrQh8fjUdrZ2s0x7MLUveytHaNCcSB+H61g5z9+BXsNPcUomF+tZDN+LQ39VwaDtmRPngU7QhNjo5lOFxS8e1n6gmlsRqf7O4lEAc5Gs7dfGcXSO9ndV1GyWK5UOnaQZ7mvqPatnUjPcd9a7r41aIQpiuVaf9odQ9QVL50Iz3K8UDMe5j2+DJ+rO6vpFNf6+XD9+qTjtEqyUE70lp5TrBm+3KuwHcL8shG4wTQXqvJewk+8r3L66f61TyYHys6V93dWlhzn4ozV69VnPVQQzH4PHiDDD63YlPOgJvf9gyz3fa1Vq0uzF8yBSc70v3xi2RuRb61lOx3XsudYEsYd956Yba+gk8XyfBDLi47lWX72wx0sbXgyu25aOttUUg2iR8vuG/M2e3b1bCZ4fEwA4czxPLw0D7DYGJ6V4hxpsDw6N5/99pX1bEppu7GIenCQKI7fYQ8elDzAq9FzDCfvnmtHsnlPHGRffNTEHvpOYJN+OZldBEJMPq9XzhjJtr59kK28bxi7mCthn64Gz/L1w9ieruox9QLmSgWP8+X/YhszprKCf0xhOVFczA1B8By7cuaDMJ4AByMX24Pj6l1SZzAslgtq9PGL/gWeZdnLgBZB1MYihsgm1pFhqzVuxxVXXCHAGBY2+HsCp7OSWayWjePG5d2HzW7BRJfPYeCNFKBPq3DgwL7flh4qvQOeORTQzDcOywZn5ebqmir4WwCljMZDz6DtvdmM4UO27DkWhTFm7ofFL2hEsVxVl/EAeJb/ejyeZRhoK4XXalp2Tp34xOlf//CCQggqS0aNeGfP+Ol/dSSo3Gd+9vWzldkZX9x4xewPFxUWBrF59vP3zqt2W0yl4zZse9QPbyKODMv81Fpdezr04g7aLaZi55D4zXZbzF54eX8AxGu70aQjVT02AS0uLha9xeBLgqmseQ49wvHxaVuWLHlhB3p/YVCu+nXr1v1dqVQzGA37D+hBhzQu2IdkxT8+DMPIbPGbN2+e2dRkT1OpFLwCWg+ARQ7i1TwfVEOcd9q0af+BFyp1HU8JDLymKCjYeDk02z4dBgW7ua6uLumHH35YAAJ+A+x7DtIfs/UEiunrr7/+vMrKqhlutzMBfn+8xRJTCqL9fy+88MJBqOOgeDBFcVzuyZzvFfTgIYRRiznvkY68erPdwlvPauEnfF2zpXlNojbu8bPGJX7bU+90A1PnfV5Q5ueCepFlkdc0u8AdeyMoRf+smOrfWaYk/nt4oTdw9UPPXPVhc/p/JhmaXqrlfQtneaG3ACwoJK+zlfxqcfWYfcvtacvK/rh42pkG1iIfz4uVScsP+wwzL7eWzb1mUvr/Ck0wv6/X2zLF4H2lmVenf+8csmD64QbL+oypfzqNbdrHmHOfjoFIhGuCk1cmbmuxPXKmrvbWVI3XDsfGhhvYmpTYylnPHc4s+qgl7QNfQck51+aP2nys40aB/PeakRsNykCzng25wKYox7700PXf23LlkMYHnynXn7W8Nf292SP5c0eNyg7bG65xfn1zzL6ztvhS7t7lMV/rDqrh+iU2uZEPkVX69VPfbcneyP74zPQ3n56/U77GokB+uWX0RpOCb84xVs3JMHibYR9LNHD7boytvWFxefr2Za3pKzwFJedem5+92VBYuAaN6hwCvIASmI4Tmre62ZrrbW5oscHhnPaw17upQeWpYa3SQF0xKn/ZZqf2++ttzeJLTCmNVLUuL85Skv77lgQy/Kak/1CQHBZ/Z1LBcJLFLXmNseFwRPpQlp6IY9FUuHDIKRUUKi+8VyxPKjZUiFgFKdyuvFB+TIuLbE8Kt+UVdw7wL+xnhM1Be1JNr2DKTU+JYQf+tZetvQQE6/hp7GHZwI69IJ5Hs9dg/O6ztlSCSE4FEV3BVk4bzdbITamTRrHXfi1nkET12Qvk7dAahfT/Wln2RsiLUdOmsyfZBvZiBYRvq2Aj5l7AXrvEzNBr/cuPpYdGTLPm561t+aalsQsh/wHI8svbWtmTj8ewpY/uFbfRpJgehPraVz9iD20UY9iFd10hCvt2djNsN0zmzaulFG3fvKCKbduSQh3Fcsf9tH3iCbh5y+giZ9Lfm/iEqJ7+ex95/pxmhblf/nidQYv4+ijyyE+kWJ7o/nF+V1IjPlg7/o3HwJu8cMEnHR+kUCjX6xLhFVjXS70mdcNK9ezrbmh96aCS4yOfQzvNuF096S/XPrXs9QNdPLjJghkNLFzY9TgOxxLHfhifpz/PcYBp5Ktb+Hi7K5b/eN1k9sqXe9g/vtjLfjsrBx62Xeyhf57LHrz1I1EM/f3/zWDw9M448CT/45mJLH+shone5/d3sF9MTWe5WTb2RbjU7gXkZtWBsy9mrr8PZzC+Y9sydTJ4k99h896qhyfzkeyhkBc5nGD6MHbTf1awzzZdAOL5IFsKnuYPoVn1nv+EU3QeSJ3Mvv9kMsOy8+duZDyW/fvh4bRuX+yMyx/88m9FdjP+vUTWSEyD19vM3Iqzm3lzn/X18weVoggNVwICsli+/IGVBckRYjkQCGjb3+sxV8QlIxhs56HC5tMwl7EHmvRWQ9NbvEl1+RyGfZIhnQBey2a0HAIgFgAHDLYxRvJe4/42gc4x6EuLnuNbsFl1NHHsEPQ5a/dUna0M9u465+K1o9B/HXHE7HjFMnqFPO9+fHpzbNze+Nr6SQxmxXIbjOVHstL+a+brGnNWH3q4LiVxQ82sc/71/Oq1EzLKKid8Ou2sMaPWrUsJgLt+f97oF1ttlkKnxXKgJcaw54/PP18ZeQ2zIahjLDt27Pg1DMp13ZAhiTuVSpXHbm9JgZcaTddcc80iGJjrfyCSca4u+AQYNLlHEd2pRdgXf+DAgYvq6hpGq1RqT21tdR56/0Gk7wdh7Ic4F/RT/nzJkiXhvtSRhqBZdgp4jkfCAHHcGWecoQWhnAO/nTL4RCbrNAz11MycOfPulSu/ugN+Q3bweld5vT5Taenhc+D3ZP/ggw9KQBhFnrpO7ZzMyI7iuL/qcjxiudxnPDPAlGbxTRVU0MQF6q60ll89e0ImTCvUGGSFjQw9yyuaU/4Kf6mqLI192VWT0gOFheKftHhIKJTNCn91Q0A70uO3PLDe6nvstOZmfofL/CsQyOcaweZHTeav8uCFUCSDPFXt2+uEhAc2u+LuvvbInrfnRwhMTAf2cs7RVj84c1K2EwWyvBhA2A7XOr/a4465fl1rysuqrSVnjY0Q5nK6yPV7jUOfdwTVaRMNTa/p0xsDrK36oJO9nkSVp6DeoxuL9vasNU+F0aJBmEoLitqfGaru+Rmrume3x3hVkdsy5/+z9x2AUVT5/2+2lySb3htJSEhoofdexIJYDtvZz3anp95PPbCRBEXBcrbT/4mKiqencBYUEVHqUUMPJCQhPSG9bLLJ9t35f78zO5tNsgkpQBJ4A5t588r3fd9ndmfmM9/v+77TBu/b4MvntDrjWtI/6kI3LU59d9LmND4S9hb9kHdgKo9noqrpoxKDsoWonCK5PkcoGzfu1fk/e1QX8lrm3oqFrn0Kffdl3+XFuS+Cu9GWv9YDQvwvlE84KDFe6fl8YY8CnWmXunxjqMvnoTRHVmt9/g7G5zvTLvW5BkJ/XEdt6zra8Co4pfM9CW0de4eaqCwmQeXW+lzGIPnTYPK7ocEafGtP1I2zBQaT5NFkz6OHOPdpEg6W2hTeUrv3SBOZdx1c1IOTyCObgETDQnGR5U1kKJBqtxvnah1OPnFXeKiJDAHr855gfs5yycMLySPnXCzJQKTTyoF8fwREHLa9H/9GvqoMJwQI76yPgOxi5nVepOBDQlIc+k0HizK/8VbpvUDgnyNArh0yuLJ2cte89LP/7pahb3qI4X2Uy2YiEM2wkw3J8jnj0BS8UHZShWZfAgRgbWYmryXs8Qar78KuugOXrhVdlfelzE6k3tC+w0M/ykSyjFZlmOlo/Gz1Hc/2Zi5rV7qdz4ostO3MmiyUd2ePQb8yFaM/HGU6+iTUdztelINW5FxN+Ic9mVvcVf9Ndu9Z4PqZApaHIZ3V09s8R1ewF+8cG+xqfNHodsxIls/ph6x4POXdIrD27HJ9iBf0ffDq4USrgyuKTEwenjOCfLq7mpQawIIMlGTpn7Zx1b5/fzoxynTkxcVXQz5DXrhxFPH2lAsiLuC+gWQXCnc2d2J9SGI0IcvA5XoxySXs7EXkKgbmT7ur6iYvv7TWcddsLRSBlU7L+NxssHqOhFz3OBJlZJlxKP5OL9jN1syoojvrD8lyhSF2xfIX3ixasyrl+ML587mHVoAeH1HgHEBLbsMEp5IzB49xNYyamtpZ27ZtPSYWi43QBmznvOqtBBdlOaknC21EFrM5AGRDZGt+7WTsAhiyg4B3bI9wWTUTHq8wxj5vY0TuGRzIaLQFXW/QayagvN5sZiIPxmG7a4tkucwUu8rewCgWjVOtPp+lSpBRsffQsOTsvLvAKlwQXlB0Te7IxI9Mallt/OmcR2uCAo95V9clmcTipqH//ektYjFJfH0DZkkSEyXZrO2tSnXQb09/sKqNhdTVMiT00Y29CINszZo18+8wh7gSyO7Qbdu2vQnW4+cgUNfBtWvXVsDyUI+CHFFrwK+OUsGtOhPI9bNAdhVATG2bN//8LziHzKxZM14A0spZjyF4V4G73z9Kg++IFdqZwfJL0KMA0/CxduypYw4sCzfq0KH0p4YOjd86fvzYNeBGXjR69GgPGEssyGhG19NeYtOxswuccz5yDEsLecfV5s3UEs9uYeFOPfjStv6YHBV6Q5ZjZS2bPYuC1rWfU+tKSnc1BT7fzErxoZRRKKzF7rCXwP0e1cg1qRd755tfmuJHrLt0Qc/j82KIzJDO5EbaSVilQ1N+h+RT3mRrMNolQSdN3k8lPPHun4AoWoRKcsba6I5cY3m0tPl/mQbP26vNylF2lWQWWH83d/YbPWcWj8o1eS2B37rYU2QtVu4NYckIF5YM8iQiEejPEpQ3zz8zBO5rxe6+1yMULRvxc01w3aO5DbLrTxh87ykyqebAOEWNNmkU0ZOrIM7El3n6kmnwgmA29CnyY0yHwytC7MSvbZ+hYt1hQvzsJSbVzJu9tbPhBdtvnY1BwKQn+/59UIeRC+TWSW3hjgHZeIfg923SXAO+DZePf1plOFKtbfGOxZXjHyHNy+DqcllCf3xNvpZLfUc7rrQLGXw5L8O1LqYH4xamKP9XGCn/V090D5FY7iVk9KcELMh7PprEWXPTtgDRvaaJ7AZi++uhb4kg8KoTYGVGqzOQZ0I6vhFtdbV2o0F4OJkejPmeJBIuOSXtq1Q2kbOHsshMhxUYi68CCzYJ9+rEtRqJ8TbeGs3JCiePuCPwHeV6hgadWp0kE23kmjn+nG4eu7OR+Mx2zcO02sXlmiFz4Obo9rmifTN6fBEQUEgZdqQm65EGHdEIQbrcdbPxtevmCgEx3JX3JQ8sX7MzWybuABltvggiYje6ulwDQe5LN27bTtT/7xXuGdxtaWtmV9bk1lrnTx2VTX5tuPHkw11Zk9GKvGz5WgOQ5PML7EYNCMq1e7zX/piurMkacf2vX665+b6LdY5zWpLW1VpD7gV125xjOWMsClMVOlyu93X5oCoQ3n/cOoOcLPmOrP98MkmelU48ffXk8H9mEaO8kSy/aQy5emQUR5KVfYhwHXfzbUR/M+9u7QGPQ1zALYe7dd63h8k6sA5/+xwhf3g1l9z4dixn8XWaAYgvuXqGP1m+/hdyE9xIx9/lA4PGaWHn2WBeshoCf1mjJpGM79u6W9ttFhIizfybUiKxw8vFF7U2nzkgrQ2WakZ3khQZ5rV/QD1Pr10Wn24Z+ztcw+d26EvUDFbkfIfL9SHuvB3Yv1/PK4R/+ScInuA6unDQWP6Ir8ORYiDHEOsLeC+0gWxsA+6MDFjv4d26SxpLoS7UAEMVRMlu7czRAfbJNYKytv2Xn/r2tdGTZ6+rMEQ+U2MOf8QdWQ6TFL0+e4zm094+WAKZuTvPMGwd6ND6VQCN8DoWIDu3NlRRvUbFaMtdjFgOvd3vcD5zWEbmfTo/z1yvBl1MxvjkN26/9/Z/fPbtTzdEntm3Oii/eJo+bkizVSGXVEgkvzbGhp8wzZ3booqJCanLzPyupbIS16B1L7yHuWB9RZfXbLD61sEnHyzCC2Gt41tgHjn30iEnJweXELEB4SyGvASwLgeBZwHXC1iJwaPaLoE5xOfArTlTIAsQJVvHRTiXSM6ATM6lFty1I0HuxMbGFl+NRn0OPAD2gGVa1x11oU8NWJfHgq51oAfKdBIkCCQWDzKYxMSEr8CinOc4x/Ugm5sL7YrTuXPnJldWVo4EQt8YHR29a82aNTWoM8gPBlIdAS8KTkM/ybCkVTCki2C8MlhH+gS8IHCa9uCL6wuu4cNBlyIg/mUwLlguq2ymwaALgRcLpVB/F1occVyASyLKAFkFQN6nwfKh24TvYJNePrrWHny3mVXGoP5Yv/0GLz8jq0zRL7QSgvY1unHMdu7FgWRZSkLvPpp19oSKIbXdkNZllSKzx0yowF0NvqiMLSIPbyQpnTiMV1thvrJHuRKuB94NNlk0tGOUIohEEZ/L/8Db9aRkbI1GIg46Z1ZM9JOEQR/pzhpKEas1ySKhXVtyjRWkIpvz3NVa5aPXVVRsmYLv6N1sBUYNGBQwWjRDNjeFfg6X+883gjGqs81slY6CKQGlUN7plAC0ZierTF8kq3Rf4Fzt75vCvmi2SyLqWPnIupAKUaRVPlHoUy4ijUuXErb9dURGRPAb4i98tVbJRJinvr2zMXSma1f5/UaSHZdyvBvw+sGeSwl7QWvnMZRy//k9FnMt+EZt2zpk8kXc37Z1+SxBAifXIQ12jvqOPdePkMcrwLfjhWOxo0nHdlzhFfYHrbYl17WLRg1W2QJwg94DbtDcxrlMwzzjB8DtGVyzv7ouzBG9GuYofwxzmB/w4uYvd3C17hLLJlKC1wCOPMMeXawdc5udfcL7Jrcb5woO+uE8apg7zc1v7ozAu8jl10luS5DdyXclx+7KaV7/IYBLdSXKTt6E85LLrHFP1FiC7+0vbdqT406eDdyqp2abopfA8kx2RmQ6K0nYcFo29GuTKKjVtwpaBVpLZw+3nr472nr2Brm9+8s4Xd286bvMZ2JO5BgPrc+QjfwajFJtonBH2QuWxJpzlkSB3AzJ2PfcRZo+nzX5QluRXUEKkpV9jh8ky5WW0CearZ5jXMsvZbotOV4JJGtlt7tXSMVk33NLyZotR8mvp1Xk6OEaMjZZTf6+aCZZNCra/ZNkt6W7VvQlf33rMfJXgmT5fTK79Hay6w9a8ha4WY+/cwFZNMmPfD/nLLlh52Hy3tJY8oTzfkpI3OQ4MgHqHWL9yB8mY1CvQlfBHdMYuOsrH3L8u8c6nYuMjd566f92wwP7Ls47QB+zwh1Z7ij8wuWo25DjlSzOiRM2hVJZAY8IgALEz+LILpYIoMAzZbtHTnC1Jr4+vjsmTp5yJ1TEpYC6fA4DoSwQEzvMkX3qbG4OkAJg0I4OQDR0xB86yDNXLJBl1ASXd4pVnX0qRFnyOpLlWmvoveCi3sGdHOteiE3CWLUBsvK1wfKSd6DvTmhA5z2FHjp+DyuTGI2wvFN9fMAxi0pRteXtD98bea5qbE1ifKYuaWhtRWjQTnZorFIrl+cHqNV7Gq3WGI3FMsxi1AWmrAA3zZVpwgnovKPzlOBMBsCUBdLIPeQDWfSsrq4ZGRISfhiWbqp9/PHHJfv3H3hUKpWYJ0yY8CoEK7qloKBgAZ4vdKOG5b4ULS3NgVD29qJFi7KhO87iCVHQwUVbTAwGBefuAed1+sGDB1+A+ckKkGVobNRCXK+oPcnJyX/fuHGjbtasWZ2OBV4oeGzZsiUNImuPBYv1i+PHj2eBtDpHBsQ0H0i79PTpzHuBPGfAB17Ot91gXL779x98Mj+/4FqVSlELHNbn2LET98P2LARROnHHHXdMPH78+IP+/oGny8vLJuEbnJEjR3516lTmHbDc1aolS5Y45/CC5fr6U6dO3zF37pzHYA514k8/bUnR6bRDgJTXNDXpwrKysg9PmzYlBQh0xfTpM/+o1dYPhZcGLaD/CHAn3wFzp82onZfKdHI4ObYAo09XmmNebLT5zAUQ4MfUusFvMkMXJlk4RZvOtWkt6X5qX9M8A/yCFO1b+EuqvghRFq58M+0p8EhY2Sn+7dt1dVxnU8bDdUKEQby0Ep+ENL90J0HtrF2uUbUQft2OV1+d1WrNR9fqMZ4lSshxyob5tsWBsTDK1q+Fs4FKZK0SxJdb1BMYEiKCOc3OctdEpU0F3jwYSZ+Qm73LF906LuT8FtsRXU+HcpUfp2rZc4ckf/FHtQnpVWb5aAkxiSqtCmefrnU7S9dYlSPhRwZjuHBblxfnC9eNG0nwtXPQYki4IchCHt4DhLqOr2q3yDF2CTK4nUMG1yOXJfTnLG2t62jDlXTanm/H13FNOxTErCt0m35dOPnTi4LFOJy88pEnuDs7XK0FTIK9YE4xkuMF5PmXYK6ws74XeeSlBVwAr+1hnbhaCzLa7NGi3ESeAznbuTnJk8grRzBitlAJ5D4aLhx03CeHk5j3t5GZ32ORFxkKFuf7ktvK4Ockt80Dr5PlQ8Psv0aJRAc6Cm1rOXZXTvMGDgJIluNlmfdFs9lpxYbEFdWWoPsulXZ9Iceoo0CQvVjtELzUTTAfWIEfrcg3GwlzjST4eLLp6OOhEDyrt2NCi7K/uTp5snnfK1nS0R+WSqN2xVnPXo/E2JVwY78/P7uAQBCdDksydWVNvtBWZHfjFMhynd1/SZkhJuVSkuW+kOP2Y1l2zTiCn4u/CWQZIlW//R/eiuyYh3zV0slk4q6DZPnGfPLXqS73vbAY8ochENXaHkuuAS8fd4uaff7qP8lnoDwL85q//2EhaZnYGvzrfGNC74DhHsfmtSPL52vW63KBHAvLQLmSY0EozA3NtTuYMD4yCGQVUlDFBRuuATx7QJbZYvVB910gyPVWq0EKNh3ItWAD2CBtgTTk8vmcEMZkMESgPFeJ8MTqaMPnIn/mCTKDazK7VnWS5Rg296UiQ8zj1dbIJy4kWUZyHCgtfS9akf82EMUuozbjyNxtkdl5tweUVs61i0V6sdUi9a2uHyFjbcF6pfLU6Ymj32yJjzPJEmJHnysv/1Kh1crAHfoGIHmR4LYcbrfZzEqJEsBjyUr419cN3JzN5eXVI4HYLcvKyiJA5JJhGS/DjBlTU8DK2rh69Wp1Y2NTJATessO8cSME+/ouIiLiIPSLx5q9e/c9C+e3KTo6ehu4ZtumTGn76K5UGh3njiiHDk340c/P5zR8l7R5eQVX7du3dzkQ5d9hzvB377//fpvziONCEo77zZu3LANr9lKInv0aYHEECDJHxLEMN8DlxOTJk94GMr9cp2uKTEoavX748PgNrlZqIMB3nTqVcdf48RM+jIwM/xWs3z5bt25769ixY089/PDDT8JYVLCE1SSDweQzdmzy/wPifQ7XjN63b/8zubm5t8Bc6l0wNrSa+wFON8pk0hYc944dO99oamocMm3a1FVAzgsrKiomgWFhBY4TXjB8sHv3nrD8/PxrYmOHbp4xY8bLYEm2giWZV9zx10+m3eMn48lylTXyca0l4EYAow1ZbtOgjwftyXFPXmJ21TUGvLLaYXVv2MBSGkSMJcK576rZRS8T2Xn3aLyMmIhYo8jPZUgnE/abbaA3F2yr+6pjwEBYhz1oTcqyku54a4XJbBl+EtMZb7G1sNnW/vXiRYfDbQf9RpLxDR1e7TlLMtw1nFcBZxoLHbcERyHfAMfBZ3B/hfp45xFKnGnI4ys5+LKjHyGPa+Bo52jDCUE5Xchobea+rSDjitxj8C3n/F4HAg8saAdFGHneOde3Y/2SLUJUa6GZS32UnyLkE4iE7ZD9AMxRfsA1v+0xltyR3FpO2shB+Y65yi5VSDuZWDTdJQ8u+Kv37OlIkNWSxoNBiqJ36BrJrmAOjrSMsRUNVZ2+P4o9sxLJMvcImnZxdJfZzdoQWenbwfKc1/k1krt/8xE0akOQhUzH3ttePwxJK+n1e/Z2AuEQ1z8eaTn2BH46lvI5nRFltCZ/pPmburN2p9ImdVZ0QfP9RLWb/NS1m5AsG82KIRfzHKuY5pw45Zn7P1j1wOdokejpQ9eHn20n3/xw0Hk/6g4QCrmUfPnhY2Ct7BTq7ohpU+eqJx8jhiddshzBtvicOKLfJJS1Emsup009PkCXULMve1ey3GDWzF60VNXBDa8v8tXipkMB0pL3P3j5Lz/gwx18OhUXGhp49Pgx/JUxDosU/1zQvgG4wgJ3FDHojtvY2DDmwP692+EYSA1aoBkW1jXmLgC45LJrGh9F0HpHWLsc5uyheRMiZMPaUu22VoIMmsADFhAZsBJ13KAMTHuFK6PZgneRLBORuR7cIttYxzu26jwHpiFqw+X5L0XKi94D2UCOe34dQ+nBBYVLYvcfe9nDaPIVW8yq+pghmfr4SFttdMS5Cg/l+sdTUvauefPNYUEsO5WAnXl5ampeamrqx0Amrw0KCrwfcELrWRuS2LnW5y/BU2IwGH1qaqpG4/MguCInY+AtIIwzgOSdgZccNiTS6DpdUlJiAqJ4DJZ3OoaSMzIy7kAiO3PmjFRwcz4D0ajdfymgLrgg/w9ckH8TNAJSKodz92cI1pUIluQOYALGSEil0Ob+06dP3QMEeQ0sPfX/gPhyxFmQg3sgpyawZP8DXJrPHj167LHt27e9dfZs1h/A4vwGWIB3gvU2Ckj2H+LiYrcD2X8DsOTwA8L/xfHjxx4Ci3E0EF5wj2bsMNdzPXyHvx4yZIgNAoJJTpzI2FxaWjIHlrVCr4Tq4uLikXV19QkzZkxPBTfvUaWlpdNhPnca6LoZcLHBJwMCoV0NWC2ANt+AR4VJKpW1jBkz+o3169cfgxdQnWLEk2XtHnTDPsfGv9BgDbzJdZx9TV8scizoBYEEqjAol84ujcTgVEL++fZxcv1J/Pmfr55QjmsxlxgiDURVKWR1e+8nMue2CG/73LQKkhkyii2qeaCNyGS3aTZuJMz5DMUNBmPQ53UxG+Kf2DoTyLfTuu1GvDML1n9u9BUZcwOjCWstMZ7KhAsffP/aTOVwVm6XgKD3p+BNRDvfnXaVenjYbyQZ9cQLj0BGIdFKfR1fiVZSjN8S4aviqCfUhz0nixfoSLvU5YqFNs6afF9CW8eeFyHI6yijtQtHHZd2XMf0zwVAoJOo1hdA8qUSMUSR/+yl6ov2c3EQEMhyWtrpi9MBSEXrdQzJPdHbh8quCPJFU7qbgjsjyt1sfkmqIVlGR7ueEteeKBehKlmD9XvbxxKwGCcMDelJlwRJso/3hSPIPer8EldGsuyl0O5uZ4DqsxZDFHnPo5CuyLHQiY9PQJ6Xl+YMWOrgNawd5g3zJbxFtw2XtdjtNgjeJHY89zDAmnFOJPBfaCN2hBJvn4Y6YDnEOsiX0EJslQEB41598e7W2J9gQcbnKojuBd16aTyzwDLp0IbXyfWvQJYxz52F3LVuV2l4GfwjwU8vyTHKDswruH7YviNv+DW3DKkODfq9KCluC5M4bEmtQvo+0WgYD6n0NiCM+wGsYBi8LxC3Spwvq1arY4AcJsJzpNVssdTBHFcrjAt+b2ldqdytMiB3sqCg4BMQUXolkMxKWIrL88iRY/ccOHDwGcC1ACyqu2HMiC9/YhxSwX162t69e59LSEj8AYjhVmGebWedAtlWHT16/NGSkuK54FbvD2tnq7AvqN9hLqdjObAWIOF3S6UK3cSJE95DggxkuANBFvoDfAywvvMGqLcfdLkaXKuf2r59+zvwHfozBAKzAqGNam5uDm9oaNyak5MrBfxsEGQsHFzFQ0EGdyFRKORNoaHBRz755BM7flfQYp2QMHRTbm7OTUDqYbmfxI27d++erlSqGiSSgF9qaspvh7EEHjly9HE4V3fBXgxLT1mqqiqT/fz88QWDkmHEdm9vTT60L+mKIAvjwD26YXuRU0uRLDeQ4KtIiKpNhGXXut1JB0gqvwhWFL0muFX39jrdnb5CZcb0XKM0HH/q1/k0eENQK5w77/b3+VtTwEsekUPSwJW8ykdsLoJ5yfEGu8ibyY1nyJSO7tAGVqzBr2EY9GG0g2OLy2a0Md6dWYgb7FJuzjpWD5AaM4LCgRppXRq7JEOJ/hRh/TjZZiINsk6vYDqre6LJ8y4fhT7TQ2JtqIT1oGf4Z06G78j/zvdbQMtzJczHnqTWvnprSIj9p/ISGCzD9WmyE7fE3EzsMHa8ODLEX2JNvzVEZ3cJGu4ygt4l+5UkO1WGuwL/TYG/3H9+j+W9JcdcW05oW4LMZ3F/HTcqXguBrLfpz9HeVRZfG29EvAzhmO4JAXeaEzhPt69YhM6C18G7dpFdfRV0kdsXFRX1o4pqcv+yZHJLIA6yjrz+VDas+3wBtpBI8vHTKvKfCyXvfCpBfx/dTcira0pIgWvdzvJd61zh6QTLqXvAxTp6oMKARPndlIe+Af2yBqqOA12vDz/bQdJe+7ZH9xtvjYrkH33nglqSBzpO/akfWPSaQ0NCfs5t1oHFEQmTQFiRO8EG8ylwB3NbTycNH/4c1I8AIss9QGAN4UnCUZs77iotVyhKAwMDs/ABO+v0aUdzfoePJYK7dXBw2BZwYQULe1sXVtRlIG2hWXm3DT128hWLxis0fdL4h4ojo3+W+anHeHp7N3uy7DZ4rpB7h4XNgaBRjwCG9fDsJQP9vSHa83NSsVgBFsuvgDzWAlEcbbFcUCsSI5fLdCD7rJeXVx1iNmPGvLfOnMm6Ea2hM2fOPArED4iszfkcja7fQKJXAKnOHzYs/h9dkVdCFGidFb388iv/QGs1WFd/Cg4OPgLkXL5r1+4X3Z0jILXAYRlwPRBZrFazymg0A0Ho3gZkuWzcuHEfaTS+Zzdv/vHT3Nyzt8XHD9uI31l/f/8zYEXeDn0r4cOAxRgjaOsA4+zTp7NmwxJY+FLG7voCAsqy/P39cmAe9nx4KXCwpKRsKrib79PpSlpg+XYVWolDQ0MOgdW5ENpykwdiY2N/1Wh88sB6XgNzmqELqVGh8BHhWs6dEUZ3o+PJcvFJ0sevdrwq8yGUfzHJsaD/NI/qNwrMHldZ7IyX1a5eDNGb1xFypsOLEL2djYJI1d7V4PoM0a3JfE3Fi/+tj/yywqyc2BxZ0uatG8rGdYRNdrGPhLGbRsu1b65f/ZTV9aUXBgGb513iNtJ0jV0ej24nHsRaZRe1fDFNa+rUE2NSgHnjXqPxqVqrYlSlRTXB+Evzh+1mEAhDJcfNfn+UWcRLbvRp4KIE7WgI/tAAy8wJyzo5K7ZLHKqRLY2T63acCo3fOepMuh3Xc441NG/NN3lcB8G8JkAwr+9hlnMbzMptnhCZnxFFyvV7ThnIrvZLZLXroseHzh93j1teoAY82YQrO/ef36PoNmSVyxDILtRxbFzKQVbb1OcL+JtPmzTf1pXgCmnX9o7uYCfU53K4XoX63AH90waB2traE3v27AHLGN0uNgLz7k0mUzNOkEW/tBAChDLlajXZ/ouSpCxTkS/aE86eKFNRQh54qicNOqvr3z1dQlQkvKqWFLYX01l++3pX8HGJNG7TRMP+FHwsH4ibTqQpChm+Nlt7Jm0gqjcodHr43rlk1rRhPdK1K0tyZV0LOZZdBc9FPRLZL5VLKnWOO3C/dN+tToWH+6ghQ77PL8h7DIIyeQvPDbwAeIaAAFCYBpLSlJQ04rVuCe5+JedDs+BujURGKpFWwRzVTe6Wmem+6ItbEwli48bv79Gcq5pZMHlcXlNMVFUDQ37OSkqqnlVb+7Cxqem3oMjIZnBzbtI2Nr4LRO4FD7V6uEwu9wwn5O+NTU07wOJ5fPny5aWfffbZaCB3YEc2dGpR7c1oMMgWEHPnc7LB0OABchipVK6HPbz84N5/oGgbWsF+/fW3R41Gg+/ChQvvgXnIDUD8sMztplAQOxgVEmFVpnkTJ05Ey+7bQJSter09zGrdroRj57l1FQAvWdQjRgz/Gon4jh27VkI1y6RJE15Di7FrPUwL30/X/NDQoON+fr454PkQolTKtEqlot7X1xfXbH4HrOZOkoTnBy1/sHEEF14WtLlqwNhqISDZT5mZZ/4I1vMlRqM+MDZ2yCuLFy+2//vf/24A7wdLRETU7ttvv/UbwYKI+sA8awaP4dFdbIe1DpXKgXoHc0Wt7+komSl9mqru9d0t/ilZJq87J/k04AvkJlfJerlc80158Nq5ysqnP1m9jCO7uFRShrL5D7kGz5tv9tEthPPSZpmmDGvgnYCgeLKqbk1NqDSzvVXeg7FWZbaEpMU//s4DhGjb/D7yjeqFcJEVz/aqeFxZcFRHuvCfhu+dcbH3uYe+qIvZVmBULrxxUvOQlBUrctvPNf5eG/7hOJV2vaggxEp8GrjhYUCxjAbvDXctW31XSsryUncvRIrN8om/6UNevjGweOYXT/zJAm8uuLbX+BQ/sbYqYfIZvefS8Z7aVZDptHXjb+50tWapWMRapikrnvhq9TKz6wsCV2zbp/1gXWrwHIcfMCzLRwgXRA/rZOmVi+0F0VuE1RKcP/72Ai7FMU9M8S/cSHg+2iaNmVw2/JqEPerVNg1HfAa8bedLHTuuJp/m/nZ4Gy8Q3tb+IdXauF2al4E90I0iMBAQKK0CgowbENu0kGFk65t8xIUpsN/wxnGyDha8+vjpCAIPFKTsFL4IryUPfCasZAAk9s0EMgXbQ9mBID1HrofcO41Mz9hH0mBm1TxMV5WSiPkoQ8/L5OIau29bgLJwGzuM/AIL9eEd1VWXj0CXCMgTdHkQdBkSpCQHMwhZ8eY00KW1jxguX1g31dVqTsiBL/eRL4LGkPfnq7g+8Bj1vdK2WiboRJPIu4gL2DUAB58nTvhm6S3n2JWdPycOQK0HlkqbIJL1hZyTvGVvPsEP3S4cAg4iciwoOHRzRXnZH2HOMedyLVh0a2qr54Kl7WOwKlZduF5hXXG93r+isnIeyIT+BOs1GK4hAG14ZNRXkyZN6nTt3QupR29k4cNt2datc6QqZV3d+AnPWwM9b5WpVNcxTU2KCUV59xCVlwxcgDeCFVkMdT2B/YbJpNKgAH//0UCOc3UtLYeBIG9HKz4SUZjDGwC4o4Wpxd0DeG90hOdDEbgC+0IE5xGwXJE3Won379//JBBneVRUxM/gMtxstdpALRE+HIoPHz58U1bW6TuA8P4Dol/j8kd+0IYAmTWinoIOQDpxcjp3CAQcrLMiIMaGgKSkRAXUlwFxfhrGDkTZylUCPYBM2rlndSSqMEwFzIW2REdHf56cPCri8OH0J4BO28Cd+m2Y++zsB0nuPffcM+vQoUOjwsPDd4AeRdCpCIJt3VhVVT16+PARX8JxNiw3BdMVsm9esGD+bsD6V8izFxQUJMOSUCKw+B7GFwHYP1qx8ZlZICGIM9TZA4G/Ht6//8DT0Hc6WPsPIwEG3Q5pNF4lEBDsPh8fzSkwGeeB5Vl06623LoTx5cCSWNmjRyfj5Op+5SAw1h5tp/Xq6yGC8hh48GCMLPGHxtw5yjerrwuNrg3fqfNnR6l1X7ybuqygPXnEjuZ4Vb/sIzEUb20KffOE0vaFrFn53pIJ0TuOFhR45jYorz9S4/3wTM+61EVjYtqQ3fuCq+/ZXGPO3dYU9oHlcIVcXnT6u5hx4zwyG5S3HGoJeOIqz8q/cOs0azpapn1l5pxEZcPGXKPm/xWbDW9/8vKyzOVr1njtqvZ6ocUuCf+DV+mipRPCf/9dNnrEzmafJcCnxEY7A2NjSKVNOnqYTLoCxmWL96j557pVyw/f//zqhT9pwz76qSZg661/f+thvZo9siY1teHWZa9dd8wY+FCUrGVnSyjZMEV1xqYHCioREeMSr+JbG63yYZubI7YvXPbeO8Xmxv2LRsefwO8KLv102qy5W2cXh97hVTxjbVpbEo1k9n5NzqyfWoasLTUEflZMql+EFwinH12eFr+zPvAluchquM67ZPL6l5edeiI1LTKjOegu8NCWNNolsTAGptEqjYpUyF6EMVgj5A0/LR4dfxz7xfOB86yrYdmsMwbNH0YqGo3/qY9IjJPptri6kvfvFxQuLa0E1TXdSop5zsoT1LZprjEMs5XY8uU4dDf1efaLhU6y3Np3qwy+nPuLf5x1uQP6hyIwQBDYnlFHnvnjNJJCHATxWDb5CxDH50gueQCtyzCV6P5lEaQUCOQDDsJ7OxBefsOyBEKgbBGUxVw9hnwABDoN2swGslzKEWE1iQoCkgufvzy1jxCo8xwsN7MOyty1XemKC+jyqEOXB0EX1qFLGfT3YDtdhgSpyJT5/uAuDsTX0cenFS1Angkp5XwSUNd4QtaDrqgXEvAFY4Bs14FaXh0AAEAASURBVJFHnzre1kXbVYcrJJ0nS/h6rOnQchgu/9Q1gMZdLI/eBGse8xfjAaTXYFLl4XvnEfz0dZNKiTbOuwEj4wy478n5xqaR6QsvFPE5X189LUe9YOkfMbSzAaF4q7Ki/Dogx2BN5p7BgFywBIjD3ONHj/7k6++XDtwIOBacA/CYhWl0/G/DJY0ZwgnqkHbUg3Iuko22oW5ifX3DeGzCE3JMiIhEJq2Iiwv710C1IoMJ0cfQ0DDR6ONTVm+xwBrEKgtrtR5R2mx3Admdq5SrHwSyuAHmsg4D8jcNXHonihmRDb+7NbW1B+DznreX1xyYjzwM1uTdAGS1UK1WhgB5bAbS2QCEtKen0W19dO0uLCxa+MsvW9eBVRTE2yVgda2bN2/e34A8p4OlHtSVtchkYgsQzdgtW375q9Fo8oao0H89ceLEI0iyUXBSUtIGcI9fAcGwkMQTsEI3Q5AsiD1mZMD9+GxMTOwWnGNcVlY6AwOByWTKBhjzGZDNWYaBYBogrePbStFi3QQn3A4vEKxjx459GYiz5+HDRx6DSNbV8B1cJ0S4RiJgNpvl6enpj8ISU/8H84XrYRBStHQPGRK9Kykp+Z9r135ggiBk7zc1NUX99ttv/0xPP1IAuuE85cjJkye/Dm7l6YCzGfrUgR4d5nsD8S7ENZ1h/egb4+OHbsY6qCcsR5UNLxZWAyF+6ccff9qk0XgXbt261RPGrFmwYMGfwZqcs2bN6+BqzY2L/x1gwwG+BZDmHE8FaQRyz0R7t+xyp66SMTZwrjqdeBHgmsCjlNnbDrT43JJr0dz097365/xFvrmBctPJO9QVV6kUphY4d21EoxV3gVfVi6Mklf/Os/tdnxt69YazlTadv1Sf8eeg/DGdkXJByPHg4dvmlx86m2v2uz7+iU/X+Eq9z4ZL9emzvXLeAoJbMQKuYyFStspq1e2xw5fd3dhiFAo9fx02pT8WWDD6tFG9tMqsnHKoLmrZiCc+rqmxGjJu8i56ZE1aarnzeq1UaG/3Kl6yeFzkXhjTj9M86z7frQt68JQl4IEd/9MPkzCRpjCZ/nCSouE7c97hX8PgNwJtBbWd+yAVk/OAqmgWWnnPWjW3DXl8/eRwWdCRJIX2hzhi3gTxXVrw5Q38PrURxpY9YgjbHS3teH68pNYK1+viI375N2zXBT5WZlZOhZX57BOU5a+4kmhUoF9JMr6VQj7bhqyiVpDP/WocxFZIHzhdS7Yfq+baYLXWjavReuiScuHGkNt5PWzC1+26jovoAZW8c0EoCfaVDyidqDIXEQEgoouOoUV3Gtk6Kocs4qyyKlKa4bAuj40gt5BS8hcXC6vT8uymrKwK78dKEhFoIHs5koxptOzyc4XnAZnlZANJXQpyH3WRi23b/2qQ/GJ9Lh/6wzaPubRBXfBF7PSR2Ac/nzrGCRfkjwA9PocMbBsIFuOnp8F4cIP510+XkumvJ5AP7tWTq2Hc7fvmql0hf4rEQ7aNJRxJHlAjxuWnfIavO1RJXa17dV7wIUmwNvVKgKMRkA3uwRxkaeP8tB2fPvoi/JK1BVo4wDckykCCjiXEJ/zjTPaZVHiWgLVweesuPlc0aLUTGpu0E/hhCOPBKxefBsbMXcewDQS3dpsWiDAfowbqgGCU7cx3yBo2LOmVSZNm5y1dWoMkjTv/AwU+IFsKsAD/USSTFY0cNy4TiRzmgdW0FAZi9/TweBOIokktkSyF8U0FUnegsrIqBfS3wJzZFMBxD1gp/wvW0V/BMj9uaOzQh8UysSYgKHBKSVHJJyEhIVbXdYL7Mm6IVv02kM5vQQcIOiViQC8dENECWOO32vFyxDxz5rTV0IcdyGHlwoULliN5Ar3xuZojyDAuCQT4KgbLqR2+H5w6s2fPfAkSDFhrm8D6al269OZlYI39BYhpHNQthPEdAIxCIThYHSw1ZX/qqae+BDfsLSDDBNbpc9dcc82TQOC1b775ph30MM2ePfvF0aNHb4DHeVNmZqYEZXIdwR+waG8HUgCW46oxIDNIJlM0Bwb6Z4G+R8PCgpD0YNUciHR9H7xwmAIvdOIlEpke6pyCtifBhdsKY9oNWBdCvQ6eCVCumzt37qsQQftz0PcMHHPfNzyv33zzzSbQPaOoqGRaS4suAHSuA5mHgXjnYTmsl/yu0WhVlJQkoFs6/hgG/IZkDZwV4NPVdv7AcRjtepqH9r2upLgrw/6DSP3r02ANe9etOwEGhbYzPOpfb23bqivqFKUydert0v7dE7qBE4XjedMpsFUeZqlMpsY4lWkP3s9wwz7Qms4dtP/Thau3UDVJZfgpiRh+Eo7b74X+2ue3HrfVD/VZ4FXzYms5zBJv94KiP0kyd3fgiLLjBoFXfO6Xgld+x+Z6nFHQSOLCPMioWC/u5oBV+HI+5VrXlRAL4jjpTtH8Dca1nqNL7uYjpAfDfmt6LSmoMFCSPBhO1gXVEay/b6jApdqfoK1p+sg6svczvgN0Vy7LKHVYWnkyWoqOVLC1LQPr8ShC9q+Hi12IH4mo1pNCrARzgiOq68gXHGFGqzJvYY5JVpJzTrkubbGNc8P+2urS2sZFF5x37OyDgPXYQaxBj/Aa0AN+q6jrud9PEN4i7eyAbH+6lrOAb1mmIo/BHOz81qIrKlUtidhlYuRaOWvyGUgDx/WZl95SQl2te3FSwDrzOczp292Lph2awMO9Fh9IOxTQjAuCALpaw/JJaDljkJyNGTfurera2ml1tTULIZK14xkHiSy6rOKLeMwCUzLsOqb5elY714xrA2urwoZk28498/DEGwXx7V0JMpxrEhYW/jVY/j5Ga8k777wjulCE8UKAtWLFCmbFCy/cCSwyFAjnZlhTNxLkhoB1MVkukYwH/ePApVcDL3a+1et0qRKFogCIlQVIqgWCP10PbSLAvXf5gw8+aAMwtKvXrMkpryzfAmv73iiXyjzBaloO1mfnE15fdQZieBY/7eU4iCVM3+Qsw5lCOdTdLaTb74U2mA8Rr7k2sOeqoSs2WJs3u84fBrIJ1iAMKJWGuyIIHFbkSBugjHvdLMhEogqf/VjRIQOT3AY64RzUTOzTVb6j2LmD9vXgrv0zzCf+xWFpc+II56UKiHen5AnaluHHKcyRAP1QRsGoUSMKhPnNWASyuBqgWzZ/7JxiyuXTPxSBgYRAf5JkBw6txJj7VToYbds0HHEZ+ByvIMMiPUlRlZ7oDfjSqrU9L9BRUZDuOBQIslTCkBh4OMd2+eV6YrG21ucJu6NhFzulXEQiA5VcjZzS9m9SumjoUqRRSzhSa4G7IBLc3mz+Ghnx85KS/Zn0ItMb/AZnG96NuniNw/qaDITyVCnZDt/p29sNKBwIJrz1JPPuxbnHQFo5wstXEspiro6HCNkG8jqWjeWDaBVgFZAX5gyo5WJhTiYE2zIgd4hrW14s/xfJr+sxpMPc6YL9wTxk7pEQgo/dBsT668+gskOPQkgOcWkLyTZbwYk6UgYEv/UX3Kb4ijiQs/pgud3k7TAiDZgxe7G6KO7ErBwwKg0aRcC1sgiUxQ/dBjgCSATAikzy8/PRdVYCpLQZ1q19HJbY+V7foku02XANZP4KxRNcIY0Dg7DCcPHjH3n4ND9c1zRvjeZqOyzT7tJi8BWEOaDpo0aPfhoIixEI8gB4tuNHI/wFrIZYbbbZYL2pAeK7QGS3TxXDPABYr+qYzW4/ClbXRD1ExgKinADzk4eCRTULX/CApTkYrJS3gqX1ZyDBVatXr47z/Oc/x/pHRc0wGI1ny8srf1UoVBogm7VQLnQ36PYOUtknvbuS0VWZ0CniDfWEwwu2py/qLhiUVNAlRqBfL6RIXJGYcreNLskx1uNvJlhbq7OQ3HIbmZmMy7h1tvE3o/almYUNQI6bOXkG1oMMj+25AWbPiQrirbaS7JJmEhUZToJ8ecLcvq+ujjftLiRLJsvJ70fryPxpiUTqWCOxqzauZYjHxu1nyS0zYPoT3a4gBFrIrgwl+QDcrJ/BUVeDS/UaDMblDw7NEeSZN8eQKAzahQTy6QQI5pVADvxeSsqAjG53oMSRS0cZBtEqc1iPOQsz53btsOAKbtRAegULs9D2F5Dr2tYhmt9V6KG/jrpgG0GXHVAT+zsI76ffh7HghgG4UEcuP4N3oy74pZQcfCOBYFtugxcCG4LAlTyQP8Q2HKnnD6+4v8Mtxx/uC0HWM+rKWlHgiUpJyKFqcehBM5EYw20lswNs1aOHWPOWAKDwGN/zLc5y5tZ30x5/DlqX97w1bUERGJwIgMUTiXIuBG+6+9Chg18Z9PqhaFFuS5A7I778mFuJM1qW+eeYztrjzxPnt3p4ep0YM3b83eCeWz4QCTKOzGYyjbKazTOkcvnPYJ08YTSbv1HJZE1ymcyTtdneNpnN/4EIVl/BfONnPT3Vr4BbbjA8H/4IlvEbFXL5ZAigtRnI8i1gVZ0IcooKi4tfw8jW69evfwRINwYyywErM3sxSN7g/DZSrSkCFIG+ItCvJBmZqmC95W4FTqLsILh8JkdonfYiyLPY7CQmzIskRPec4CJgufl81HUkyAnRvj3GsKymBXRoJOgKNXKoP/HxlPdYRsApYAewWSEcxYhYvx63xwZealmv2tFGgxuBgl+Ow9JP7ccArtdPCZGrsQyXcippX4k/5pZ54suEoF0c0QS5DzhaYB9CGqNnP7DGUeCmbWGHXjrq8qAbXbAPd++s2+aDLHCtbruVQORuuuFcvhFNJx8GJHpMZG0QwPKwbMrK61/dunp92l8cF1weU3ThxpSarRu2UP/LuiBbxRS+pPt/xcSmiDDl3fr4q+++TYN3dR83WnNwISC4W4MVmXVYk7lAXuCKe3T69Bm3HTyw/xOYC5qMc1VxZPwjDv9zc03zo24lz/iT7g5BRgsyLN+ze+So5IdhrmwuEGSxoMdARBJG7g2fEpjre1SwLoIF+U9gbq+D/Ve4b9Tpnlbb7TXeGu/nYI7ujR5qZRLgYVHIZOOAWB+F8S3HOfY8nizz4+ZNY8BluxzmI3eYMzsQMaA6UQQoAoMHAVF/qer6VMalXQkyZsAxZ2XGPf7jK0EKi7iDPql+IWT0SQHamCLQTwjg0k5bMeAXfD4YVUf+AsGvuru5a9v3X2N3e6f1XBEIaslcpCItwa553UlXiUMOfuXxx7EnFFNe7YrAtjB+2d+r75x6UDF9uY1IejwnZLj19EMbN/ScwHdnDLQORWAgIODqwopEGXUCsibCQF5g8Tw+fcbM60LDwr9En2uRSAzEF8mvQJaB+jnS+EjTSopd0+7JskOWPTIi6sOZs+bcDPM7c5AgY/+CHpgeSBus5XRcJBafBLP63TAfORlfMMDLgzlgRY6ECM3vZmYmaWHe8TB4+Xc16K21WMzHPNSqeSIilppNphxY9ukguFQfNhha10IGy3m4TCoPhAjXx6ENvRUNpBNOdekXBKr0bEKxWT3LSMQ+eIEx2hjvceWZswqNytk4N7xflBrEnfafJRkuZ3hFE8gqEmH+EteWEDvzBJCRNPeRJPe1vaAK3VMEBiMC2z/j3Zp7o3tf2vamP9rGPQJqtil6qmn3K1DaIysyuld/p7rjGlgqpsG95I65J2RT1rQQTeU848+f9qQ/b3v9MOPJW29NWZXytSuZ6NgDzaEIDG4EXK23SFLhg79LfL4qh6Vv7ob1an8/ezb36WZd03CkwLg0FD7w8I8yPBHuLI3IYBkSagzOhWkNEPDYofGvfPrpp9/C0icsunljPdcNdQLy7JrVr2l4QVAslcn+CQNYa7NYYOWZVLx+LbKxLEYLThwzJm8eRFaOkckkEXarvdZmtxbpDcbMxoaGV8FF2wOsygvsVusIpVJeCkHQqgELIyytdLXdZjcCSd7/pz/9ibpa9+sZpp0PBATqiFd8lVE5Zpi8aQt+UKcKm3IaxrlfV+G5F9zCwAeWbt1FoMOFtbsNL0g9uNrjPycRxvsGn8OLdz3m7yBcOV9I/1IEKAIUgSsLASTHE037ViSYT98LI+8RQUakdqgX3d8TgoxtcDsrS/o8ypJ/VZwt+zY47Ha/Vxl//urEM4kPHTIXr6yURe3khNE/FIHLBAF37tauQ0PyCi+IcEmez4ODg3+BebZ3lpQU392obRgF1mAwquJDDpJl3sLMPwzxaSTF/E8NbKlgIwarq93LS3MsKnrIZxCJ+GsgiXUbN24UQR+cBRlru25I1gdSdGvUDVzPvweyGwRvCdJgQL8Acd4CaysVwFgS4Ri8qc0/PfPMM0fBdRzmkok+bG5u/jg8MvIbdM2ur6//CKzMCRD9/Ro/X9/FsO5viI+Pd1JBYeEbsFZvPn0R53r2afpKRSBJpYNlknTul0nSdt9r8ErFr/24+9X07uDAoJPwRpWjzPx9wkGguZsIprkPrz61BLc/jfSYIkARuJwRQHI8x/jLurt0HxYAQb4PxtptoirgkiMd8fn9aZ9vFY57uv9Ndd1f9ERd2dN2IfbS2TcYN+xY0vz1zmBz8Zyetqf1KQIDFQGBmLlakjHtqi8SZfxA1OlqWO/2HzBXedbUKdNujI0b+pa3j086rFnbCGQRiLQj2jU0djwJWURiqdbX1+dA3NCha6ZMnX590vARs+Lj499HgowyKyoq+vUZznWc3UmDZdvy0ksv/ZORSB6GMR+GF3aLYT8F5iP/+twLL3wEAbiOoGUc3K//DFbjanBdfx8JMjzzBUMArzmwJNQwINLF58rL11bXV39fV1+7A6Je74RluKh1rDsngNahCFAEeoRA/1uShTepqLYby3FbQtxKpns0SlqZIkARoAgMUgRwmae7mj4sAFrc5uG7p8M5I0/6cGfa1dxVtqdtsT48zGqz5SM+G2s6tBwPeyqDJ8uls4/bJq65avWOZ7uaD91T2bQ+RaC/EABrrn3Dhg0sri+LzytwzAhp+M1wakE5g3OVHWvQNgJh3hQWEbEJLKMqQ0ODX41OF2U2GoNgUWA1tGGBODfDUmCVEM25BATUQ31nTABcbxj7gHw7kENcY4rrA/t2TWMmEE6ubCD9cbxY2Chm2aOw+vOtoP1CCMr1wepXXz0FbPgA6GqGiNczDM3N/y4qKkJirAQ81LA0lBrHAfOSs5566qmD69Z9HNzSYsgKCAjYh8R6II2R6kIRoAhcHgjg1RXncfBX2Us4pqP1w8uWzhsSNn2Uv1tyjKq4EmRMf7KlhCREqGGdZA+SUWKHJaBCeqwxLgElgcjUuFnFGjJ8SM8jZOMSUMPDWIJrJMdG924JqO92FpCbpnqSn/ZXk0Uzk3q1BNTXv+WS22f5kE+3nuNwmTq8+8tBvfxFHiszF/5flEf92z0GkTboMwLTZsypWbtT5K/t3TLbfe7/ShfwzHWk+Wj63lHwwFU40LFAK3JfSTLORY5+vSp05cq0Pj1MhlsLF13X8t8tfSHsaNGe8erB+/qqy0A/b1Q/igBF4PwIwLNdFFjGFwAJHgcfmVQsDoc5yBGwnnILsP4KsDKfBevxXvjsgOs19/AGbXziYmIeKq+srMvLy8uEOmIPD48csFTXnL9HWoMiQBGgCJwfAZhOw/arJZl7WnP84Xf881t7coxDQfcjzugMaV9PKYnwaYGlnIrbjNK1XZsClwMcMBJt3HJKG0lOHk+YuYxu/gn3FhE/LyWZkOBFCiqqiLa+mw1dqo2P46GfN9aPFBS2HYdLtS6Tc0aquiynhRQBigBFABHQMr7ZhPDLzvUFkQaxXzYYrvBSfMlfrPZFb9qWIkARGJgIgPW7GJ7dPgYS/DG4W8fbRaI4k8USAcTZFz4GiHhtBfIcqZbLHxT5gFFDJLLIpdIAsLrng6v17oaGxnF2u1UBc5XL4KG2VnCBH5ijpVpRBCgCgwmBfiXJ6F7Nzb1xsF9Xkiuk+XKEFAk0EmV+r1aIiba5dRqKUP984CvlrVN4MG0wtco4X1uhXOWQIZWICH4suGByDze1godeBePo7aaS975tb/uk7SgCFAGKAEWAIkARoAhcaASAJOca4EMsFk40PNf5gKt1AHx87UqJhlilKnxyMopEuS0tLadXrVpVtmzZMjRTiEJDQ5spQb7QZ4TKG6wI2M3qqevzRc9OD2y8N9ZX6bHlqPLXDMLE4wtu1t+0yVwhuyV1skF1KFv13116MgcC7ougTDc1qf7qv4xLOrB3V9Vzm0mLKD5B+UrAKdEn/61m/wh1xMERhpcSExQrJ9U3hG095rv1pMqmm69pvGZCGMNFBWNZufehbOV/d7bYh82Ob5w+SaEIW58vW456xPmJ6gYbnv1KkjliC6TXleC2SfMsGjDFOq3QNjZbyNlKhkwbHdWa2c0UuluXVOu42jqrJxke13N3630nK4hKbiX55XoCF2YS5KvsZu+t1X76XyFZPFFKfj9aS2ZNGtYrd+vvd54lN03rvot1a+80RRGgCFxJCPix1ckbN3LWX5crac8RUBKDN1yL+zg7uuf90hYUAYrAlYcAWJkbgDjjB+cidwAASDHmabk/Wm7XoQ7NoAhciQg0NMjnBkbUfmYsytKyPsM9CKMoX5xYf1WSgmlKz/HdWD+8bkk9y+xgWLVuVmLd9PvHJR3KOlR20+pir9cCDFnXhxB++bhxReQPbzZb4hZHNwWN8GPq8oo1r5Ly+hBGKWXgYaI5hBHLm33Y+MTEpHouyJ5FkpRNGO9glqlHZpS2avn+u+5/t7hGSeIXJyYewjqD6Xz0K0lGoNqQYgcTdrUe81mtz3VY32JjSVSoF0mI9u0V1oKLNRLk3sgoq2kBHRqJwWwnI4f6Ex9PeY/12H+Kd31ES/aI2N6tZag6CKsk0I0iQBGgCJwHATlr8q7IejwK6G3heap2WexjqRtNHa27hIgWUgQoAhQBigBFoN8QQGtufh073seT2b4RgvulZGY5dUlLS9U+/pf3dm02KBONHsZdzgJIsB5Nh0fpvY1EyXoQjJfjhs7GRTU+C44bsGKbFZ4n7E3DfMX5OTrlgnUVFem4BnNDg3RucJjxS+tZ6RKJhGdwPgq2ch9f5zDWce1zoKdbfY/7RVOe/CLx5T6CO7VwzOHLW5Hdkel+UZl2ShGgCFAELiECVkVAZbpyappJJG/oS7caS10yruvaFxm4VnJf2utEmqKz4oRvHAF5+yKKtqUIUAQoAhQBigBFoB0CLGvU1BjsXp6ELScQdd+1OCUl1ftsPTs7QGk4o2hHWJlmrwkZKruCGJhmgcoejSb/Xeohzdtc5Fu1rkqx8gAsPecqz1tj2snWyyYE5Ndr7HbWJ6/eHh+nsB8BdzMnGfbxsewQ6ri2HQzpfiXJyIG7IscIIMeT0e2aS7c511we/UMRGIwIWKxWnVLWJ74yGIc9YHQWixi89hkHjEJdKAJuhsZjsmlp69R/jTmimJraW7I8wXxgxerVy+C+2Lst0Fo6O86afRu07vEXF8nxdtnV98e9fi6mTBbzC5072LtzQFtRBCgCFAGKAEWgSwSsHmE1KnuLwkBa5+mzTOhPWX6Fq4/51mf5Gvb7RPp+78sobCzDeu4+47v3ri8qba/U2+40asVz0K3aVX5cRP09y8c1SGaaVVG7t4tqdjax06Gc449Wu27/dLWkvkDKzLE2+yzcobYofCSkEm2erjIGa7pfSTKC1plrtUCguRpw4GpJHqxgU70pAgIC1VUVG5JC2UFB0gSdL5d9iA9DTGZTFQR8qRxMY4L5edojfSDL/vbq5BGNx5av6IU1GdZzVcw3bF3X09nIruT4rGLEp5QcD6ZvHNWVIkARoAhQBC4LBBi2fHFS3RDTT4+L7g8yrpii1VpxXAzLwJzk+ulPjtP7zTPIPSYNr19y+vRpt1GBkSw/GG5/s8SgmGskCid/jPFmfzqqVd1SqBXdMM5bv8GTsdouC8xgEM5B9s+AOFMyb03mTMaurtU8MabkuH/ODO314iJQca40NSGwJWNWIiXKFxfpttIj/Bhy8zhz6clj6fNWrlw5KN90CmT5pGzcOzC6Ho1hrDn972tT7p/dFpXzH82o/+86L1Ybff6abWv8rL55GiXHbTGhRxQBigBFgCJAEbhoCEiazwXoRWqjknh0d4rVuKQY7aQw679OntM8SUKGOyMCx58lL2xptt8sEOcGs2hoiNKYJWGszmcPxlN3eHS1YuS31baZnoQckbZz475o47wEgvuRJLcnxOhajZhTcnwJzjvtop8RQBfak8cOTopQnvvor1eRxsSwfvwp9jMWl6J7f7hy3zWdNN441pidlXFoEuBfeCn6vZh9ZErHfGhjJT3yRhATm+KG5g07Jhl2r5br9ecNy69m64bd2PLv/XG27NthLD1ysy6UxG16POXdiouJAZVNERgsCLCsOHrLEZ+zr57xPHROzzofQnEe38EzPjtfOaIpO61nw3E8Qt6rR3zsrxzxYVdleaW7thksY6Z6UgQoApceAYZRNAYoRU06woSSDRu6f9/2NP8+l5VW6yAStVhk59op/QxfsNm+q34yzrDgtegbm1GzL9PnRwnbai1OTX2hOD6ISY+IMK4lkT5lLNtKoHH0GMyL8TUfron1bbz0aPStxzYTsPsmqjet+RcRHDd2GES6azm2QYTr3mwYGVvYXNNCXnf2XN8OZwSbzTk3vTtNaR2KQBsECvNzHq+uLFs3a+jwf1w3xnPC0UJGkVHCSmr5Vcra1KUHPUMA53wPCyVkcpxdq5bZ9flnsx4rqK7+vmdSBm5tE6OqLJZFbx1iybux+3dBfjxjLOnLhojylhwwz3ju3lVf/tDeDVrO6oOHW07eM854MEVMrOcl0+5QylSM/nAyc4Lwq7S4q0HzKAJXFgLw9KELJhJFASHD1qakHMLfHUMUSWdYxjuEJbjeL0eQYYmW73J89buMN8XMS4MlU+qqfFesLfbaendU06IwFUPXOrqyvjZ0tBSBHiHAMCZtrJ/6yGadYsGiiorDIhFTfO24xrnoPDzC5YaM9SYlmW7E99+wNBOBgJrOY6LSHrjH0eu1403DrnXVIFoPR5zMea0y6++JwzpaE2RB2fhGZ1leMRMcH2D48v6QGPuZQbZUW7+SZCTHAikW9q7nobO0n5eUHD9aSjLOFHdWpdN8iZgh88fxSy79vu8M2bqnlTR32qhdgVIuAhn+JDnWk3z2/ZF2pd079NPg8k3eZOoIH/LGp//rXqN2tcIDeh2Dp50ketifCLS0tJw4dSJ9rlgsjo6MjH5g7IyI+2xE7JFZxqgKqomkqJolVvouplunCN2powMYEhdkbwzzJbLKypqfczKy/wGW4wPdEjDIKp2Qjn83xpJ3A6jdU55MvO31w642bvqu5Gk/bV3z1yeEoYsZqyLIVjFZOO7NHuciew7//Nf25Ls3smgbisDlgwDblOjL5J7RKRaChScdnkzZ+hr1vJBIw+e2HOlNeEe3670W7CRWxd2exnfCHGuK+gTUvTe3znd8iYRNWJuSmk5/V5fPN4KOhCJwMRDw8THtYPNlz2LUaeInahOI62L015lMu1k9da/eGjXdQHIH2xrJOKZ+JcmCa3Vn4HaVjyS1r9vVkwL6JEKlEJPFUwP7JAMJf19l9EkB2njAIGCz2YoKC/NfwI9arR4WGBh4Q1xi0JKA6V7j63W2loJqRgEfeYXWTrS4ht0VvqGlOEhDCBJjJMWRAWJ1Q6M+r7G+enN9Wf323BO1Wy93iKolEbv0RF2pIi0hvR0rrqEcypbO7m17d+2yJUnrl95yjl2Z5q6U5lEErlwEfDXm7aRIdvdDR7O8YLEV5my9LSHax/5BPmHAokNIY4t0GKs2nltbkKRLG3GGAwosQQ1+nqQpz8iEgWWBkJUrr1wA6cgpAhSB8yIgkrXsvzeRLO7v0FMDRY/zAtZJhX4myZ1o1Um2PxDKT38p4z6dVLlis6e2zrO/YjG4nAYO1uXswsLC1QQ/sAFpTvbz85s9Ky74ei9P9UgPlcy/ot6ibTYyTFmDSFMJDnjNRpaU1vXcM2Kg4+atBp8LFcORYV8PuyHQizUFasRKhrB2bVNLrk5b9xuS4uIzul0413ugj+dC6qdmm6JVbEtwz+3IF1KLjrJ8bA0J3Awa+izfERyac0UjILI375uh8rv+lJXMDWn2ke5Qm+RPS60V+bAWyxUNDB08RYAiQBEYYAgMKpKMFldqdR1g3yCqziVBAF2y8UNKSt4WOgTiPBk+weEeHskJcf4zZTJZiL+PehiW1zRaG40Wlm1oYSR1zSIPDLHgSqCLavr/eQyXYpI7rkA+SITVDJGKWWuUv70ZxxDqK/GA9YwlzXpzrd5gPIdk2GjQ55dWNmZnNjWdwCjPWO9K3iJtRVcNNIKM52OI7eyStWsewrnMOHmJbhQBioALAtG+lk0b6lV3xBKRZay3/isJxCsVijVqSzZTL776oZgsCDfIX+NYVh6VU0WSvPzIP3HiIJ3oL6BF9xQBigBF4OIhMKhI8sWDgUqmCAw+BIA0H4QPqa6u/oEQCAXjsqHlWSQSeXt6ekaHKxTRIpFEPTrMb4FQJdDPa7SQxn1prcUt4SxvECn1ZkbuWvd86Wh/e6NEzIfjc62L1l+5VOSU1dCkL7RYrE1Yx6jXnzUZdZkQm8BYmlt7EPPyzeaDnVmGgSBjlSt+G2o8cyuAMODAwCjaSl3jkpRVa7+m8yev+K8pBaAdAmK1Pj0522vVRmJTXe9PnmEYifNZDMtGtXj5H7ey89auSPkuDZaqyy9TrToZaCo0FSQdpr+ndmDSQ4oARYAicJEQcF6YL5J8KpYiQBHoBwQ4qzP0q9N1L0w2kOnZ7tT08fFJ9pVJvN2VdZZXX9bkltxS629niPUuH14oeIfaSmYPPIrMjyfWkr8EXpV8TadP9u780laXLwIMYyuKDyKHamT6sxvHJZUPzyqIEEaLZdeM08/fctTvd8X1/9z4CgGXG9hYIi1fmpQFsQeYMqEu3VMEKAIUAYrAxUOAkuSLhy2VTBEYNAgAmd7lTtnO8t3VPV8etf6eD6GelcdbziwZqAQZR0Jdrnt2PmntyxsBJL/XjtfOFhw/4iIa7ozDIcPSK/A7hiVTTM4yWJoFj4e6LrvC2uXTPjvqu6theP2dv69J5ZaPwuZ0owhQBCgCFIGLgwAlyRcHVyqVIkARoAhcVATsRDSgg5TpRR6VDUYfDRAAOi/5on4TqPArAQFGZNp33wQT8GqGzHBZ6/RKGDsdI0WAIkAR6A8ERP3RKfbpjFLRXwrQfikCFAGKwCBGIF827JvtimvvgyEMuMsprpP8s/rmuSZGVTGIIaaqUwQoAhQBigBFgCJwhSLQbyT5CsWbDpsiQBGgCFwwBM7Kkj7viiibGLm2VhR44oJ1CIJsRGzsSqZAkLWMX+GF7JfKoghQBCgCFAGKAEWAInCpEKDu1pcKadoPRYAiQBG4CAggUUax84w/fwo7Rs+oK4vEcZuKZDFb73vpi01paY+zgdbS2ZNN+1dAoK85vVUBCXeuZPjnR+RT1phEqgpcoznGkrMkwXLmHn9b1RiUSwlyb9Gl7SgCFAGKAEWAIkARGEgIUJI8kM4G1YUiQBGgCPQCASTKJpGsUW9XVtbKwrgltFAMLBfDSauWROz6UXLrLoHYjjcfSJHbTT7d6apMPGTrKemotfeu+vKHtLR5TtfuFsar6JRswjv4EeTmSmJ+NFELcndgpXUoAhQBigBFgCJAERjACFCSPIBPDlWNIkARoAh0F4ESSRysl931JhBbrDXNuOst2DFdtUDX6t9Uc/4ExLdcINzu6rvKdVdO8ygCFAGKAEWAIkARoAgMJgTonOTBdLaorhQBigBF4AIgkOs5/UM9UVeeT1SWdPSHy1LfpcG3zgcULacIUAQoAhQBigBF4LJCgJLky+p00sFQBCgCFIHzI2AymYzHFRPWQE2n+3T7VmhFPqJIfm1lWlqnddq3occUAYoARYAiQBGgCFAELgcEKEm+HM4iHQNFgCJAEeghAuezJlMrcg8BpdUpAhQBigBFgCJAEbhsEOjXOckn8ppIXaP5sgFzMA1E22JjAqWDSWOqK0WAInAhERCsye7mJgtW5H0ugbouZN9UFkWAIkARoAhQBCgCFIGBjEC/keQhivzbioqDXi4qHsjwXL66SRhijPSu++w8cXsuXwDoyCgCFAEiRKemUFAEKAIUAYoARYAiQBGgCLQi0G8k2U9l2uunKpndqgpNXXoEugxse+nVoT1eFAQaarxTf7Ab7PcFmVZelA6oUIoARYAiQBGgCFAEKAIUAYrAZYQAnZN8GZ1MOhSKQH8iYLezPulZvj8fMNsn9KcetG+KAEWAIkARoAhQBCgCFAGKQF8Q6DdLcl+Upm0pAhSBniPAsuLoX7LVq/3UYo/t1eRalJA8rO6m+Hr/W3J9azdc4yH6HonukWy/f9vialOnyESHWbN6+men5D9UsKwf1g+J0KfcG2hd30FOfPOf/M553Ltdz84gGX7X7Ag0fWf+5Jk/pD7/xjTX9qPia26+VqGp/qxS/FhSizj0d2KV3+uVvcBoH/mvHJ/ajU4dcvy+MEVVrpyhkqVjv3SjCFAEKAIUAYoARYAiQBGgCFwqBKgl+VIhTfuhCAwABNgW8cQsuT79ufENzLOjzDOqSjUP+Xtbth+v97gT1WOsHsMzGYtotNWYjaR6S4bk1Rljakdi/eVj632H16knHTQpxneQc06xNG6Y/s75KmbLnFF1E5+P1N+cmvpy1JYM+T/jEiuv4fob1zSEyQ1ckW4m40m1eJI5qurp5xN1k8LCwpqGaOybUIeUlBSG04FYxDENNdkDADKqAkWAIkARoAhQBCgCFAGKwBWGACXJV9gJp8O90hGwn5sRYPiIQ0FqLAtsEXnUepgzk6ulgXl2e4i2UTqf+JoPqFQqHbEowqsZceKGY37lrxzxYVcf863/Xc9e02C1hxPSUU4Na/VwRZfVeU46EWjM/33NqsOYzzC2omFBJKtOLwonamu2KwlmPHWHkmtkAXctW+bUAcmzqzyapghQBCgCFAGKAEWAIkARoAhcCgSou/WlQJn2QREY0AgYihIC1WW5zfKr/WtEE4bFGVIJcbw/U1kOPxlVdQtHmh1j4CzMRHbzhRwSR6ADRWU5Vs0i1CEuWpdGiOxCdkFlUQQoAhQBigBFgCJAEaAIUAS6hQC1JHcLJlqJInB5IxDjbf/h+DnPlYKrNTdaztIsDTkpUQzrzeg563C1Inb+sue5QF44v3lPlX14vLf9kDt5nMu1QwdXK7O7ujSPIkARoAhQBCgCFAGKAEWAInCxELisSDLL+kefKYk+WMey4A7a/xunT+nwkt+rQ9P1er1G0Ihl5b4l1SP2/14aXY66OuuVDmd/5z5Dm4rt9ilYv047YgOfN5w9rFe/JMige4rAhUSAI7QtrNnpag3C0bp7zSjTY9mn/H9Bd2v8rDqiOZdvkYS661tCLA1DA+yHd2b4pa8qUX2bmvpC8dXx9lf/lxV8kGufIdsSl1T9YCwhFe7a8zoQE+pwpbla2+15Idc2vVH+SNPr7MNN/66fylpnu8OoP/I43Rp53VC/P5vyv1mxIoVbPy7R9MYPkGfH/Nut9S+tgDnlrjoG2L9Mu93WsLJ9vmudvqRZZttNjzRi/78WjmTt8NWiG0WAIkARoAhQBCgCFIG+I0DdrfuOYZcSGMas8yJqdY1CkRRFyAGszLIBIyqJSeNFiNbZmG0pHxNRONWPYcr4PBGxm6NuP26uj57ql+cN7q6Ntdoh79QpC8Jb6zhb0wRFoFMEfAK0qfc5Sq8d3zhDcKVGEtx6bCPXjm+IaS+EkbXsvW9ci3/7/LjxJvdyoK/nAkgqVz8NPKaJ9pvnxpNvWtujC3ULuS+RXE1IWGt2a0oX56nbeiW5WsMLNM/55Icf7Z5P/v1fjOTfdvbwpDssJQ/MX/X57pVpaWwrNJ2nUMY88t23jPK2V/Yzkl2d1+xdCUtGFu7zWDDjkNFYPd/6wQ6ftBf/aCfbDLNss/1+8EwKrGRUtcPM2946kZKC36H8nvTC6c6C7qqe655kzLi72Otvd09IfenLU2lXdQurnuhG61IEKAIUAYoARYAicGUicEWQZLs9fOaRc5ofIQoQZ83V+BW9PF5pfau0ZujmXBPLWWzx9IcGnbolURp4OLssaM85QiL4r4RZNzQs56oAY/w1++vkL2Ae41n5fTIJsVapMjYmyUQb0TJcWhvxH9YvNzVKJOKIMN8WCLHdogv2kGZWGT2viVK1cGVGo2KBh3fDZ0ylR4/mdfp7Fz4BvQui6Z4icFkhIAT6MkOgrxkcwb6shtfpYBTKvQtHGWYbfzCYtxKVhIiYCYe+lpFD9pS7Qq5r+vW/pR4L7j4lEuWjRfe65nzncaL5jR9mGtklba4IurcWjJTftCFo1frbUtOum/hH3e7fNIT1xM5LPf9213ggkykpdwUvNjW+0yDe6T/SyM5hyKii3R6+zye37P6XhmU9G1V/ennoS++scEfQcW76WXvIlvl2XTxMWz/pOqhs2cK/uR67ptOWwVgMR99u7RP00fztrrVlVT8u9f7P9pE2djwDuo8G3QPc6I46fSXO//l2K/O3Usuu2JHsbGOGdJd5lImdTUxvLal57u7FLJv3t8W6Hw6HE5bzdGBJSMMpzW035du+mXNjc/mLoA/DcPI/B2wWIzbbABt4V0kIN+aVMOaV3Xsp4To2mqYIUAQoAhQBigBF4PJD4LInyejKnFMmeS024vQItMAKhLaEsaXkySoq5wfWMWix3alvXoqEl5BakhhRG5noONc8wR75y1nSoh8TfjZCsOLazR63n9AH3J4kqwOSDJZhu140wmjMIipVh2+JUmHYztZo7tOTGo1S6SOubbYlBgWQt6sJaSXJjDr0eNmIUq6xvOHwVI+8BSpV8X/GyEbcuL9uglZDil6eoGrBBz26UQQuSwREXtpvnvcCq/MVRJDxRIawNaMa5RN2PrRyTR0Q026dWzu77eaZ5EZj0JvrRUhm21uS7alASnUHPyn2evJ6tCxzBLvp699+S32xbC9blEPMO6f7eD359+BVL83b8Nyp72c2j1y13/P/xpwkR/3v0B3+6PvUlM9Akfz2ymA/Q9mKa5pUnu+kpe77bvhznnfdoNtZDSRzVWfEWpDBWHZOi5Levy7ozXfmpaZeN/GOlhMp40KTtv5u+MtcVtxqSeZ1z//Haa//G3OKEeVzYzN99+00ZYKOMWZPZr2evOdfLFrLx5MG9o0fomVP/hctyQzgsNnraad7Alrk/9j49rZRZGR9usfS+GMiWR7qYk+9G7CpR/ljXeUXp704KyU1ZXdaN633wrjoniJAEaAIUAQoAhSByw+BK4AkKyJ1jHrYOYGAOs5hqFSv6+x0ImneUeXxlWu5xq/mPYEgYz4jbTkQ2uT5RJ2mNlwJlmHGs+IgukS7thHSIqZ0T6x85A1FEsXCYZZgyVlZk2guYcqAJLduHdytebLt5336lvnejrnJdaYmtGq3t1a3CqEpigBF4IpAgI3ZX2b4/j3y1NA6mL980++EHHUdNyMumBKlmnpqfMpLu/evTCMiUVzF/2/vXoCjqs44gJ+7STb7zCZZshvyAiE8hITHSIKoaDWxVtCpBgSsbWccbauOndoK7Yw0JYC0Ok6FOnasrcxgfaCogA90OgRaw/utAUISAoQkm5BkN6/NbjbL5t6e725u2CzZwBIcSfZ/Z3T3nnPuuef+dkY5fOd895xma9VYxihfQwVT3737CI9c04SwRXzv247o3NKHi1ae/XbFz9wdrMXJaOFyQIhaYMdvur2ztOp2XixHXfmklK49xdhDp2IZo73JRhqL4CvYK09gecOgQ5Syq09ExW/YSJNQsaqm4+IZU5JWYzrLPP3+U8iE1gyTcDw7w+m/n9JNrTjplKSaXHZW9J5gwsD/66I9yk+3ffsxH3vf6Nt1Oa89ULTmzFHuIB/+/rMu61/F/k2PvUq5IT4hAAEIQAACEIhYgYH/pDHSONQ8MmusWhg4iaUIcact+bNiZzL/cxEtqW6+j/ZqypHjRqFwZtoJOWpM5zttpq+DSQTBXm2JS65p7jHM17lYrsXsLFL2ega3pfMEnXMLRZ6tzOgbrTu3kTHLQM1CltFk+TZ15uqTAcu2QzZGBQQgMGwEGoSk0jhfyyPhDJgmvdtMS1MoyprvXrfztz3J4zuiWf35cDoJo62yJ5mWfcuXBUW8T8Uufcge897KfJ/znvxV6656L3WoIUjRP9i9VTvl57TXWWkj79UW2ArlPPhTrm+XivbEPT+BIsR0/ozzf3uD29E5739PcP/0FwPbgp5roGtRBgEIQAACEIDAyBdQjfRHFARPTdxFfQolzgp8VnlfsPX4L/LTTwr56afj+kVn1V6btqtLjjRTO7qu3ZH0RHDWbJr42lpSCmmpdRIttR7kkCPPzuRZx5ydd1hjBHlv8iDN5Sq3O3N1mVfs+8Nzl1czSR/tLL3SdaiHAASGkQBFhT1b7jxSVPgYjZqWRs+7ePZVT4PW1Rrd7DIKYjqVj2YHnsoQhNH0XTloj/Be/dKcEs2FEqOP9WUdl3rG7Tvv3ptdzJcQU1uaME7vzh5XJ/XPmaD0cy2flLl6viQ+tqI3o/Woiw3T21TGyr4Q7rV0StdICTzKXJ4xTqXOCruLGHNdM/PIK3qsPZXz+PWCyX3op18ULb+U+Zr37/SVp1P/ytjDvg8ugAAEIAABCEBgRAuMvEhy4N5e5mqYmXYud2KK5unDNtpX7E/cxbPrNky3Xlxb35i9qV75efv2AdeVZBkz99M+YObglXHuQ6ma1s06dYJe2TNMibvy4h0F8sS32yB2mutDLrVWupcjz8bk/Z3q5gr/3mg2VqmTP/uNuzeJmLZtvVCXXcKXUm6iNnxJ95Y8ed90vytxAoEbXuBMbeL7JWpX+ePWbqxmDfq1KCr8ufGuhx/rXLf9KUl6R044ZVxSoEuN7tgjWd58xrl25zRa/Ky5+6vSKMdRutzKJ6hKMio6l3hCqi36fa8X8LY8cddH1jXvLFm5+vY/Pd3uv1bpkyKsTOTz7etwNLLZ/2Adrx5pfN7wLut4hclJsVbwZdhCeMmvaKJfJQr7FvCx88RdHyXxsfOkY0/w/cTbp/UmHWO9ycUGGzYlPNuhee/QAr5HmrcTmHb6ntroyZ+0Rv/XnNtZWpnLy/yJuyip2YNP0n5lPvY4Gjv1f9Bw973KvuXB7oM6CEAAAhCAAARGvgD9pb/E95YN+S//hxsVvX/4arJTD/ZcclIwW8I2bUrFk/0i0YNdhDoIXGcBUZQSDpeb3+3JtBfNUasOXefuw+5OHk+F+Z2e8faVN8J4wn4AXAABCEAAAhCAAAQgELECfKWZNPIiyVf5cybEtb1+xpb92aUoLY8OB72+6UpdSRf1c2yGlopwr7tSv6iHwNUK0IT0UEXipzvc0lxWap6309K9+YVkYe2GC1HPTnFFpRQzX+yvJ4lP7jqq/pS/r+cm6pdvvXTeM82Rd2tMTPNX5fqXzPoow44mNp/qZkx2FMwzqLZU1SRu3NQkLfG3F+sXT/M8UlGqezewjzunNObP1akPtjbHF71xXpD3iopWX/G9ndGxO1zyeObTeLzrly187tm/rdgqdokUSZa8+js2HI/d2iBJZup/2sTmBfONsUeDx0LlD8RFb6Yo9IeN0qN9Y5nSkJOp0/UtAqFyHBCAAAQgAAEIQAACELheAhE7SVap6kpy0+t43uhrP1Tq8xvz1Iwn4cIBge9HQKUSWnMmtfxYCIgk0ySUNUXNFqc5Fi3vjSzPn+UaJ8+C+TDlSeoZ06qpk8TfS66o3LJE94YXZnU/0Fu+vC2VmT9kHrX382WqwNfhZM7qDurDvDJ7PHtta7VUsGhqfaoycaWJuxAYSebJkFqb/T6SFDX2y9LY1zOnXJj3OJ9gy+dHLFv3Z3W/ePlYEpa3MZb4geSJ7T8W3feDjbtCAAIQgAAEIAABCESEwIhP3BURvyIeEgLBAnpf+XSfp1wpFjviF//5cIJE//ylVL2Lh2ET/XWibW5S17/k7zGeOotLZbAbvCdnNMXOVD/4Wvsut5dv5extOUAf9rboPJbh+ViZICttQ31KTuPsbyyeM8Uvr5GXhQtCT/VkKytr9Yn81UR8LMbWt+RraSzuKL1d4y2b0aSZETyWUP2jHAIQgAAEIAABCEAAAkMViNhI8lDhcD0EhosARYjfrpCWL7qlJSVTpWrwR4xVy0OPv6t6Po8a309LuSuTt67p7MlcPM333C7qozdifOU+QvceVo2vlcYyvt9YsNw6LEI0hgAEIAABCEAAAhAITwCR5PC80BoCw1PAINpSPJ5OGnxbe0z+pUhy6MehpdyzJ7fctdgSVVLZpprNqA++nzmwj1Hxvh2sRrOwyu3ue/1Q6B4pQ7vzAI8Mj8//w/IcakeT7ZJGcepEtXhwsOuUsSyxRn1dKWpmD9YWdRCAAAQgAAEIQAACEBiKACLJQ9HDtRC4AQRoAjkhSTz0Rqn5oD9xF1sbOCxB7dr90Kj4A+vKUjuoXLKIB2Yy4Vxgm8Dvdvuook010i+VMsni2ez9+7JllHwruA+178Luuda0k5vKUm3UXrqUqOuwMp7exF1yd7S8+v6J4l9eKkvev4tJAiURowRg42O0TRUCnfY/7J1pKzaVBY3llZVb5/F9zjggAAEIQAACEIAABCDwXQhE7CugAjHd7szVJ1kDy9G5CunVUGfV5yroe2CbcL8PpR9RTLvzcLNYmGWsWsjfIdoeeO/B6gLb4TsEIAABCEAAAhCAAAQgAAEIhCcQ0a+ACkVljj+xSH4vTagGA5RLUmxirT19o2SuLFLel3wt/Shdezyaew0Jlf/UqftPkKmesnKP00yoadZopoxhbJ9yDT4hAAEIQAACEIAABCAAAQhAYOgCw3a5tSSNGlteZy3hazzT/Qxe54TUivsyBEtDuV39V4teX3vMof4N1ZnM1S/O0mrXD1QeHDEOjCrT972O2D9SH4LxwpZ7TMLvLr9n3aOCffzyym5pDrNl/7CKt8uLdxQo/dyiSdh+2Gb6jK9zNVE/Kdbji6aoVR/J4+fj1KkT9Kc72H1K3c0x2h12F8vVm9mXVEYHRaWPOaVH/Geuholm9lWTxzhvjM6FSbIfBf+GAAQgAAEIQAACEIAABCBwXQSG7SRZEOzVN6fbM27uZfAvQ05blZTkXso81pyz+uqy/HSXQJPRClvKtrqU1jLmSbis/Lym4sukASipvxMO34KZaafTzYJQpzS5/J4JhTMs537C7KPfDIwkU3tJMKVX1mvfsKYevz9XpdrnH8ukbedTKuoyBL6+m4+nSV/9Nh/nj3rHX9iV5K50dflMFkGopT5E75hHv2EN0fnpDloaLx/U9kKzqdDNmk3By7GVNviEAAQgAAEIQAACEIAABCAAgfAFhu0kmR6VJpA7Gw3v9z12bKv87lUmuerHaTvf5PFfRpPpJEPyyUYfSxNClA80SaYlz4K54ZPACfKg9+wbRMAXpz7HZmipyOMTZCoNHAuL4ZPkfuPx1Bi7DUYXU011xnqdY7q6nEynY0KMa1+KM/nlYmdiB0XKleXcAXfBVwhAAAIQgAAEIAABCEAAAhC4TgLDdpIsR14bhcKZaSfkSK8/EsuGlGzrSqbfxz2ViPlk2vfcPO2L4u7OsdNTfUuvNFbUQwACEIAABCAAAQhAAAIQgED4AsP7Pclqr01LEVd+UOS3Q/Dv+2WCPuVsl+FXVE4T2zPOzixrDE9yNWC5MOC+Xo3Gs11yJC1wSFIa9dN3hLpnX4OAL0bXodTOxEnnRXEOlV4ay8D3pDYqgSLKamOXVmukc+UQhO6WDMuJ22YaDbubPeKtSjk+IQABCEAAAhCAAAQgAAEIQOD6CQzbSDJlec4yZu7VL6YCAAACB0lEQVTf68hpYw4OEuc+lCoweR8vLWM2eG/KK3ZIctItSpaVyCx1TQOUmwVVnXsAT+p/vDHrxLG6LLlPStyVF19XMNA9fV3NraP0ow/utWXvVRJ3UZeC1F470RLzn528/LR8D39yMbqnJLGxclHwvyRnh14b394pSXKEPDB5GDUVjA1b5rCE9pPGhv3YjxyMh3MIQAACEIAABCAAAQhAAAJDExhx70mWs0bXGj6wpJ9bGLifOFT50Pi+m6uVzNjBmbeVu9nbJ6x3GSvewv5kRQSfEIAABCAAAQhAAAIQgAAEhi5A70ke3suth25wQ/YgL/V2mm51u93ya6MCB0lLts96XBlJHk9ZYDm+QwACEIAABCAAAQhAAAIQgMDQBUZcJHnoJOgBAhCAAAQgAAEIQAACEIAABCJRAJHkSPzV8cwQgAAEIAABCEAAAhCAAAQgEFIAy61D0qACAhCAAAQgAAEIQAACEIAABCJNAJPkSPvF8bwQgAAEIAABCEAAAhCAAAQgEFIAk+SQNKiAAAQgAAEIQAACEIAABCAAgUgTwCQ50n5xPC8EIAABCEAAAhCAAAQgAAEIhBTAJDkkDSogAAEIQAACEIAABCAAAQhAINIEMEmOtF8czwsBCEAAAhCAAAQgAAEIQAACIQXk9ySHrEUFBCAAAQhAAAIQgAAEIAABCEAgggT+D3NqX0MAb9ZiAAAAAElFTkSuQmCC;perimeterSpacing=0;imageBorder=none;imageBackground=none;" vertex="1" parent="1">
          <mxGeometry x="30" y="10" width="969" height="176" as="geometry" />
        </mxCell>
        <mxCell id="omp_RndTsjfDc7hUTQ8i-2" value="" style="rounded=0;whiteSpace=wrap;html=1;" vertex="1" parent="1">
          <mxGeometry x="180" y="290" width="970" height="610" as="geometry" />
        </mxCell>
        <mxCell id="omp_RndTsjfDc7hUTQ8i-3" value="" style="rounded=0;whiteSpace=wrap;html=1;strokeWidth=1;" vertex="1" parent="1">
          <mxGeometry x="217" y="380" width="333" height="210" as="geometry" />
        </mxCell>
        <mxCell id="omp_RndTsjfDc7hUTQ8i-4" value="" style="rounded=0;whiteSpace=wrap;html=1;" vertex="1" parent="1">
          <mxGeometry x="578" y="380" width="222" height="480" as="geometry" />
        </mxCell>
        <mxCell id="omp_RndTsjfDc7hUTQ8i-5" value="Firewall" style="line;strokeWidth=4;direction=south;html=1;perimeter=backbonePerimeter;points=[];outlineConnect=0;dashed=1;" vertex="1" parent="1">
          <mxGeometry x="820" y="330" width="10" height="540" as="geometry" />
        </mxCell>
        <mxCell id="omp_RndTsjfDc7hUTQ8i-6" value="" style="shape=image;verticalLabelPosition=bottom;labelBackgroundColor=default;verticalAlign=top;aspect=fixed;imageAspect=0;image=data:image/png,iVBORw0KGgoAAAANSUhEUgAAAHUAAACSCAYAAAB7RYWGAAAAAXNSR0IArs4c6QAAAGJlWElmTU0AKgAAAAgAAYdpAAQAAAABAAAAGgAAAAAABJKGAAcAAAASAAAAUKABAAMAAAABAAEAAKACAAQAAAABAAAAdaADAAQAAAABAAAAkgAAAABBU0NJSQAAAFNjcmVlbnNob3SBVJmGAAAB1mlUWHRYTUw6Y29tLmFkb2JlLnhtcAAAAAAAPHg6eG1wbWV0YSB4bWxuczp4PSJhZG9iZTpuczptZXRhLyIgeDp4bXB0az0iWE1QIENvcmUgNi4wLjAiPgogICA8cmRmOlJERiB4bWxuczpyZGY9Imh0dHA6Ly93d3cudzMub3JnLzE5OTkvMDIvMjItcmRmLXN5bnRheC1ucyMiPgogICAgICA8cmRmOkRlc2NyaXB0aW9uIHJkZjphYm91dD0iIgogICAgICAgICAgICB4bWxuczpleGlmPSJodHRwOi8vbnMuYWRvYmUuY29tL2V4aWYvMS4wLyI+CiAgICAgICAgIDxleGlmOlBpeGVsWURpbWVuc2lvbj4xNDY8L2V4aWY6UGl4ZWxZRGltZW5zaW9uPgogICAgICAgICA8ZXhpZjpQaXhlbFhEaW1lbnNpb24+MTE3PC9leGlmOlBpeGVsWERpbWVuc2lvbj4KICAgICAgICAgPGV4aWY6VXNlckNvbW1lbnQ+U2NyZWVuc2hvdDwvZXhpZjpVc2VyQ29tbWVudD4KICAgICAgPC9yZGY6RGVzY3JpcHRpb24+CiAgIDwvcmRmOlJERj4KPC94OnhtcG1ldGE+CkW0gVoAAB1USURBVHgB7V0LmB1FlT7zfr9nQl4kyCSZhBAgCXlIIIKEIIr4IT5YeYk83F3l89tFoy7ILgTcXVbXB8q3frii38qqn7BgFBEUdyUgMcpDEiQhJIEJJGEyyczkNTOZydw9/zlVfbvv7Z6Z232Hubl0zdyu06fOOVV1/j7V3VXd9xYkOFGc8soDhXnVm7gz4oEY1Dw8EGJQY1Dz0AN52KU4UmNQ89ADedilOFJjUPPQA3nYpThSY1Dz0AN52KXiPOxT6C598MY11Ll/YNT6zXUl9D9fuShQ/js/Xkv3Pd4RWJ5aUFhYQLd9oo2WL5mbWpTRfgyqy109hwfpR7etoOqqUiooKPB8klPkOlV+8PAAXXbLr13a6WT77kP0V+fNoEtXtmohT7OrNudC8Eb/uTxBX/vRRnpp+z4GNd1WJpz4nOry1sBggmqqywTMwsJCwgfgugEFGNivKi+mgcEhl3Y62XlgiOprS6EgOgqpP6AAt6m+nN7c25duKENODKpx2K7dHVRZUSwgFhUVOWAqoAYURRQYMQYJqmRgoReUgHlJUSHw4qRgij0BWW24AS8rLqD+gaNB5kbNj0E1rurtO0IlxRqdcPxwYFqAilkeekHp4GGO1JoSjdKUA8INpqXrqkv5nB6DGuTPjPmvv9lD9XwuVTChrpGF3Pw7PAt4Q3UJQS8oDQ4l5EBR0MSi2FB7Gr9SBgMMOg6qwURBkLlR8+MLJeOq/iODVMpOFdeLv9PBFHQhgajjBBCgF5QO9R2lCfUVwJCTtad7bjANh1rqy6j7QPRIjUE1iGx7Yz9NaqlWwNT/AoTip263YIoKsyY1VxH0hk8whjOw2vAD0/IcmeENjlgag5riIhOEzHUNv9izBcDIApSim7p7mCO1maNP5AVYI+FLJySqD/ZHj9T4Qsn4GfeUUydU8R7A1I+HloADPCbyWGZKSyVBzy/19fVREU8mSLIgGrsSsw6dtIfRf4jPw1FTHKnGg308kYRzpI1ImwuG2CBZcHSHb1eKqC/glLpzdydVVeiVr0fPsQEw5bCRHCbr+Eq5/8jw975S9QibOFKNg7r59qOhhodKE0HCtk7HjgsMK1NfU0pdB/1B6Osf4IMEahLbqm9pRZO3CqyYNzSiG1EeJcWgGu9hNqmkyA6XFgw4nV0vYJicaeUhsgto8Cjv+6Q3OvZTPd93SvKA6bbDpvBnbTJdVVlMiPIoKQbVeO9QHyYKTKRK1BjnG6c7jneCKyGgQc8vdfX0UbUZfgGcc3AIgOlgyoHDZZWlRbSvx/887VePHy8+pxqvDAywQyuKxPlgafwBWLPnAlMw4g3koeeXug4eoerKEgVTFRwxBVntqnnhiGxleRF17Y82/MagGlfj+qS6nC9sZH94MFVEJ/X7j/pHajeDWlNZyfaco8FFJ0G0oCrExBdXxYQoj5Li4dd4b4An0hEldhjU4RIRC1AAMiiFXPZZD0PlYMBKzf6DA1TDAIk6NBHyxoatI8lDkZbX8JCNKI+SYlAtqAwOQIXjFQgUWJpz2TXgAhz+YFUHF1h+aS8vu9Xx3LAFCwdEkmYN1INMNpZOUENtSeTltxhUdqosu/EymgUTAMDpAMFDOzygoeVBy29YQSsp5oNELai8qBnbHlptwWYZ5pMjLr/FoLJzsXyGZTQPgG5g3WCyvACKnGWK+bbGb/ntQC9HalWxHhhG3+olIzYJphxALFdXXUxYXI+SYlDZe7rsZgAAmEgAwp1bWvjJSK7n+0q/5bejfP8KwJMAwqTqiSk5aAylFUl9xbyoPhAwSwXp0aT46pe9JMtuJRgqOQWBqYUITv6XjXBKWM9v+Q0T8xN4Mh9JMZOtSxdRqqUmE8mmulLqORQN1RhUdiWWz45r4tsPE0nqfvjYRKsB0e4pSgrucY0VgctvsCM2BS7eM+j5galFkBGKNcKnGFT2Xd+Ro3yB4n7qgZl+gBp/JyM1GIBeLLvxQ2du2SRe5vAQdUurrWaO1IP9wXZHA3Woc+qXv/Nr+vYPfzca+74yl35xDW179XXfspGYf9m8naAfddLbXU/Hvj5qrtOhUsAUQNmxyM1Hg1X3FXClJzWVpy2/2WU3gcsCZ3PADNrU4YwOph7MPx8NmNBwt3k4OhSoW3b206PP7g8N7M7OAfrSPRtCAYuJ8v2Hia67/fGsAduHyXxzUaNAKGDqcPa/AKEg654FhW9bGAQs27kTJuRxDyvAGbDUhtVT++5y6KO+Wr5iPjIwLle/BfTRd0+j7R2J0MCu/ptlDOzGUMBObCynKy+ckzVguw/xrQQvo8HJNiKRi6OVAZcLy0aujTDopS6/ybKbzGMIlGJWADQ2lKEgai1JGhpRl99CRSoaUlBQSH9/6Un0Kq8Sffu+zIfiCQ3ltPqvl4aO2NPbWujK983OCrC9fKVaVca3NPhzAWuBs3wLqAKkQJSwBweHvJGly25mHlkODljgJLa1DrEtLLPv1K0LBVGW30KByg+ty8POhbzy/9mPzaPX9hSEADZBLQ0VdFtIYOGmBQzsFe+NDmw/T7VWlCG08K9OVuCMwxkMC7BgYwHiHFOBh3iiwZ0wIY+DxG1DaGuHhe0B4q5Pauc2VJYWRlp+CwUqOqCvJRRxXkSfv/I02tFZSHdnELHWSS38COWtn1ySccTioIcTFrY10+UM7LURzrGYv62sMI+yGLuaweWoRrZC23ZbMCrLC/kcqOUQRcKEfBUvuzmyLjBRLnzksKgVSBXK57bwARZl+S0cqPzAcQE/doG3tARcHoq/8PGF1L6vaNTAwk/WMS38Dsk/Xb84M2DFUWpj4awmuvyCttDAYvmsqozXPrVF4nQ42AHFAgEe/qTxmldyRB5JeVgMy27VWJu1ekKxdWMz1YbYE7sqI2uqEZbfwoHKjcSLQ4jSIrxIxMMwwL3p6kW0o6uEgX3CdGO4DE5BuWz4QeZy+sfrFgmwuG0ZKcExMCCOYnrhrEa6/D2zQp1j8bAX5lwdp1vQ0DqH1rq0ucm2Y9hOfVEKy27VZhkP/XDssrJjz7Qd/dcq4Af1Ba6coyy/hQIVT/IUcnTiRSILqA7HAPZ0BhYROzyw0jnTSe0oCbC3XLuIVn9/E/3pz5vhj+AETI0T4BW4YwEDe9n5MzOOWDyWWcy3JtbhqFTcC28LLZUpZcBAjSiuLONXJVKW3zAh7zlIRBY2YE/1TA3K0tqkfrShsaY40vJbKFDRUfv+pgXT/cqfADvCUIzGWzCFRseYh1cP7rxhKX3zgVeHBRZOhby1ozaI5mcILJbdKuw6qrgcZo1tASClHuFBEC3Q+hGt7rffMCGPiXkkyOBfKDGFHejxFhuh1Q6kkKIuv4UHlYfb4V75+wc+x+7YVzz8ORYd0x6jh4biCwV28u2fPJ2+eX8QsOoEB1B4AvpiI8HANtBlK2eMaiiWZTcGQNwLJxsbDrAuuyjWRpq2CgMAepffDvQe5UkEfYrCaZdRRhYEJrqBhAmIKG+/hQOVtWxkpjWQWy0N58Z98eMLAoG1ADidZm8JT3st736u/uRC+oYPsPCt6CFHQp1KiNNh57SZDfwWd+uIQ/HWHXuphedb1QbswOtiFCwYt7uG5n3TRtterJu6l9+O4m03M5yLLGzArBgUo4aG/fSEh8qjrJOHAxXt0B6DMCRaLf+Gp53/wlXzGVifq2LWF6eIvtIwBLOm2/K29urrF6QDa2VcNlTX2pFWCbAfO+9Eunb1yFOKrKkVW5vIpW3aV6Uhw5T5cInQqW+/HeLJDJ1LNj2RzNKqD92g1MSPtHQfDP9OTXhQuUVO56ST8Im7w0n681fMp/a93osn00X4CJbsv6GNLvOreCi+7br5acDaAwIGku0wbTD2sHeqROw7AoGVZTdePnPbYYvaLtgWGu0DTz9oMRL2kSY0lPksv0HWyqTriuKwG7U9rEhAYThQeQKFm2k6qnSywykdgBj/YYKifS9PUPz3E9IUR14c5bYHaWtbbeEce+u1pwmwz262T6+LYSOrvVM9pmETf2KbgZ1RT5euOIGB/U3aIgCW3Updk/lsFY2RjWaydQCUEmPX1gGeO/XyA964gpVeGVl3+Ug0lt8O9XtnqUbScZeHAxUWuK+mu3JEOnvcCUkoR4dEUB286opTqJ1nnrQcPGiJoEcWBWLF5qyAiL31mlPpTy/rM7EWMFGHFTEGPaWT5eCQAPvRcxGxXmCx7IbhTutjQalTbQiNfdiWImPb1GHLJzaUOstvdtnNyotihhtZfguPKeFwCpXgKu1sssNiiHdRprSlIAtOgj532Tz67TPNRkKE0+XFsWpCHKfG5Kr4X/52Pr24jV/Jt/UYu5rZ+lCVcLQeQ586s44LNGK/+6UVVF5eTr28bCa3H7ZOq2dyVO2AalptjDp9wtUvlu+QMBGPWySrI8wMN1GX38JFKrSsM+EMOAD/oLUAO4ZCOXplZJg6Z+FELbfyyN0fETc80UuWY1pu0Zwm5qo92FXzydzWre0Cn//QCP6c0lpHH+FlQxux3fzWWq3r+VytWiyCVD3kqAVsVzuFyzyA0GWeALTLbtCNkqIsv4WOVDRYHCWEdE/7gE4LBUc6hQ5PfaMS4iARsTq8o0rp8lZFDUBQZWx9bj2HZiXTBmWpkVP4HIv9Cz7zS8Ltx4fOwbwvqtZyNy21+Nhw26vgVZVXdvbR8useEDsnn1gjeZTNhPpSWnnDw74mMDJ89wuL6cQTpvqWF3BHkj3xFUlnXnPrL+m9Z86gcxdOsa4VMNTQKMCESa5WfWVyNw8l8q+5FBkeCjx6pvmWB1kkkVKmOU6snlMqbZA9lwusO/z0IYuk4mLccyBo6dhv7/jhK3TFyql03lmn+lYWOlLRMe24cRb2jBOlJikHpYSVgpCKORzxkvDcssqAVTFhahNZYzWAdsmLDVufailLth5ALJiOlNU1ufA9tNoAP9dSaFClIxYguN52mHPtrhIOdFbW5jDg0C5ZVVbzPoBKsVam9Ti02kDtygoGU6tOVmQBFQ2twLFhmonGaptMfbKTo5vwoHLn5M84AX023RbCuJRpQ9ncOsLZV0WRUgNiV42l6LIOkmwdWvXBNSyRUBmV9sgnhVheSrz1JRVTgFVZWMz1FBpUuFucwn21rgFhYNB+s9OkzObgOrQqioQaUF1V8Oo5zld9NW7qsvI2lzp0oyzZOgBKiWOPy6yeyR3brn0Lvi3L9TwcqNJh7hrnSirhAGqBszm84NAuWVVmG8qDNcNKyjsAqA0x5ZYXBaPnodWSGxAP7WPDNBMVgfQcCMI4RjbhQJUeGwi4/w4UFjibi5wtFUGXrHpISsWHFphkbqqBd0XYI+vRUUmVYtrKm1xKLS+PwRQn8SYUqI6LrdM4Vx+b3Fq3fOPIJCjJA8I5JKyssWntCSBpQDhcqHNK1i97xoabTtbNlNHRctlic8xGpjTetQkFqvpYPANPGL+aXL2jPBXkLctacYdO0XODaWxI5pY3YJiMi5M2VMVUghLHHvOsnlOshBdcpxCmjukUClR+PEkcJY6zoMINDs0Okn/NpcgFju675B0AlJcqb50vbjcbzWTrAAg9pGBArbxIeWRlJ082oUAVlwBAA0YqmFLugAh82ZmKgslSIkwNiks9sh4dteps7YFg28AFtj1+NkTP2FNadkDmXQoNquMJgCs7vJV/zcHyOFcYRtYCYnipskm2lXckgBx2HADdtKc+EbOyIoWNJAu+3c+3PBKo6hwFMenQkcGEE9Xnxul6NAhXMQsPpthW4yDNMWDqMQeEFOTxJjSoCiK27DD1mYc20IpX1cfGsUlPu+TZigqpKQ9t9FIAsdGWrD9pI1mFv24e4yldCw0qvJ90qJsWbiQwBZQkMqGHWgt8voOY2r/QoIrDPMAOD+bTGzvp8Wf55z40eFztSGM4Zd7gDJaDgo10R/kYIi4/bzJNbDRvsmeh3eFANf6151TZZa/a3LbLvf8CP4IyY0o1P3lQawAw+KpQiq4wxYwF1j0qQDMIxGMtOn+1vpO27erNKqjhHmexqMG5oFMABU8jGeUAQEHC9yPMnlZjnuGxeqZcZEQTFiUZNa2Fi/AKf9vxVfIB7U6ow9bj5qfSFfzui7WRWjbafTy8DRsnTuJHS0MmPDEIG3gUJtsptEULlsBlvO+leU8ZwFw/zOg+MEAv7zxKy0+bPExfRDGt/MXtXbR150Gx1ZuoprmtDWkyIzGeeH4X//7MIG1qP0jTp00lfGVOpulnv9tOH1haRr95Zi+tWDYn+eXPozQEf/z08S30kbPqR6mRmVhoUOFZGxmKnQIBsCUpUwAw6Eo2wO+CnjilltpOyBwQ2H15q/5kCABtO6FR68pg+/qeQ/xKQw+/0k80b2azfMV6Buoi2rLhTcnxrdwntzZlqi7ytfzDRmOVQoFqYJM2KXbKEUBTwDS7LKtw2wMhSoeyYSNK/bmuGwpUBCPAss4dDZjiCFd0h3WMrTOs/ttBLxyo8AwAsuiCshFqvebe10Io2dI4H0MPhAbVYCZAeQD1ARPRZXGNI20M0TSmQ4MqkSpISbyaILS0RqQXQAtsHK1jDWt4UGXwZYB8IhONdgOapBVQvD44tWVfxn3DLY1tMOgwCXXPnaKaG7Z0hrql2d3JPzEyS5/C37h1b6hbmq4D/dyIyjBdGFHH+mhEwVQBgyWzg6PTggkJO/w28k9fHd9wiG9NXvOYtLIeZsoOGosbdqTNO3po8yvBv10qQj6bqfWF/JZbBS1qq+WZnDepO/Nji06foW47d0ETbdvu7YdPlb6sc+aNDaCoLPyMkgQpwAKhuQUGuXwETC0X8AVZfZHY3VOr5+b50ZgNsslNW95ocnybChLe/sYnTMLvkSPJDymEMQBdfMPaGKXwkeoC07bNDQ7DChw5AWArQdTD3zG0ZXcBLTt1epI5SgpDbnvHAZE+MFhDc2dkPoHx1J93sUMHeWbqME2ePDnU8Pvztdvp/YtLeEapk961ZHao4ffB/91CH1yWazNK7FoPiAa5dDCTiEJ+gGdhpk/GjFLms0FA0w65ADSMDTuj1MtfiBV2Run3Zkapl9/2DjujVLkux2aUJFQ0DB1gg8BUrL3Aqn68HSsPRBh+NVKDwESD3YC6o3qsOhPbVQ+EBhXqQYDGYI7v4RUBVB5SGT0vgAq1bLVgfHv3Nq09JKgKph1SvcAmz59vU5+Oe7fD3ahJsxW8MIDi15XCJFw52+SmLW80ubvuqL8qMZr6xkMmZKTqRVAyUpPOHqkT+M6i557ZQS+8lPlMDL7AYsVCXZT+zVMv0a+eGH29tl2YtFixsJlOa62h7z/4J8vOKMevPBHV0xknN9BX7l2bka4VntpSbsms56FBlcukkOdNODVqumBJSyQTmA16/xkTItnAARrVRqQGBChHADXAYgC7mR1w7yOvyydA5G3LPmNudmeW3jJQcUTn4lGdj0dShAulfHRHfvQpBjU/cPT0IgbV44782IlBzQ8cPb0IBWrmd4eeOuOdMfZAKFDHuE2x+YgeiEGN6MBcVI9BzUVUIrYpBjWiA3NRPQY1F1GJ2KYY1IgOzEX1GNRcRCVim0JP6D//yn7a28O/+xynt9wDXSP8ZFioH0bY9urr9J8PbXzLOxNXqB4oKymiVdecJb+r4+eTUKD6GYp5ueOB+JyaO1hkrSUxqFlzZe4YikHNHSyy1pIY1Ky5MncMxaDmDhZZa0kMatZcmTuGQk8+ZLsL3d0H6Kt3r6UbP30m1dfWZtt8xvbQnpv/eS0daR6gb95wvnNP2NvbR1+/ex2t37WH7r3lfKKhApF7YV+v1FFZnqBvr1pCrccfT/f+4A9075OvC//6D0+ky1cuy7gdYRRyBtQwjR9rnQp+iH6ov4Te2LNHQEJ9HR3dtKP3ME2sTL403MC/tbvmpvM8B+OGF7bT0x276bG73icHxAMP/pG69+/3yIxV+3Me1Nde202rvrqeduEniTnhiL/krIUSLY9s2uv45c7PzKbZU6f5Rs3Wl7ro9p9uEdnlZ1RSa2EjzVlYTUtPnkuIvP/43tN00UUzHOCs0XL+Ct65s5ro6ZfanbLNmzvogndNovVrd1mxUeWXXLxoVHLZEMppUDEEfve+Z+k7t58tR7gF4KH+DXSosZeeuOcSQkT85JlNAhAc8q1/fa/jFzkg/m09HSntpzVfPd+JEtH5o+og8vYO9dGUFv/XOE5ua6aH/u9l6lveJ69tbm3vovNXzvKA2sVfEnPRjb+WemfPKpbhet4p76B3PtchP2z7Vg69aEROg9rTw1/Ns3vQcZhF6+Kq4Os7APapu561opJff+FkB1Awjp/WTAW/4K+p5eEQkTebv34Hv0/ul2ZMb6HW2k56/pWtVDVUSW8UHabG2mqPqN/wC4Grr1oiH5xb33PD/c651qM8Bjs5DSr6O3NmCf3gupUep9shefnvH+CvvdELE8iCf/f9L3BU6vkN+1fc/hSKPKm+voa/nraJntn8Kr24Za8MvR6BlJ3T50+gn3BkY9i+cNG0lNKRdwHuFP7CZ/cwPrJWeIngQz68zaxp1tVVUX9nQi5U3EYRXX93fasMv7+660PO+Q4yTS2lVF6qFzGQQ3rgsZ0SlbJjNgDq7p9tG3botfKI7O5NCVqzoZ2/Wfx4yx42f+yxF2jdxhcdmTf4K9VnTM7ui1CO8RQipyLVfW5qqhuSW4ZPf2IBreLz4q7e9dJ08D/9gTm06hubeB8fInsemz59Ii1vm+L8QPvsuRV08RK+NB0qd4ZwXCjdfvUFMgRPGigddugV47xBZC88qYmWTqqTYRznendytxt8XLQtXvwOuWhbtU/biHqvPnmJW23saH5x+JhL3/v+usTTGzZKuw8f7k38+7d+m3ilvT2jfnR17U989paHM9bLqJJxEs6pSB3tofvus6eb25xkFOBmP5O0o72Tyk4o8Azdmejnsmy8SJ7L6IRsW05fKIXs09teLQY1Dw+BGNQY1Dz0QB526ZiPVNzk//AxnTXCdJylo2AVxQ5msW6+6xHq6+tLa8JwZWnCERjH5C1NUH8xHZdpsosE7lWaMHZsvZjFuvCcaZ5pTVuGyZGTJjR6lvJsWTbzcQHVLkCnLiw31dTTvff/gaYf10hfX7Nd+okVjgsXn+LLT110RtR20AFZjAbtXm777MVnpi3L3XnDAnr45+30yKZ99ODz62n5GRtltsnaOaut1bPsh5kiLNeh/WgnZqoe/KP+RBjKTm1t1bnkOTMcjNwL5ZgN+8DSaWM+BzwuoGLaLXWJ7J6HnqNPfXgRbd1yhFqm6bIanHfH19bSrEm7ffnvnLPDcZ6bwDD34JPbnYl9W5ZW55rn6MZrllH5fc+krafu6Rmkb33vWfry5+bLBIVtS0tdLeHgQzuXnltBT1x/iSwk3MO2pjcfR/t6eqmpjqcmOWHFaOvQPpmjtm1A2yCLpbyglSErGzYfF1DR2NQlMszfImEZ68Kl84QG+Ced2ERvdh/05e/p0R/zE2HXBkPgsjObPcttKA6q06XqkFs2H6JG14yTbQvqBKjudmLhoeAAFh56KFFT4CwoyELAfYm3dNkNHRgXUHG0pi6R4egdyzQeddoRKflc0zq66aoFY9lNsT1uV7+pS2QdffoGHVY8frFugzQOQKzfupvm8gWGHz9oGaytbQI99WRn2nJbUJ1+Xp7Zxst+ryZo6w4d4m1bguqEjca6SonYviPetwEr+GGnL954Nl00bxpt3K7LgX51Zos3LpHqt0Q2p0F/RAjD2subBmj5Tx+QPuICBE8a+PGDnjqE/cWtE9OW21KX5VBnRXkpzZ3ZRFfflrxQQsUtdcW04pI5wida7yzGo06cX/1SeVkxA1vBr3j2yNDvvliDPJbflpdPoeK2oTE7n0q7xml1yLdaLIfdfMfDia6eHk95EN8jlCM7jz7658R/PfpkYGvu+/G6MV/uG7fh1+9Izwcehv5Nm/cHTj78pWNf4ENu2ep/vPSWLU/mkJ04UnMIjGw1JQY1W57MITsxqDkERraaEoOaLU/mkJ0Y1BwCI1tN+X92np8zaItLoAAAAABJRU5ErkJggg==;" vertex="1" parent="1">
          <mxGeometry x="230" y="415" width="117" height="146" as="geometry" />
        </mxCell>
        <mxCell id="omp_RndTsjfDc7hUTQ8i-7" value="" style="endArrow=classic;html=1;rounded=0;exitX=1;exitY=0.25;exitDx=0;exitDy=0;entryX=0;entryY=0.25;entryDx=0;entryDy=0;" edge="1" parent="1" source="omp_RndTsjfDc7hUTQ8i-6" target="omp_RndTsjfDc7hUTQ8i-26">
          <mxGeometry width="50" height="50" relative="1" as="geometry">
            <mxPoint x="540" y="600" as="sourcePoint" />
            <mxPoint x="650" y="476" as="targetPoint" />
          </mxGeometry>
        </mxCell>
        <mxCell id="omp_RndTsjfDc7hUTQ8i-8" value="3. SAC/Interface sends each transaction" style="edgeLabel;html=1;align=center;verticalAlign=middle;resizable=0;points=[];" vertex="1" connectable="0" parent="omp_RndTsjfDc7hUTQ8i-7">
          <mxGeometry x="-0.1121" y="1" relative="1" as="geometry">
            <mxPoint as="offset" />
          </mxGeometry>
        </mxCell>
        <mxCell id="omp_RndTsjfDc7hUTQ8i-9" value="" style="rounded=0;whiteSpace=wrap;html=1;" vertex="1" parent="1">
          <mxGeometry x="217" y="750" width="333" height="110" as="geometry" />
        </mxCell>
        <mxCell id="omp_RndTsjfDc7hUTQ8i-10" value="&lt;font style=&quot;font-size: 16px;&quot;&gt;New process&lt;/font&gt;" style="text;strokeColor=none;fillColor=none;html=1;fontSize=24;fontStyle=1;verticalAlign=middle;align=left;" vertex="1" parent="1">
          <mxGeometry x="193.5" y="290" width="170" height="40" as="geometry" />
        </mxCell>
        <mxCell id="omp_RndTsjfDc7hUTQ8i-11" value="" style="shape=image;verticalLabelPosition=bottom;labelBackgroundColor=default;verticalAlign=top;aspect=fixed;imageAspect=0;image=data:image/png,iVBORw0KGgoAAAANSUhEUgAAAHwAAAA5CAYAAAD0i09hAAAAAXNSR0IArs4c6QAAAGJlWElmTU0AKgAAAAgAAYdpAAQAAAABAAAAGgAAAAAABJKGAAcAAAASAAAAUKABAAMAAAABAAEAAKACAAQAAAABAAAAfKADAAQAAAABAAAAOQAAAABBU0NJSQAAAFNjcmVlbnNob3T7omuoAAAB1WlUWHRYTUw6Y29tLmFkb2JlLnhtcAAAAAAAPHg6eG1wbWV0YSB4bWxuczp4PSJhZG9iZTpuczptZXRhLyIgeDp4bXB0az0iWE1QIENvcmUgNi4wLjAiPgogICA8cmRmOlJERiB4bWxuczpyZGY9Imh0dHA6Ly93d3cudzMub3JnLzE5OTkvMDIvMjItcmRmLXN5bnRheC1ucyMiPgogICAgICA8cmRmOkRlc2NyaXB0aW9uIHJkZjphYm91dD0iIgogICAgICAgICAgICB4bWxuczpleGlmPSJodHRwOi8vbnMuYWRvYmUuY29tL2V4aWYvMS4wLyI+CiAgICAgICAgIDxleGlmOlBpeGVsWURpbWVuc2lvbj41NzwvZXhpZjpQaXhlbFlEaW1lbnNpb24+CiAgICAgICAgIDxleGlmOlBpeGVsWERpbWVuc2lvbj4xMjQ8L2V4aWY6UGl4ZWxYRGltZW5zaW9uPgogICAgICAgICA8ZXhpZjpVc2VyQ29tbWVudD5TY3JlZW5zaG90PC9leGlmOlVzZXJDb21tZW50PgogICAgICA8L3JkZjpEZXNjcmlwdGlvbj4KICAgPC9yZGY6UkRGPgo8L3g6eG1wbWV0YT4KpowKQQAAEotJREFUeAHtXAl001XW/6V7mqZ70y3daEuhCy3QDSiCIIifLIMDKoKKDsKgOI5zdM6gMo6KcBz8ZBAHR0DO5weuOAIistROQWiBFui+QBeaLil0b9MlXWjnvn/4p0nadIEKjeSdk/63t9x3f/fdd99991XQQwnGdM9wwOSe6amxoxwHjIDfY4JgBNwI+D3GgXusu/fkCL9eXXuPwdzbXTN229zSgorrdRiKue7t7gyhlRUEAkFvLaP4LqugBH8/cQVd3T04WtiCxvZuvDZdgrcej4OZ6cjIu7K9HQWllUgrqUVOZRPCPcWIDnSHv5cHxyfGX1NTU1hZWo4o3y7mFeFIphxiSxNcU3RgcYQU0SEBMDHRj42ALcvKKq8jMbsM3bRCeyO+DBWKbg7C16a7IMDZmohUIXoouwaHC1oR6W6B56JdsWJWBCwtLEYx3NqkxbxzBKnyNqyPGznAT6Tk4F9JZXhppi/GejrDhJhVVlWPXckyFNcrsSbGA386IsPhVRMxIdB7xAD/9Hgq/pZQjqSX4+Du4oCxbxyBrLET2X+OxXhfT73tcCPcy90VT9GPpR3nqiBvbgNbnT8a5atF5Mq5Km3wyhfnsOZQKTYlyrF3eTBiQ5lUjcxo0YZodD+9fyAZXTe68c0f5mppC1cXJ0TSSGPCsOCzfHTc6BmS9hxqb9nIfuFwKb56PACerk4wJd67iMxQSoA3t7UTdj16AR82SjYiEbY+OQ0T3axwtakLD+7OxvW6xhHt0FA7fjfzZRfSqM2rx4vzo7XA1qRpbnQIdiz0hvkAKlYz/1Dv/3q0gAQNmBrsy2kUVi55/YOQvXkfosaPGXDwDRtwVjmbw5+aRJJFqr65oxvr91/gJJ19u1fSlvgCLAq2h6U5pyT1dvvp2RPhYWsK/bOq3qL9frhaXon/FLfCSSiAWGyjHslmZmaQuknUz/0WppcDU6uvFL13E5PhxnWDjKGCJtwgo8jcdIACv7JPp2TNCHSyHLRXDIgt83xgZzMytk5plUqbSkiF6xut+xIucgMw2t8N48dItYRAX5lBOyKxZZa6KltVaw/alEpu7hi04K8kQ2unAN9k1dOcOXi/l86cCF8Pdy3G3yobyupbOD6Pd2EWf/+1rDlUhme+k+HMlUpuIGrmumXAS+ta1fN2mIsFrIXCEemQJnGj+X6GtxC5NR2Y/M4JXMgrRne3amXzS9NcUksG9W00csuAl9SpLHnW9qNhjtx8fht0GFzRGf623Hq3uLEL0R+mIXD993j/QBLS8n9Z8AtqlSRctw75Lc3hzJGw7VwN58yI8bDEywujOEuVvc8sqsAFckCcL1VgdqA9fJxscP+k8QM6A5jn6+dcGU4XNcDeyhQTpLaYGeoHJ0d7tbFzkUZRTnk9+Qq60dDWyQnIuvmxUCgUOH+lDD9mX4e72BJBbjZ4OCb4lvwDXV1dKCq7hvOF13H8cg1C3UTwcbTGwthxEOlosOVx4/FW4nXUtKhoYcC/erwSoJ/EOg2rJjtjwQSPQR0hrCNsmXWJeHaS+h/nZ4tQT3vEBPvDwsKc62ddQyOOXCgk9dyNnCrVCM+rbsdn8RfJbhIQr6TwcXfD4bNZqG/poPmbTHhKPxXUw8zkIlnywMORAXBxdNA773MF+vvD5upNBy+gUXkDTJXvfy4WIitLXL5ajpC345FT0YA18ybj83VzsTgmCB+fKcPircdQfq26T3WMwbuPpWLG1jPwcBDjHytn4rXfxkJsZY6gd05i308XuE6yglJnO8QEuOLrzBq8QkxNlilQS4x4++AlBJHDY9szs/BIpC92na9EzLvHiYnFw7IpmLAu+2cCPky4jIXRgdj3wly8vCAK8kYlIjfG91HbDvZ2SFwbAW87sz5TGbNpNp2uxpR/ZmDhB8dQVtm376xPTNCXbjuOPUkleGiiH8ezR6jt79Ircf97x5BPPGVramuhFaL9XREb4EbrbWbxC+AsMuGe2TsHstZZCvN2QaBErJ7bAxxZOQmXT0R1sLoGVOmXK+u4RvOLy8B+H36fjMANRzlj5d8rApH+9gJ4ubvgbNYVTHj/PNbFuOCZuZHq0cWYsmtlLI5fbcOSnefQomznCOP/PLszEb8/JMPeFaGYGqZy3jD344PRoXjvQQ/87oAMHx9J4QwP5swI8pPCxZqUEhFe2tCBj45nYvOyafDzdOOYzr4feHEWGsh9OvPjdBRUVA4JdAZ2zOYE1LV1YevK+2FvZ8vVx2j544Jo0hxmmP1JBgrl17TqCw3wQcor0/H3Oe7wFBMQ/VhRR8idG7z5NEp1QGdgh9D7yzXteG95HC2pXDi2sH5uWTEdXQRN9D9SuD4wbybr27gxXpCImLXfQ3ygQeHnyb2zEzOQBfCTumOcj5t6be7rJMQ4Py8uD29jDQh4YkEdzhVeU/8kNpY48fvJKNi8CAunTuAqZiN+1df56KR5Zf5EH/L6aJuODHR/ezOkVLbji8QM9Yg9dSkPX+c0wcfWDGGBvn2YtWCyP9kFAqyPl5Ofv4aXEfX1vLwdC8l3bHlT7fEfGEjLJzhA2dWDNfsuoa29g/+k97phfwqu1HXi6cmuRL92Nrasmuptg7ZOVX2d5DXTTAygVx6ZivIti5H0fBj+EudMalSbB8xX8fCOs2hoJkOXhJWlP3+bRlNTF1bHSGCl0wfW5upoCZTU5hvfZaGTvHkjlXS6p13tojA3PP1AJFbOjeJ+j8+ajGB/bX/w7vg0FNR3skEHFwdb7QpuPoksVM18kV7FjVb2+tUfijghmRNgwwGrW5Ax0tXGFC3U6U/+k9vHsSOxFvQrKKyeGQFO3Lx1skSJnGKVWtStn38uv1aFf12o5+wRqaOIU5f8N/4qtGCmTg9YfY2KZjVo/Hf+OiVsLDavmAnF1vk4uToEy8Ns1cZsdnUHLl2WcXxi0983JOxMdiK8GK3aAsLqi/B2JLsH2J+rQO4gfeDbH8r1low2zYp/vNxAhpTqjctfTmh+6nN/UqZER2cXOtqVyKzq4DrvRKqpn/5yZSXWppx/OKGoCW/ebIOv1FXEyvVlFPtuadYrx3kVdZg0zq9foWJ5z+ZXcJtG7H72rhz6y376U0llDZzsej1c/eVkWmYGGarst4HAXfzpJeTXdiC3shH3RfQgU1atbtNGaNFv/23ILuIdWyx/WIC3Wnj6a3Oo724b8AuVHdyoZQZc6pvztZitj4isArJmh5GY+maCYmHW660aR44HHc2prtFRzPsEepBc0ohlJCz6nIDpcoVaYNP+FIXwEdzRYgSxuffEOgsEbjyD1NImrCZVmF7RpG5TTfQAN+kVCupDD/WhfwEfoGifT71Doc+nwV8wY0fRrloCXKVlCT8/DV7yl81hQXMgU8Es1bXdGJCu8kamaXTUB1dS/x+2uqhvbBqyA4T5uGOlVhjrYt2v+tbf0sh/uS3A2c4ZM8iYZmWGyVCTn4fKIh1qfrbWtxhkk0JfXWGuAzM5ystG7SNQbS3qq6n3vaK5Bct3JaGza+h9dhaaIkhCNgLxKsKTnDbDGKwRFFDR3zzfS9HQ724LcNbMnACxen4czJ+++5hqicUEZYJENXfVtqoMvv5Irmpl2kOA2cyrpcOganJ46BuZsmraYLg5aCdI7fqdI/n2wtzt1MysbSa/+ADj9tTFPMhoacYCRRLJHiksk+ulga+fXZlGOFWqRIA7GWKE+AQfF3WbzW0qW0YzP7tvpiUsT4sqv26OW3u+bcBfemAc7Mg7xtL53BI1o3XJqScnSX1rr9rftngst08cX9hM1mpflcrWqdebb0BkLsCaWcF99pyZAajPYr5SpeBgG0NOkdmTgrgAAV16+Odp4YGY4qmyB1JKyADlLVA+g8Z1T0oF3CW9YD27Nw2NLczF3Jd+jWJIyijAslAxQvy9SPgE3Ly+MsKeW76ll9WqDTjNMumldUQLsDRYjGCdHS/NfMO9v23A2WJ/6/94cS6+PefL0d6hcjVqEsJivl76MgXLpgaqgWNLmOejnVCquAEWd6bLtMMXizhB+OAhKRfVoVkfu2dgbjvK1vV9mf1tVi33/rMngmFtqXJP6pbnn9mad8+Tk+AoNMNXmbWoaeh/bt64PwmrpngRSL0sY8bk6j2nUddIAqYHdLZ/vfZAATYsjtRan7+7ZDI8yFmz8/x1KHV4xjTCzpQqWJGwb1kykYxVfSYn34veqyP5PQQCFY3tLEriZmLuWybMpn+jdCG3CPFpRUgvkuNQXh2a2lVMFJvdQE1tLTLovdRBBCG553Q0K1dd+BgP3OcuwPbka7hacQ2+1BEXRzsCvwNJmYXkZEjHGw+Np6A+7S3CB8gHLDVvw6uHizBJYgopxWaxMgmX8rH2oAzfLg/C0vsitEbogdRiZFW1Y/YYEZ6L88OniTkIIGPI1kYEJlgfH03F4fxG/PxCJKKCx0BeVYOD5/KQVliB7/PrQbF+NAWRIdfaiMxiOalZB0jIx7w01B6JV6qwO6kE0zytILa2BBOGS7QZ8tbBNMT42GNu1HiOFiWp20+SZDi5Nhzu5Opc+00W3C3aYWXaQ/vebJ4WcK7mHScy8EOWHF+ujoOjncobxgPAgkieiHBBSlEVLQ3LEe4h5vrANNub/06lYMtOsu6nwttdAuZL//ZMDteHI7QMriTNx3Cw6lQg66oc9kITard3qZicV4JiciSVUkydZUcTPjt9Gd72VvDzcAYXxMgaaeDi2PqOFp7AoUSrMqs9Ib0Q+ZUKZFxrQZgrzdVe9phDapXfCODr07yy9gfbPOHzP7UjHl9kNeKR8WJ8/sIc1NXV4xRtvMTn1yKYNjsifRwR7u8J8U0GMJoGisj193KDuXmvFmBu4iu0Xj5xpY5GoAUmSsWYHxWkFV3CBEsmr8bYm8GCrI0DZ/PJ796GDHkLhOYmmOZnh0m+zhQTSGFIGlqB74fmdbDNE749fVrE3cWehKUXcEbPV6dzkFhYTxtYjpgVptpcYYLIAa7Z+Gi/1wXcXNcXOto7cJfp652Q7jIhxubvDAeMgN8ZPo+aVoyAjxoo7gwhRsDvDJ9HTSu3vXlyp3rCrySqyXnDXGfM08aCMpjRxjYo9O2c3Sn6DKUdg7HSNWPadJn7JO3Z6wZe6OYxPqs4YDCAGwEbGQ4Y5/CR4aPB1GIE3GCgGhlCjYCPDB8NphYj4AYD1cgQanCAl5XKsWrLIfo3Ja1opDCjR9fuhfWi7bBauB1Lth9EB20Jst2s1949CJvffMS9d37sE2TLyrgtzON08GH7j0m0fdqNnXt+gnixKs8HP5zh3jXQztRjz+9D3OtfoonCivmkqvMA/J/ZTefhG1AqK1fTwecxhKvBAZ6bW4Hl8wK50xhs98jZyRqy/3sS9V8/h7FNwOmcfA44aysKqvzwN2g7tA4/vz4LL+5JRnOrUo1JTkYhvpTVQr7vd1B+/yKk7QIKqFBw34V08sWWlvtltDXM71BVV9Uim47xBNpQgCTl8vL2xH0e9lp51JWP4huDApyNstTsKrjRyRDmfNFMVhTWO2OyJ3LpqBMLQdJMHt4SBHebU6ABnXzRLqbO9uhvp9GetR33LKIQ6HnhbkjIKVXXxQTtiXn+8LXtPabrSsL2U3ZvHnVlo/jGwABXQt6ghDP7zwc6TGXCcOpiBYLpIJ5uwJ+8tAq5Jp10woMO8N+UhZDwACzzcYLHik/Bq3PNKiND3JGRXY02Ov/NftnFdZjo3XuMh+UNDvZERk4N912z7Gi+NyjAFU0t6KDQJiGdteJdqTW1rfBZuRcOj+2Cc7gzZoapolJalR2I+sNBCBd9hL+eysHxDUsgFgm1sFj97ANQHFgHmyolpAR81tVStQoPJHCjnURILSpB4eVSXDJph6O4/5MpWpWO8geD8aXr4yM3h29aAGculks17llUHT+H+7g4YyOd4GRz+/0kDP0lBryPRypO5pXhidgQdZa4SF9sSs7DFBNLrJoa8Ktw3xrUCBfbimBBBx7aKO6NN6bU6Oi5EdLcvmJBCDZ+l40W+pdWfDpB1npiVi4F9qliy2XyRoRKHbRMA08fCboym/C/yWUIlnr0mSr4ugzpalAj3IoC/zwoGK+GDvQ50Ygeahoz1huzbQtQTla34OYkHh0bhLWvH8bD8gQyzID5c7ywMjgIrc3N6mrtyDicHemGODchaRBbKJpUVjyfgRly4SH0nykpuNNQksFtnrB19JXuDjw/b4pWNOvdYPj/f34KUdPHYJyX4WzPGpRKZ6COFsuYOYB+ljfAy8lJbUDeDaEbbpsGN8KH20Fjfm0OGNwI1ybf+DRcDhgBHy7HDDy/EXADB3C45BsBHy7HDDy/EXADB3C45P8XeJ9o7R7BWfEAAAAASUVORK5CYII=;labelBorderColor=none;imageBorder=default;" vertex="1" parent="1">
          <mxGeometry x="250" y="790" width="124" height="57" as="geometry" />
        </mxCell>
        <mxCell id="omp_RndTsjfDc7hUTQ8i-12" value="&lt;font style=&quot;font-size: 12px;&quot;&gt;PS&amp;nbsp;&lt;span style=&quot;caret-color: rgb(33, 33, 33); color: rgb(33, 33, 33); font-family: Calibri, sans-serif; text-align: left;&quot;&gt;&lt;/span&gt;&lt;i style=&quot;caret-color: rgb(33, 33, 33); color: rgb(33, 33, 33); font-family: Calibri, sans-serif; text-align: left;&quot;&gt;Integration Broker&lt;/i&gt;&lt;/font&gt;" style="rounded=1;whiteSpace=wrap;html=1;" vertex="1" parent="1">
          <mxGeometry x="420" y="790" width="120" height="60" as="geometry" />
        </mxCell>
        <mxCell id="omp_RndTsjfDc7hUTQ8i-13" value="" style="verticalLabelPosition=bottom;verticalAlign=top;html=1;shape=mxgraph.basic.rect;fillColor2=none;strokeWidth=1;size=20;indent=5;" vertex="1" parent="1">
          <mxGeometry x="850" y="380" width="260" height="480" as="geometry" />
        </mxCell>
        <mxCell id="omp_RndTsjfDc7hUTQ8i-14" value="" style="verticalLabelPosition=bottom;verticalAlign=top;html=1;shape=mxgraph.basic.rect;fillColor2=none;strokeWidth=1;size=20;indent=5;" vertex="1" parent="1">
          <mxGeometry x="860" y="410" width="240" height="380" as="geometry" />
        </mxCell>
        <mxCell id="omp_RndTsjfDc7hUTQ8i-15" value="" style="endArrow=classic;startArrow=classic;html=1;rounded=0;exitX=0;exitY=0.75;exitDx=0;exitDy=0;entryX=1;entryY=0.75;entryDx=0;entryDy=0;" edge="1" parent="1" source="omp_RndTsjfDc7hUTQ8i-25" target="omp_RndTsjfDc7hUTQ8i-26">
          <mxGeometry width="50" height="50" relative="1" as="geometry">
            <mxPoint x="960" y="500" as="sourcePoint" />
            <mxPoint x="698" y="500" as="targetPoint" />
            <Array as="points">
              <mxPoint x="750" y="500" />
            </Array>
          </mxGeometry>
        </mxCell>
        <mxCell id="omp_RndTsjfDc7hUTQ8i-16" value="" style="endArrow=classic;startArrow=classic;html=1;rounded=0;entryX=1;entryY=0.5;entryDx=0;entryDy=0;" edge="1" parent="1" target="omp_RndTsjfDc7hUTQ8i-11">
          <mxGeometry width="50" height="50" relative="1" as="geometry">
            <mxPoint x="420" y="820" as="sourcePoint" />
            <mxPoint x="600" y="800" as="targetPoint" />
          </mxGeometry>
        </mxCell>
        <mxCell id="omp_RndTsjfDc7hUTQ8i-17" value="On-premise / Private Cloud" style="text;html=1;strokeColor=none;fillColor=none;align=left;verticalAlign=middle;whiteSpace=wrap;rounded=0;" vertex="1" parent="1">
          <mxGeometry x="220" y="380" width="159.5" height="30" as="geometry" />
        </mxCell>
        <mxCell id="omp_RndTsjfDc7hUTQ8i-18" value="DMZ" style="text;html=1;strokeColor=none;fillColor=none;align=left;verticalAlign=middle;whiteSpace=wrap;rounded=0;" vertex="1" parent="1">
          <mxGeometry x="584.75" y="380" width="159.5" height="30" as="geometry" />
        </mxCell>
        <mxCell id="omp_RndTsjfDc7hUTQ8i-19" value="" style="endArrow=classic;startArrow=classic;html=1;rounded=0;exitX=1;exitY=0.5;exitDx=0;exitDy=0;entryX=0;entryY=0.75;entryDx=0;entryDy=0;" edge="1" parent="1" source="omp_RndTsjfDc7hUTQ8i-12" target="omp_RndTsjfDc7hUTQ8i-26">
          <mxGeometry width="50" height="50" relative="1" as="geometry">
            <mxPoint x="540" y="580" as="sourcePoint" />
            <mxPoint x="650" y="500" as="targetPoint" />
            <Array as="points">
              <mxPoint x="600" y="820" />
              <mxPoint x="600" y="500" />
            </Array>
          </mxGeometry>
        </mxCell>
        <mxCell id="omp_RndTsjfDc7hUTQ8i-20" value="7. Post enriched inventory transaction" style="edgeLabel;html=1;align=center;verticalAlign=middle;resizable=0;points=[];" vertex="1" connectable="0" parent="omp_RndTsjfDc7hUTQ8i-19">
          <mxGeometry x="-0.4098" y="-1" relative="1" as="geometry">
            <mxPoint x="39" y="17" as="offset" />
          </mxGeometry>
        </mxCell>
        <mxCell id="omp_RndTsjfDc7hUTQ8i-21" value="Subaccount" style="text;html=1;strokeColor=none;fillColor=none;align=left;verticalAlign=middle;whiteSpace=wrap;rounded=0;" vertex="1" parent="1">
          <mxGeometry x="870" y="410" width="159.5" height="30" as="geometry" />
        </mxCell>
        <mxCell id="omp_RndTsjfDc7hUTQ8i-22" value="Integration Suite" style="shape=image;verticalLabelPosition=bottom;verticalAlign=top;imageAspect=0;aspect=fixed;image=https://digitalmarketplace-sapcpprd.s3.eu-central-1.amazonaws.com/Z9D57SIRCyJdD7wzka96poiiQYdkutSd8nstUei0Z3nNeL2qb2vYszK39v9AmvLk.svg" vertex="1" parent="1">
          <mxGeometry x="963.5" y="675.5" width="56" height="56" as="geometry" />
        </mxCell>
        <mxCell id="omp_RndTsjfDc7hUTQ8i-23" value="&lt;p style=&quot;language:en-AU;margin-top:0pt;margin-bottom:0pt;margin-left:0in;&#xa;text-align:right;direction:ltr;unicode-bidi:embed;mso-line-break-override:none;&#xa;word-break:normal;punctuation-wrap:hanging&quot;&gt;&lt;span style=&quot;font-size:12.0pt;&#xa;font-family:Arial;mso-ascii-font-family:Arial;mso-fareast-font-family:+mn-ea;&#xa;mso-bidi-font-family:+mn-cs;mso-fareast-theme-font:minor-fareast;mso-bidi-theme-font:&#xa;minor-bidi;color:#427CAC;mso-font-kerning:12.0pt;language:en-US;font-weight:&#xa;bold;mso-style-textfill-type:solid;mso-style-textfill-fill-color:#427CAC;&#xa;mso-style-textfill-fill-alpha:100.0%&quot;&gt;SAP Business Technology Platform&lt;/span&gt;&lt;/p&gt;" style="text;whiteSpace=wrap;html=1;" vertex="1" parent="1">
          <mxGeometry x="851.5" y="380" width="280" height="40" as="geometry" />
        </mxCell>
        <mxCell id="omp_RndTsjfDc7hUTQ8i-24" value="" style="verticalLabelPosition=bottom;verticalAlign=top;html=1;shape=mxgraph.basic.rect;fillColor2=none;strokeWidth=1;size=20;indent=5;" vertex="1" parent="1">
          <mxGeometry x="218.5" y="618.92" width="261.5" height="121.08" as="geometry" />
        </mxCell>
        <mxCell id="omp_RndTsjfDc7hUTQ8i-25" value="Connectivity Service" style="shape=image;verticalLabelPosition=bottom;verticalAlign=top;imageAspect=0;aspect=fixed;image=https://digitalmarketplace-sapcpprd.s3.eu-central-1.amazonaws.com/DSW4zoy3YUwLmE7RK0BMlBuldrh4OHbg-4eZdXrtxcA-Axh14G7QL6EPuzQ1UJwf.svg" vertex="1" parent="1">
          <mxGeometry x="900" y="457" width="56" height="56" as="geometry" />
        </mxCell>
        <mxCell id="omp_RndTsjfDc7hUTQ8i-26" value="Cloud Connector" style="shape=image;verticalLabelPosition=bottom;verticalAlign=top;imageAspect=0;aspect=fixed;image=data:image/svg+xml,PHN2ZyB4bWxucz0iaHR0cDovL3d3dy53My5vcmcvMjAwMC9zdmciIGlkPSJjbG91ZGNvbm5lY3RvciIgdmlld0JveD0iNC4wMDAwMDE5MDczNDg2MzMgMy45OTk5OTkwNDYzMjU2ODM2IDQ4IDQ3Ljk5OTk5NjE4NTMwMjczNCIgd2lkdGg9IjQ4IiBoZWlnaHQ9IjQ3Ljk5OTk5NjE4NTMwMjczNCI+PGRlZnM+PHN0eWxlPi5jbHMtMXtmaWxsOiMwNzRkOTI7fS5jbHMtMntmaWxsOiM3ZjdmN2Y7fTwvc3R5bGU+PC9kZWZzPjx0aXRsZT5jbG91ZGNvbm5lY3Rvcl9jaXJjbGU8L3RpdGxlPjxwYXRoIGNsYXNzPSJjbHMtMSIgZD0iTTI4LDZBMjIsMjIsMCwxLDEsNiwyOCwyMi4wMjUsMjIuMDI1LDAsMCwxLDI4LDZtMC0yQTI0LDI0LDAsMSwwLDUyLDI4LDI0LDI0LDAsMCwwLDI4LDRaIi8+PHBhdGggY2xhc3M9ImNscy0yIiBkPSJNMjIuODE0LDE1Ljc1MUEzLjc2OCwzLjc2OCwwLDAsMSwyNi4yMzUsMTguMUwyNywyMC4wMjNsMS43NjctMS4wNjZhMi4yODcsMi4yODcsMCwwLDEsMS4xOTItLjM0NSwyLjMyNiwyLjMyNiwwLDAsMSwyLjI4MywxLjlsLjE2OC44OTIuODI2LjM3N2EzLjEyMSwzLjEyMSwwLDAsMSwxLjc1LDIuNzI0SDM2Ljc1YTQuODc2LDQuODc2LDAsMCwwLTIuNzkxLTQuMzE3LDQuMDQ5LDQuMDQ5LDAsMCwwLTYuMS0yLjcyNUE1LjUxNCw1LjUxNCwwLDAsMCwyMi43ODIsMTRjLTYuMDM4LjMyLTUuNCw2LjItNS40LDYuMmE0Ljg5Myw0Ljg5MywwLDAsMCwxLjUyNCw5LjU0N0gyMi43NXYtMS43NUgxOC45MDZhMy4xNDMsMy4xNDMsMCwwLDEtLjk3Ny02LjEzNGwxLjM0Ni0uNDQzLS4xNTMtMS40MDhBNC43MzMsNC43MzMsMCwwLDEsMjAsMTYuOTI0LDMuOCwzLjgsMCwwLDEsMjIuODE0LDE1Ljc1MVoiLz48cGF0aCBjbGFzcz0iY2xzLTIiIGQ9Ik00Miw0MC45MDYsNDEuMDE2LDQyLDM3LjU3LDM4LjYwOWwuMTEtLjEwOS0xLjAzOS45ODRhNC41NDMsNC41NDMsMCwwLDEtMy4xMTgsMS4zNjgsNC4xMTIsNC4xMTIsMCwwLDEtMy4wNjItMS4zNjhsLTEuNDIyLTEuNDIyLTIuNTE2LTIuNDA2QTQuNDc0LDQuNDc0LDAsMCwxLDI1LjEsMzIuNGE0LjMwNSw0LjMwNSwwLDAsMSwxLjQyMS0zLjJsLjY1Ny0uNzExLTQuNDMtNC41MzksMS4xNDgtMS4yLDQuNDMsNC41MzkuNzExLS43MTFhMy42LDMuNiwwLDAsMSwxLjQyMi0xLjAzOSw0LjUxNiw0LjUxNiwwLDAsMSwxLjctLjMyOCw0LjcyNSw0LjcyNSwwLDAsMSwzLjI4MiwxLjM2N0wzNy45LDI5LjJ2LjA1NUwzOS4zMiwzMC42OGE0LjE3Myw0LjE3MywwLDAsMSwwLDYuMTc5bC0uNjU2LjY1N1pNMjYuODUyLDMyLjM3NWEyLjc2OCwyLjc2OCwwLDAsMCwuODc1LDIuMDIzbDEuMjU3LDEuMjU4TDM1LjQzOCwyOS4ybC0xLjMxMy0xLjQyMmEyLjY4NCwyLjY4NCwwLDAsMC0xLjk2OS0uODIsMi4yNTIsMi4yNTIsMCwwLDAtMS44Ljc2NmwtMi41NzEsMi43MzRBMi4zOCwyLjM4LDAsMCwwLDI2Ljg1MiwzMi4zNzVaTTM4LjExNywzNS42YTIuMjg0LDIuMjg0LDAsMCwwLC44MjEtMS44LDIuNTM4LDIuNTM4LDAsMCwwLS43NjYtMS44NTlsLTEuNTMxLTEuNDc3LTYuMzQ0LDYuNCwxLjM2NywxLjM2OGguMDU1bC4wNTQuMDU0YTIuMjI3LDIuMjI3LDAsMCwwLDEuNzUuODIxLDIuNjE0LDIuNjE0LDAsMCwwLDEuODYtLjg3NVoiLz48L3N2Zz4=" vertex="1" parent="1">
          <mxGeometry x="650" y="460" width="56" height="56" as="geometry" />
        </mxCell>
        <mxCell id="omp_RndTsjfDc7hUTQ8i-27" value="" style="endArrow=classic;html=1;rounded=0;exitX=1;exitY=0.25;exitDx=0;exitDy=0;entryX=0;entryY=0.25;entryDx=0;entryDy=0;" edge="1" parent="1" source="omp_RndTsjfDc7hUTQ8i-26" target="omp_RndTsjfDc7hUTQ8i-25">
          <mxGeometry width="50" height="50" relative="1" as="geometry">
            <mxPoint x="720" y="580" as="sourcePoint" />
            <mxPoint x="770" y="530" as="targetPoint" />
          </mxGeometry>
        </mxCell>
        <mxCell id="omp_RndTsjfDc7hUTQ8i-28" value="" style="endArrow=classic;html=1;rounded=0;exitX=1;exitY=0.25;exitDx=0;exitDy=0;entryX=0.75;entryY=0;entryDx=0;entryDy=0;labelPosition=center;verticalLabelPosition=middle;align=center;verticalAlign=middle;" edge="1" parent="1" source="omp_RndTsjfDc7hUTQ8i-25" target="omp_RndTsjfDc7hUTQ8i-22">
          <mxGeometry width="50" height="50" relative="1" as="geometry">
            <mxPoint x="720" y="580" as="sourcePoint" />
            <mxPoint x="770" y="530" as="targetPoint" />
            <Array as="points">
              <mxPoint x="1006" y="470" />
            </Array>
          </mxGeometry>
        </mxCell>
        <mxCell id="omp_RndTsjfDc7hUTQ8i-29" value="" style="endArrow=classic;startArrow=classic;html=1;rounded=0;entryX=1;entryY=0.75;entryDx=0;entryDy=0;exitX=0.5;exitY=0;exitDx=0;exitDy=0;labelPosition=center;verticalLabelPosition=middle;align=center;verticalAlign=middle;" edge="1" parent="1" source="omp_RndTsjfDc7hUTQ8i-22" target="omp_RndTsjfDc7hUTQ8i-25">
          <mxGeometry width="50" height="50" relative="1" as="geometry">
            <mxPoint x="720" y="580" as="sourcePoint" />
            <mxPoint x="770" y="530" as="targetPoint" />
            <Array as="points">
              <mxPoint x="990" y="499" />
            </Array>
          </mxGeometry>
        </mxCell>
        <mxCell id="omp_RndTsjfDc7hUTQ8i-30" value="4. Transaction send to Integration Suite" style="edgeLabel;html=1;align=right;verticalAlign=middle;resizable=0;points=[];labelPosition=left;verticalLabelPosition=middle;" vertex="1" connectable="0" parent="omp_RndTsjfDc7hUTQ8i-29">
          <mxGeometry x="0.0023" y="-1" relative="1" as="geometry">
            <mxPoint y="-9" as="offset" />
          </mxGeometry>
        </mxCell>
        <mxCell id="omp_RndTsjfDc7hUTQ8i-31" value="" style="html=1;verticalLabelPosition=bottom;align=center;labelBackgroundColor=#ffffff;verticalAlign=top;strokeWidth=2;strokeColor=#595959;shadow=0;dashed=0;shape=mxgraph.ios7.icons.home;fillColor=none;" vertex="1" parent="1">
          <mxGeometry x="292" y="640" width="30" height="35.5" as="geometry" />
        </mxCell>
        <mxCell id="omp_RndTsjfDc7hUTQ8i-32" value="S/4HANA" style="image;sketch=0;aspect=fixed;html=1;points=[];align=center;fontSize=12;image=img/lib/mscae/SAP_HANA_on_Azure.svg;" vertex="1" parent="1">
          <mxGeometry x="287" y="678.9200000000001" width="50" height="25" as="geometry" />
        </mxCell>
        <mxCell id="omp_RndTsjfDc7hUTQ8i-33" value="" style="edgeStyle=orthogonalEdgeStyle;rounded=0;orthogonalLoop=1;jettySize=auto;html=1;" edge="1" parent="1" source="omp_RndTsjfDc7hUTQ8i-35" target="omp_RndTsjfDc7hUTQ8i-38">
          <mxGeometry relative="1" as="geometry" />
        </mxCell>
        <mxCell id="omp_RndTsjfDc7hUTQ8i-34" value="1. Completes qty of FG parts" style="edgeLabel;html=1;align=center;verticalAlign=middle;resizable=0;points=[];" vertex="1" connectable="0" parent="omp_RndTsjfDc7hUTQ8i-33">
          <mxGeometry x="-0.2533" y="-3" relative="1" as="geometry">
            <mxPoint as="offset" />
          </mxGeometry>
        </mxCell>
        <mxCell id="omp_RndTsjfDc7hUTQ8i-35" value="Operator" style="sketch=0;outlineConnect=0;fontColor=#232F3E;gradientColor=none;fillColor=#232F3D;strokeColor=none;dashed=0;verticalLabelPosition=bottom;verticalAlign=top;align=center;html=1;fontSize=12;fontStyle=0;aspect=fixed;pointerEvents=1;shape=mxgraph.aws4.user;" vertex="1" parent="1">
          <mxGeometry x="40" y="790" width="78" height="78" as="geometry" />
        </mxCell>
        <mxCell id="omp_RndTsjfDc7hUTQ8i-36" value="Desktop" style="shape=image;verticalLabelPosition=bottom;verticalAlign=top;imageAspect=0;aspect=fixed;image=data:image/svg+xml,PHN2ZyB4bWxucz0iaHR0cDovL3d3dy53My5vcmcvMjAwMC9zdmciIHZpZXdCb3g9Ii0wLjAwMDExNzkzOTg5Njg4MTU4MDM1IC0wLjAwMjIyMjEyMjYyNDUxNjQ4NyA0OC4wMDAxMTgyNTU2MTUyMzQgNDIuMDAyMzM4NDA5NDIzODMiIHdpZHRoPSI0OC4wMDAxMTgyNTU2MTUyMzQiIGhlaWdodD0iNDIuMDAyMzM4NDA5NDIzODMiPjxkZWZzPjxzdHlsZT4uY2xzLTF7ZmlsbDojNTk1OTU5O308L3N0eWxlPjwvZGVmcz48dGl0bGU+bGFwdG9wPC90aXRsZT48ZyBpZD0iTGF5ZXJfMiIgZGF0YS1uYW1lPSJMYXllciAyIj48ZyBpZD0ibGFwdG9wIj48cGF0aCBjbGFzcz0iY2xzLTEiIGQ9Ik00OCwzOC41MzFBMy41MjEsMy41MjEsMCwwLDEsNDQuNTMyLDQySDMuNDY5YTMuMzMyLDMuMzMyLDAsMCwxLTIuNDM4LTEuMDMxQTMuMzMyLDMuMzMyLDAsMCwxLDAsMzguNTMxTDYuODQ0LDMwSDQxLjE1N1pNOSwyN2EyLjgzMywyLjgzMywwLDAsMS0yLjE1Ni0uODkxQTIuOTYxLDIuOTYxLDAsMCwxLDYsMjRWM0EyLjg4OSwyLjg4OSwwLDAsMSw5LDBIMzlhMi45NjYsMi45NjYsMCwwLDEsMi4xMS44NDRBMi44MzcsMi44MzcsMCwwLDEsNDIsM1YyNGEzLjA0MSwzLjA0MSwwLDAsMS0zLDNabTAtM0gzOVYzSDlaTTMwLDM5bC0zLTNIMjFsLTMsM1oiLz48L2c+PC9nPjwvc3ZnPg==" vertex="1" parent="1">
          <mxGeometry x="51" y="442.99999999999994" width="48" height="42" as="geometry" />
        </mxCell>
        <mxCell id="omp_RndTsjfDc7hUTQ8i-37" value="Mobile" style="shape=image;verticalLabelPosition=bottom;verticalAlign=top;imageAspect=0;aspect=fixed;image=data:image/svg+xml,PHN2ZyB4bWxucz0iaHR0cDovL3d3dy53My5vcmcvMjAwMC9zdmciIHZpZXdCb3g9Ii0wLjAwMTE1OTgxOTQyNTA4MzY5NjggLTAuMDAwMjE0OTc5MTY4OTU4OTYxOTYgMzAuMDAyMzE5MzM1OTM3NSA0OC4wMDA1NzYwMTkyODcxMSIgd2lkdGg9IjMwLjAwMjMxOTMzNTkzNzUiIGhlaWdodD0iNDguMDAwNTc2MDE5Mjg3MTEiPjxkZWZzPjxzdHlsZT4uY2xzLTF7ZmlsbDojNTk1OTU5O308L3N0eWxlPjwvZGVmcz48dGl0bGU+aXBob25lPC90aXRsZT48ZyBpZD0iTGF5ZXJfMiIgZGF0YS1uYW1lPSJMYXllciAyIj48ZyBpZD0iaXBob25lIj48cGF0aCBjbGFzcz0iY2xzLTEiIGQ9Ik0yNCwwYTUuNzcxLDUuNzcxLDAsMCwxLDQuMjE5LDEuNzgxQTUuNzY5LDUuNzY5LDAsMCwxLDMwLDZWNDJhNS43MjUsNS43MjUsMCwwLDEtMS43ODEsNC4yNjZBNS44NDQsNS44NDQsMCwwLDEsMjQsNDhINmE1Ljg0Miw1Ljg0MiwwLDAsMS00LjIxOS0xLjczNEE1LjcyNSw1LjcyNSwwLDAsMSwwLDQyVjZBNS43NjksNS43NjksMCwwLDEsMS43ODEsMS43ODEsNS43Nyw1Ljc3LDAsMCwxLDYsMFptMyw2SDNWMzlIMjdaTTE1LDQ1YTIuMjU3LDIuMjU3LDAsMCwwLDEuNTk0LS42MDksMi4xMzcsMi4xMzcsMCwwLDAsLjY1Ni0xLjY0MSwyLjI1LDIuMjUsMCwxLDAtNC41LDAsMi4xMzMsMi4xMzMsMCwwLDAsLjY1NiwxLjY0MUEyLjI1MywyLjI1MywwLDAsMCwxNSw0NVoiLz48L2c+PC9nPjwvc3ZnPg==" vertex="1" parent="1">
          <mxGeometry x="60" y="535" width="30" height="48" as="geometry" />
        </mxCell>
        <mxCell id="omp_RndTsjfDc7hUTQ8i-38" value="" style="rounded=1;whiteSpace=wrap;html=1;fillColor=none;dashed=1;" vertex="1" parent="1">
          <mxGeometry x="18" y="414.99999999999994" width="122" height="200" as="geometry" />
        </mxCell>
        <mxCell id="omp_RndTsjfDc7hUTQ8i-39" value="" style="edgeStyle=orthogonalEdgeStyle;rounded=0;orthogonalLoop=1;jettySize=auto;html=1;" edge="1" parent="1" source="omp_RndTsjfDc7hUTQ8i-41" target="omp_RndTsjfDc7hUTQ8i-6">
          <mxGeometry relative="1" as="geometry" />
        </mxCell>
        <mxCell id="omp_RndTsjfDc7hUTQ8i-40" value="2. Receipt created" style="edgeLabel;html=1;align=center;verticalAlign=middle;resizable=0;points=[];" vertex="1" connectable="0" parent="omp_RndTsjfDc7hUTQ8i-39">
          <mxGeometry x="-0.3378" y="-2" relative="1" as="geometry">
            <mxPoint as="offset" />
          </mxGeometry>
        </mxCell>
        <mxCell id="omp_RndTsjfDc7hUTQ8i-41" value="Application Client" style="text;html=1;align=center;verticalAlign=middle;resizable=0;points=[];autosize=1;strokeColor=none;fillColor=none;" vertex="1" parent="1">
          <mxGeometry x="20" y="414.99999999999994" width="120" height="30" as="geometry" />
        </mxCell>
        <mxCell id="omp_RndTsjfDc7hUTQ8i-42" value="" style="endArrow=classic;startArrow=classic;html=1;rounded=0;entryX=0;entryY=0.5;entryDx=0;entryDy=0;exitX=0.75;exitY=1;exitDx=0;exitDy=0;" edge="1" parent="1" source="omp_RndTsjfDc7hUTQ8i-26" target="omp_RndTsjfDc7hUTQ8i-22">
          <mxGeometry width="50" height="50" relative="1" as="geometry">
            <mxPoint x="710" y="680" as="sourcePoint" />
            <mxPoint x="760" y="630" as="targetPoint" />
            <Array as="points">
              <mxPoint x="690" y="620" />
            </Array>
          </mxGeometry>
        </mxCell>
        <mxCell id="omp_RndTsjfDc7hUTQ8i-43" value="5. Lookup Production Order details&lt;br&gt;in S/4HANA" style="edgeLabel;html=1;align=center;verticalAlign=middle;resizable=0;points=[];" vertex="1" connectable="0" parent="omp_RndTsjfDc7hUTQ8i-42">
          <mxGeometry x="0.6986" y="2" relative="1" as="geometry">
            <mxPoint x="-128" y="-34" as="offset" />
          </mxGeometry>
        </mxCell>
        <mxCell id="omp_RndTsjfDc7hUTQ8i-44" value="" style="endArrow=classic;startArrow=classic;html=1;rounded=0;entryX=0.25;entryY=1;entryDx=0;entryDy=0;exitX=0.985;exitY=0.546;exitDx=0;exitDy=0;exitPerimeter=0;" edge="1" parent="1" source="omp_RndTsjfDc7hUTQ8i-24" target="omp_RndTsjfDc7hUTQ8i-26">
          <mxGeometry width="50" height="50" relative="1" as="geometry">
            <mxPoint x="590" y="690" as="sourcePoint" />
            <mxPoint x="640" y="640" as="targetPoint" />
            <Array as="points">
              <mxPoint x="664" y="685" />
            </Array>
          </mxGeometry>
        </mxCell>
        <mxCell id="omp_RndTsjfDc7hUTQ8i-45" value="6. Send back Production Order details&lt;br&gt;&lt;span style=&quot;white-space: pre;&quot;&gt;&#x9;&lt;/span&gt;&lt;span style=&quot;white-space: pre;&quot;&gt;&#x9;&lt;/span&gt;&amp;nbsp;to Integration Suite" style="edgeLabel;html=1;align=left;verticalAlign=middle;resizable=0;points=[];labelPosition=right;verticalLabelPosition=middle;" vertex="1" connectable="0" parent="omp_RndTsjfDc7hUTQ8i-44">
          <mxGeometry x="-0.6866" relative="1" as="geometry">
            <mxPoint as="offset" />
          </mxGeometry>
        </mxCell>
        <mxCell id="omp_RndTsjfDc7hUTQ8i-46" value="On-premise / Private Cloud" style="text;html=1;strokeColor=none;fillColor=none;align=left;verticalAlign=middle;whiteSpace=wrap;rounded=0;" vertex="1" parent="1">
          <mxGeometry x="220" y="615" width="159.5" height="30" as="geometry" />
        </mxCell>
        <mxCell id="omp_RndTsjfDc7hUTQ8i-47" value="On-premise / Private Cloud" style="text;html=1;strokeColor=none;fillColor=none;align=left;verticalAlign=middle;whiteSpace=wrap;rounded=0;" vertex="1" parent="1">
          <mxGeometry x="220" y="750" width="159.5" height="30" as="geometry" />
        </mxCell>
      </root>
    </mxGraphModel>
  </diagram>
</mxfile>
